<svg width="60" height="59" viewBox="0 0 60 59" fill="none" xmlns="http://www.w3.org/2000/svg">
<g clip-path="url(#clip0_2:1615)">
<path d="M10.625 0H49.375C55.25 0 60 4.75 60 10.625V47.875C60 53.75 55.25 58.5 49.375 58.5H10.625C4.75 58.5 0 53.75 0 47.875V10.625C0 4.75 4.75 0 10.625 0Z" fill="#00005B"/>
<path d="M14.25 41V15.25C14.25 15.075 14.325 14.975 14.5 14.975C14.925 14.975 15.325 14.975 15.9 14.95C16.5 14.925 17.125 14.925 17.8 14.9C18.475 14.875 19.2 14.875 19.975 14.85C20.75 14.825 21.5 14.825 22.25 14.825C24.3 14.825 26 15.075 27.4 15.6C28.65 16.025 29.8 16.725 30.75 17.65C31.55 18.45 32.175 19.425 32.575 20.5C32.95 21.55 33.15 22.625 33.15 23.75C33.15 25.9 32.65 27.675 31.65 29.075C30.65 30.475 29.25 31.525 27.625 32.125C25.925 32.75 24.05 32.975 22 32.975C21.4 32.975 21 32.975 20.75 32.95C20.5 32.925 20.15 32.925 19.675 32.925V40.95C19.7 41.125 19.575 41.275 19.4 41.3H19.3H14.55C14.35 41.3 14.25 41.2 14.25 40.975V41ZM19.7 19.825V28.225C20.05 28.25 20.375 28.275 20.675 28.275H22C22.975 28.275 23.95 28.125 24.875 27.825C25.675 27.6 26.375 27.125 26.925 26.5C27.45 25.875 27.7 25.025 27.7 23.925C27.725 23.15 27.525 22.375 27.125 21.7C26.7 21.05 26.1 20.55 25.375 20.275C24.45 19.9 23.45 19.75 22.425 19.775C21.775 19.775 21.2 19.775 20.725 19.8C20.225 19.775 19.875 19.8 19.7 19.825Z" fill="#9999FF"/>
<path d="M36.7499 21.2999H41.1249C41.3749 21.2999 41.5749 21.4749 41.6499 21.6999C41.7249 21.8999 41.7749 22.0999 41.7999 22.3249C41.8499 22.5749 41.8999 22.8499 41.9249 23.0999C41.9499 23.3749 41.9749 23.6749 41.9749 23.9999C42.7249 23.1249 43.6249 22.3999 44.6499 21.8499C45.7999 21.1999 47.1249 20.8749 48.4499 20.8749C48.6249 20.8499 48.7749 20.9749 48.7999 21.1499V21.2499V26.1249C48.7999 26.3249 48.6749 26.3999 48.3999 26.3999C47.4999 26.3749 46.5749 26.4499 45.6999 26.6499C44.9749 26.7999 44.2749 27.0249 43.5999 27.3249C43.1249 27.5499 42.6749 27.8499 42.3249 28.2499V40.9999C42.3249 41.2499 42.2249 41.3499 41.9999 41.3499H37.0749C36.8749 41.3749 36.6999 41.2499 36.6749 41.0499V40.9499V27.0999C36.6749 26.4999 36.6749 25.8749 36.6499 25.2249C36.6249 24.5749 36.6249 23.9249 36.5999 23.2749C36.5999 22.6999 36.5499 22.1499 36.4999 21.5749C36.4749 21.4499 36.5499 21.3249 36.6749 21.2999C36.6749 21.2749 36.7249 21.2749 36.7499 21.2999Z" fill="#9999FF"/>
</g>
<defs>
<clipPath id="clip0_2:1615">
<rect width="60" height="58.5" fill="white"/>
</clipPath>
</defs>
</svg>
