<svg width="60" height="56" viewBox="0 0 60 56" fill="none" xmlns="http://www.w3.org/2000/svg">
<path d="M20.418 7.26904C20.9979 5.74674 21.7954 4.34525 22.9794 3.20956C27.7155 -1.40569 35.5446 -0.245836 38.7584 5.55343C41.1748 9.9512 43.7361 14.2523 46.225 18.6018L58.6936 40.3007C62.149 46.3657 58.4036 54.0256 51.5411 55.0646C47.3366 55.6929 43.3979 53.7598 41.2231 49.9903L30.2527 30.9494C30.1802 30.8044 30.0836 30.6836 29.9869 30.5627C29.6003 30.2486 29.4311 29.7895 29.1895 29.3787L21.1188 15.388C20.1764 13.7449 19.7414 11.9568 19.7898 10.072C19.8622 9.10548 19.9831 8.13893 20.418 7.26904Z" fill="#3C8BD9"/>
<path d="M20.4181 7.26892C20.2006 8.13881 20.0073 9.0087 19.959 9.92692C19.8865 11.9567 20.3939 13.8414 21.4088 15.6054L29.3587 29.3544C29.6004 29.7652 29.7937 30.176 30.0353 30.5626L25.6617 38.0775L19.5482 48.6128C19.4515 48.6128 19.4274 48.5645 19.4032 48.492C19.3791 48.2987 19.4515 48.1296 19.4999 47.9362C20.4906 44.3117 19.669 41.0979 17.1801 38.3433C15.6578 36.676 13.7247 35.7336 11.5016 35.4195C8.60197 35.0087 6.0406 35.7578 3.74503 37.5701C3.33424 37.8842 3.06844 38.3433 2.58516 38.5849C2.48851 38.5849 2.44018 38.5366 2.41602 38.4641L5.87145 32.4474L20.249 7.53472C20.2973 7.43807 20.3698 7.36558 20.4181 7.26892Z" fill="#FABC04"/>
<path d="M2.51251 38.5366L3.88985 37.3043C9.76167 32.6649 18.5815 36.0236 19.8622 43.3694C20.1763 45.1333 20.0072 46.8248 19.4755 48.5162C19.4514 48.6612 19.4272 48.782 19.3789 48.927C19.1614 49.3136 18.9681 49.7244 18.7265 50.111C16.5759 53.6631 13.4104 55.427 9.25423 55.1612C4.49395 54.8229 0.748545 51.2467 0.0961205 46.5106C-0.21801 44.2151 0.241104 42.0645 1.42513 40.0831C1.66677 39.6482 1.95674 39.2616 2.22254 38.8266C2.34336 38.73 2.29503 38.5366 2.51251 38.5366Z" fill="#34A852"/>
<path d="M2.51272 38.5368C2.41607 38.6335 2.41607 38.8026 2.24692 38.8268C2.22276 38.6577 2.31941 38.561 2.41607 38.4402L2.51272 38.5368Z" fill="#FABC04"/>
<path d="M19.3789 48.9272C19.2822 48.7581 19.3789 48.6372 19.4756 48.5164L19.5722 48.6131L19.3789 48.9272Z" fill="#E1C025"/>
</svg>
