<svg width="60" height="32" viewBox="0 0 60 32" fill="none" xmlns="http://www.w3.org/2000/svg">
<rect width="60" height="32" rx="4" fill="#4582EC"/>
<path d="M21.272 8C22.76 8 24.048 8.248 25.136 8.744C26.24 9.24 27.088 9.944 27.68 10.856C28.272 11.768 28.568 12.848 28.568 14.096C28.568 15.328 28.272 16.408 27.68 17.336C27.088 18.248 26.24 18.952 25.136 19.448C24.048 19.928 22.76 20.168 21.272 20.168H17.888V24.8H14V8H21.272ZM21.056 17C22.224 17 23.112 16.752 23.72 16.256C24.328 15.744 24.632 15.024 24.632 14.096C24.632 13.152 24.328 12.432 23.72 11.936C23.112 11.424 22.224 11.168 21.056 11.168H17.888V17H21.056Z" fill="white"/>
<path d="M42.0478 24.8L38.8078 20.12H35.2318V24.8H31.3438V8H38.6157C40.1038 8 41.3918 8.248 42.4798 8.744C43.5838 9.24 44.4318 9.944 45.0238 10.856C45.6157 11.768 45.9118 12.848 45.9118 14.096C45.9118 15.344 45.6077 16.424 44.9998 17.336C44.4077 18.232 43.5597 18.92 42.4557 19.4L46.2238 24.8H42.0478ZM41.9757 14.096C41.9757 13.152 41.6718 12.432 41.0638 11.936C40.4558 11.424 39.5677 11.168 38.3997 11.168H35.2318V17.024H38.3997C39.5677 17.024 40.4558 16.768 41.0638 16.256C41.6718 15.744 41.9757 15.024 41.9757 14.096Z" fill="white"/>
</svg>
