<svg width="53" height="60" viewBox="0 0 53 60" fill="none" xmlns="http://www.w3.org/2000/svg">
<g clip-path="url(#clip0_2:1602)">
<path d="M45.9834 11.7823C45.9421 11.4823 45.6793 11.3163 45.4621 11.298C45.2453 11.2799 40.6574 10.9398 40.6574 10.9398C40.6574 10.9398 37.471 7.77648 37.1213 7.42634C36.7714 7.07641 36.0879 7.18285 35.8227 7.26093C35.7836 7.27244 35.1265 7.47525 34.0395 7.81162C32.9751 4.74873 31.0966 1.93407 27.7919 1.93407C27.7007 1.93407 27.6068 1.93776 27.5129 1.94311C26.573 0.700158 25.4087 0.160156 24.4031 0.160156C16.7048 0.160156 13.027 9.78382 11.8738 14.6742C8.88245 15.6012 6.75738 16.2601 6.48594 16.3454C4.81621 16.8692 4.7634 16.9218 4.54416 18.4951C4.37916 19.6863 0.0102539 53.4732 0.0102539 53.4732L34.0537 59.8517L52.4996 55.8613C52.4996 55.8613 46.0243 12.0823 45.9836 11.7823H45.9834ZM32.1579 8.39354L29.2773 9.28512C29.2783 9.0821 29.2794 8.88238 29.2794 8.66395C29.2794 6.76038 29.0151 5.22771 28.5912 4.0127C30.294 4.2264 31.4281 6.16387 32.1579 8.39354ZM26.4789 4.39017C26.9523 5.57641 27.2601 7.27881 27.2601 9.57608C27.2601 9.69361 27.2591 9.80108 27.2581 9.90978C25.3847 10.4901 23.349 11.1201 21.3088 11.7521C22.4544 7.331 24.6016 5.19565 26.4789 4.39017ZM24.1917 2.22503C24.524 2.22503 24.8587 2.33783 25.179 2.55831C22.7118 3.71928 20.0673 6.64326 18.9505 12.4824L14.2479 13.9388C15.556 9.48505 18.662 2.22503 24.1915 2.22503H24.1917Z" fill="#95BF46"/>
<path d="M45.4621 11.298C45.2454 11.2799 40.6574 10.9399 40.6574 10.9399C40.6574 10.9399 37.4711 7.77652 37.1214 7.42638C36.9905 7.29611 36.814 7.22933 36.6294 7.20056L34.0554 59.8512L52.4996 55.8612C52.4996 55.8612 46.0241 12.0823 45.9834 11.7823C45.9421 11.4823 45.6793 11.3163 45.4621 11.298Z" fill="#5E8E3E"/>
<path d="M27.792 21.4902L25.5176 28.2559C25.5176 28.2559 23.5248 27.1923 21.0821 27.1923C17.501 27.1923 17.3208 29.4397 17.3208 30.006C17.3208 33.096 25.3756 34.28 25.3756 41.5178C25.3756 47.2123 21.7639 50.8791 16.8941 50.8791C11.0502 50.8791 8.06177 47.2421 8.06177 47.2421L9.62649 42.0722C9.62649 42.0722 12.6984 44.7095 15.2905 44.7095C16.9843 44.7095 17.6732 43.3759 17.6732 42.4016C17.6732 38.3709 11.065 38.1911 11.065 31.5678C11.065 25.9933 15.0661 20.5989 23.1426 20.5989C26.2546 20.5989 27.792 21.4902 27.792 21.4902Z" fill="white"/>
</g>
<defs>
<clipPath id="clip0_2:1602">
<rect width="52.608" height="60" fill="white"/>
</clipPath>
</defs>
</svg>
