<svg width="60" height="61" viewBox="0 0 60 61" fill="none" xmlns="http://www.w3.org/2000/svg">
<g clip-path="url(#clip0_2:1493)">
<path d="M30 60.1943C46.5685 60.1943 60 46.7627 60 30.1941C60 13.6255 46.5685 0.194031 30 0.194031C13.4315 0.194031 0 13.6255 0 30.1941C0 46.7627 13.4315 60.1943 30 60.1943Z" fill="#1A171B"/>
<path d="M43.0564 11.2794C40.0128 11.3855 37.3564 13.0629 35.3789 15.3833C33.1894 17.9274 31.7328 20.945 30.6832 24.0251C28.8059 22.4864 27.3575 20.4945 24.3455 19.6259C22.0175 18.9575 19.5722 19.2336 17.3236 20.9089C16.2584 21.7046 15.5246 22.9074 15.1756 24.038C14.2721 26.9764 16.1255 29.5913 16.9674 30.5302L18.8079 32.5027C19.1874 32.8894 20.1012 33.8984 19.6545 35.3449C19.1717 36.9176 17.2756 37.936 15.3307 37.336C14.4621 37.0711 13.2143 36.424 13.4937 35.5128C13.6093 35.1401 13.876 34.8612 14.0189 34.5389C14.1502 34.2621 14.2128 34.0545 14.2526 33.9326C14.6079 32.7724 14.1225 31.2631 12.8799 30.8799C11.7207 30.5246 10.5345 30.806 10.0746 32.2988C9.55316 33.9945 10.3646 37.0721 14.7113 38.4122C19.804 39.9769 24.1121 37.204 24.7231 33.5874C25.1079 31.3221 24.0851 29.6393 22.2113 27.4749L20.6846 25.7864C19.7597 24.8625 19.4421 23.2878 20.3993 22.0775C21.207 21.0565 22.3573 20.6208 24.2412 21.1332C26.9911 21.8799 28.2169 23.7879 30.2623 25.3268C29.4178 28.0969 28.8659 30.8773 28.3662 33.3706L28.0618 35.2294C26.5997 42.8984 25.4836 47.1094 22.5832 49.527C21.9989 49.9425 21.1636 50.5645 19.9046 50.6079C19.2446 50.6283 19.0313 50.1743 19.0221 49.9765C19.0064 49.5131 19.3969 49.3008 19.6564 49.0922C20.044 48.8808 20.6302 48.5302 20.5903 47.4068C20.5482 46.0793 19.4485 44.9283 17.8589 44.981C16.6683 45.0216 14.8535 46.1421 14.9218 48.1931C14.9928 50.3116 16.9674 51.8993 19.9444 51.7987C21.5358 51.7441 25.0894 51.0963 28.5917 46.9331C32.6679 42.1608 33.8079 36.6898 34.6655 32.6855L35.6227 27.3989C36.1545 27.4627 36.7231 27.5051 37.3416 27.5199C42.4184 27.627 44.9578 24.9973 44.9956 23.0846C45.0207 21.927 44.236 20.7879 43.1375 20.8137C42.3511 20.836 41.3632 21.3593 41.126 22.4468C40.8945 23.5137 42.7416 24.4765 41.2978 25.4117C40.2722 26.0754 38.4335 26.5432 35.8442 26.1631L36.315 23.5608C37.276 18.6261 38.4612 12.556 42.9575 12.4083C43.2851 12.3917 44.4842 12.4231 44.5121 13.216C44.5203 13.4808 44.4546 13.5483 44.1446 14.1547C43.8289 14.6274 43.7098 15.0298 43.7246 15.4922C43.7679 16.7522 44.726 17.5803 46.1117 17.5304C47.967 17.4704 48.5007 15.664 48.4702 14.7364C48.3952 12.5567 46.0978 11.1797 43.0561 11.2794H43.0564Z" fill="white"/>
</g>
<defs>
<clipPath id="clip0_2:1493">
<rect width="60" height="60.241" fill="white"/>
</clipPath>
</defs>
</svg>
