<svg width="60" height="60" viewBox="0 0 60 60" fill="none" xmlns="http://www.w3.org/2000/svg">
<path d="M4.26417 29.9984C4.26417 40.1849 10.184 48.9881 18.7682 53.1597L6.49225 19.5249C5.02064 22.8204 4.26138 26.3893 4.26417 29.9984ZM47.3724 28.6998C47.3724 25.5192 46.2299 23.3166 45.2501 21.6022C43.9456 19.4823 42.7228 17.6871 42.7228 15.5673C42.7228 13.2016 44.517 10.9995 47.0443 10.9995C47.1584 10.9995 47.2666 11.0137 47.3778 11.02C42.7992 6.82535 36.6992 4.26428 29.9992 4.26428C21.0086 4.26428 13.0986 8.87715 8.49703 15.864C9.10082 15.8821 9.66983 15.8949 10.1532 15.8949C12.845 15.8949 17.0117 15.5683 17.0117 15.5683C18.399 15.4865 18.5626 17.5241 17.1768 17.6881C17.1768 17.6881 15.7826 17.8522 14.2313 17.9335L23.6029 45.809L29.2348 28.9182L25.2253 17.9325C23.8394 17.8512 22.5266 17.6871 22.5266 17.6871C21.1398 17.6059 21.3024 15.4855 22.6892 15.5673C22.6892 15.5673 26.9392 15.8939 29.4679 15.8939C32.1592 15.8939 36.3265 15.5673 36.3265 15.5673C37.7148 15.4855 37.8778 17.5231 36.4915 17.6871C36.4915 17.6871 35.0944 17.8512 33.546 17.9325L42.8462 45.597L45.4131 37.0191C46.5257 33.4595 47.3724 30.9029 47.3724 28.6998Z" fill="#21759B"/>
<path d="M30.4504 32.2496L22.729 54.6866C25.0897 55.3819 27.5379 55.735 29.9989 55.735C32.9958 55.735 35.8698 55.2169 38.5449 54.2762C38.4736 54.1637 38.4123 54.0451 38.3618 53.9217L30.4504 32.2496ZM52.5804 17.6515C52.6911 18.4712 52.7537 19.3512 52.7537 20.2978C52.7537 22.9093 52.266 25.8449 50.7969 29.5157L42.936 52.2435C50.5869 47.782 55.733 39.493 55.733 29.999C55.7335 25.5247 54.5906 21.3173 52.5804 17.6515Z" fill="#21759B"/>
<path d="M29.9993 6.10352e-05C13.4581 6.10352e-05 0 13.4572 0 29.9984C0 46.5415 13.4581 59.9981 29.9993 59.9981C46.5399 59.9981 60 46.5415 60 29.9984C59.9995 13.4572 46.5399 6.10352e-05 29.9993 6.10352e-05ZM29.9993 58.6231C14.2166 58.6231 1.37553 45.782 1.37553 29.9984C1.37553 14.2157 14.2161 1.3756 29.9993 1.3756C45.7814 1.3756 58.6215 14.2157 58.6215 29.9984C58.6215 45.782 45.7814 58.6231 29.9993 58.6231Z" fill="#21759B"/>
</svg>
