<svg width="100" height="100" viewBox="0 0 100 100" fill="none" xmlns="http://www.w3.org/2000/svg">
<path d="M98.755 56.5268C96.4453 49.767 91.3062 44.7768 85.1121 42.4249C81.9031 41.2063 79.7711 38.1561 79.724 34.7239C79.723 34.6489 79.7216 34.5737 79.7199 34.4985C79.4255 21.8848 68.8824 11.7778 56.2673 11.9944C48.8271 12.1221 42.2462 15.7747 38.1218 21.3538C34.5701 26.1583 29.0417 29.1594 23.0671 29.1563C22.8917 29.1563 22.7162 29.1581 22.5398 29.162C10.4466 29.4262 0.163426 39.8022 0.00209793 51.8969C-0.169582 64.7743 10.2175 75.2668 23.0552 75.2668C33.0058 75.2668 41.4828 68.9627 44.7126 60.1307C45.5578 57.8198 48.0627 56.5811 50.432 57.2456C50.4615 57.2538 50.4912 57.2622 50.5209 57.2704C52.6886 57.8688 54.1259 59.9344 53.9486 62.1764C53.7109 65.1809 54.0621 68.2809 55.081 71.3163C59.089 83.2567 72.1099 89.8094 84.0835 85.9022C96.3318 81.9051 102.908 68.6788 98.755 56.5268Z" fill="url(#paint0_linear_2:1264)"/>
<path opacity="0.1" d="M89.9548 70.9017L86.7759 69.9964C86.4645 68.7273 85.9634 67.5322 85.3038 66.4445L86.9122 63.5556C87.0485 63.3099 87.0058 63.0027 86.8071 62.8041L84.6345 60.6314C84.4356 60.4326 84.1284 60.39 83.8829 60.5263L80.9939 62.1347C79.9062 61.4751 78.711 60.974 77.4419 60.6628L76.5366 57.4839C76.4595 57.2128 76.2122 57.0263 75.9304 57.0263H74.3942V8.78686C74.3942 7.17085 73.0827 5.85913 71.4665 5.85913H28.5276C26.9116 5.85913 25.5999 7.17065 25.5999 8.78686V15.4437H17.4149C15.7995 15.4437 14.4868 16.7564 14.4868 18.3718V79.7011C14.4868 81.3185 15.7995 82.6292 17.4149 82.6292H60.3534C61.0444 82.6292 61.6788 82.388 62.18 81.9871L61.8763 82.5324C61.7399 82.7779 61.7827 83.0853 61.9813 83.2839L64.154 85.4566C64.3528 85.6554 64.6601 85.698 64.9056 85.5617L67.7946 83.9533C68.8821 84.6128 70.0774 85.114 71.3466 85.4253L72.2519 88.6042C72.329 88.8753 72.5763 89.0619 72.8581 89.0619H75.9304C76.2122 89.0619 76.4595 88.8753 76.5366 88.6042L77.4419 85.4253C78.711 85.114 79.9062 84.613 80.9939 83.9533L83.8829 85.5617C84.1286 85.698 84.4356 85.6552 84.6345 85.4566L86.8071 83.2839C87.006 83.0851 87.0485 82.7779 86.9122 82.5324L85.3038 79.6433C85.9634 78.5558 86.4645 77.3605 86.7759 76.0914L89.9548 75.1861C90.2259 75.1089 90.4124 74.8617 90.4124 74.5798V71.5078C90.4124 71.2261 90.2259 70.9789 89.9548 70.9017ZM63.2589 80.049C63.2724 79.9347 63.2813 79.8191 63.2813 79.7011V79.2935C63.3476 79.4111 63.4147 79.5281 63.4847 79.6433L63.2589 80.049ZM74.3942 78.0822C71.612 78.0822 69.3564 75.8265 69.356 73.0445H71.4665C73.0825 73.0445 74.3942 71.733 74.3942 70.1167V68.0056C77.1767 68.0056 79.4325 70.2615 79.4325 73.0439C79.4325 75.8263 77.1767 78.0822 74.3942 78.0822Z" fill="#0E62F3"/>
<path d="M63.2816 22.4738V83.8031C63.2816 85.4204 61.9689 86.7312 60.3534 86.7312H17.4149C15.7995 86.7312 14.4868 85.4204 14.4868 83.8031V22.4738C14.4868 20.8584 15.7995 19.5457 17.4149 19.5457H60.3534C61.9689 19.5457 63.2816 20.8584 63.2816 22.4738Z" fill="white"/>
<path d="M58.5051 58.5223V34.3199C58.5051 33.9965 58.243 33.7344 57.9195 33.7344H19.8482C19.5248 33.7344 19.2627 33.9965 19.2627 34.3199V58.5219C19.2627 58.8453 19.5248 59.1074 19.8482 59.1074H57.9195C58.243 59.1078 58.5051 58.8455 58.5051 58.5223Z" fill="#8FB4F4"/>
<path d="M63.2814 28.9474V22.4731C63.2814 20.8562 61.9706 19.5454 60.3536 19.5454H17.4146C15.7976 19.5454 14.4868 20.8562 14.4868 22.4731V28.9474H63.2814Z" fill="white"/>
<path d="M73.7943 13.3445V74.6744C73.7943 76.2904 72.4828 77.6021 70.8666 77.6021H27.9277C26.3117 77.6021 25 76.2906 25 74.6744V13.3445C25 11.7285 26.3115 10.4167 27.9277 10.4167H70.8668C72.4828 10.4167 73.7943 11.7285 73.7943 13.3445Z" fill="#8FB4F4"/>
<path d="M25 68.75V75.1302C25 77.3582 26.3439 79.1667 28.0001 79.1667H71.9999C73.6559 79.1667 75 77.3585 75 75.1302V68.75H25Z" fill="white"/>
<path d="M36.2529 9.96118H28.5273C26.9113 9.96118 25.5996 11.2727 25.5996 12.8889V74.2188C25.5996 75.8348 26.9111 77.1465 28.5273 77.1465H36.2529V9.96118Z" fill="white"/>
<path d="M74.394 19.3629V12.8887C74.394 11.2717 73.0832 9.96094 71.4662 9.96094H28.5273C26.9103 9.96094 25.5996 11.2717 25.5996 12.8887V19.3629H74.394Z" fill="white"/>
<path d="M89.9542 75.0035L86.7753 74.0982C86.464 72.829 85.963 71.6339 85.3032 70.5462L86.9116 67.6572C87.0479 67.4115 87.0052 67.1044 86.8065 66.9056L84.6339 64.733C84.435 64.5341 84.1278 64.4915 83.8823 64.6279L80.9933 66.2363C79.9058 65.5767 78.7104 65.0755 77.4413 64.7642L76.536 61.5853C76.4589 61.3142 76.2116 61.1277 75.9298 61.1277H72.8575C72.5757 61.1277 72.3286 61.3142 72.2513 61.5853L71.346 64.7642C70.0769 65.0755 68.8817 65.5765 67.794 66.2363L64.905 64.6279C64.6593 64.4915 64.3522 64.5343 64.1534 64.733L61.9808 66.9056C61.7819 67.1044 61.7392 67.4117 61.8757 67.6572L63.4841 70.5462C62.8245 71.6337 62.3233 72.829 62.012 74.0982L58.8331 75.0035C58.562 75.0806 58.3755 75.3279 58.3755 75.6097V78.682C58.3755 78.9638 58.562 79.2111 58.8331 79.2882L62.012 80.1935C62.3233 81.4626 62.8243 82.6578 63.4841 83.7455L61.8757 86.6345C61.7394 86.8802 61.7821 87.1872 61.9808 87.3861L64.1534 89.5587C64.3522 89.7576 64.6595 89.8003 64.905 89.6638L67.794 88.0554C68.8815 88.715 70.0769 89.2162 71.346 89.5275L72.2513 92.7064C72.3284 92.9775 72.5757 93.164 72.8575 93.164H75.9298C76.2116 93.164 76.4587 92.9775 76.536 92.7064L77.4413 89.5275C78.7104 89.2162 79.9056 88.7152 80.9933 88.0554L83.8823 89.6638C84.128 89.8001 84.435 89.7574 84.6339 89.5587L86.8065 87.3861C87.0054 87.1872 87.0481 86.88 86.9116 86.6345L85.3032 83.7455C85.9628 82.658 86.464 81.4626 86.7753 80.1935L89.9542 79.2882C90.2253 79.2111 90.4118 78.9638 90.4118 78.682V75.6097C90.4118 75.3279 90.2253 75.0806 89.9542 75.0035ZM74.3936 82.1839C71.6112 82.1839 69.3554 79.9281 69.3554 77.1456C69.3554 74.3632 71.6112 72.1074 74.3936 72.1074C77.1761 72.1074 79.4319 74.3632 79.4319 77.1456C79.4319 79.9281 77.1761 82.1839 74.3936 82.1839Z" fill="white"/>
<path d="M19.4377 12.475C18.8984 12.475 18.4611 12.0378 18.4611 11.4984C18.4611 10.8521 17.9354 10.3263 17.2891 10.3263C16.7498 10.3263 16.3125 9.88921 16.3125 9.34976C16.3125 8.8103 16.7498 8.37319 17.2891 8.37319C17.9354 8.37319 18.4611 7.84741 18.4611 7.20093C18.4611 6.66147 18.8984 6.22437 19.4377 6.22437C19.977 6.22437 20.4143 6.66147 20.4143 7.20093C20.4143 7.84741 20.94 8.37319 21.5863 8.37319C22.1256 8.37319 22.5629 8.8103 22.5629 9.34976C22.5629 9.88921 22.1256 10.3263 21.5863 10.3263C20.94 10.3263 20.4143 10.8521 20.4143 11.4984C20.4143 12.0378 19.977 12.475 19.4377 12.475Z" fill="#4582EC"/>
<path d="M80.4332 22.6723H88.4158C88.9686 22.6723 89.4164 22.2243 89.4164 21.6717C89.4164 21.1192 88.9686 20.6711 88.4158 20.6711H80.4332C79.8805 20.6711 79.4326 21.1192 79.4326 21.6717C79.4326 22.2243 79.8807 22.6723 80.4332 22.6723Z" fill="#4582EC"/>
<path d="M80.4332 26.1882H84.3139C84.8666 26.1882 85.3145 25.7402 85.3145 25.1876C85.3145 24.6351 84.8666 24.187 84.3139 24.187H80.4332C79.8805 24.187 79.4326 24.6351 79.4326 25.1876C79.4326 25.7402 79.8807 26.1882 80.4332 26.1882Z" fill="#4582EC"/>
<path d="M80.4332 29.7043H84.3139C84.8666 29.7043 85.3145 29.2562 85.3145 28.7037C85.3145 28.1512 84.8666 27.7031 84.3139 27.7031H80.4332C79.8805 27.7031 79.4326 28.1512 79.4326 28.7037C79.4326 29.2562 79.8807 29.7043 80.4332 29.7043Z" fill="#4582EC"/>
<path d="M80.4332 36.7363H88.4158C88.9686 36.7363 89.4164 36.2882 89.4164 35.7357C89.4164 35.1832 88.9686 34.7351 88.4158 34.7351H80.4332C79.8805 34.7351 79.4326 35.1832 79.4326 35.7357C79.4326 36.2882 79.8807 36.7363 80.4332 36.7363Z" fill="#4582EC"/>
<path d="M80.4332 40.2526H84.3139C84.8666 40.2526 85.3145 39.8046 85.3145 39.252C85.3145 38.6995 84.8666 38.2515 84.3139 38.2515H80.4332C79.8805 38.2515 79.4326 38.6995 79.4326 39.252C79.4326 39.8044 79.8807 40.2526 80.4332 40.2526Z" fill="#4582EC"/>
<path d="M80.4332 43.7685H84.3139C84.8666 43.7685 85.3145 43.3205 85.3145 42.7679C85.3145 42.2154 84.8666 41.7673 84.3139 41.7673H80.4332C79.8805 41.7673 79.4326 42.2154 79.4326 42.7679C79.4326 43.3205 79.8807 43.7685 80.4332 43.7685Z" fill="#4582EC"/>
<path d="M88.4164 31.2192H84.5357C83.983 31.2192 83.5352 31.6673 83.5352 32.2198C83.5352 32.7724 83.983 33.2204 84.5357 33.2204H88.4164C88.9691 33.2204 89.417 32.7724 89.417 32.2198C89.417 31.6673 88.9689 31.2192 88.4164 31.2192Z" fill="#4582EC"/>
<path d="M80.4332 50.8007H88.4158C88.9686 50.8007 89.4164 50.3527 89.4164 49.8001C89.4164 49.2476 88.9686 48.7996 88.4158 48.7996H80.4332C79.8805 48.7996 79.4326 49.2476 79.4326 49.8001C79.4326 50.3527 79.8807 50.8007 80.4332 50.8007Z" fill="#4582EC"/>
<path d="M80.4332 54.3168H84.3139C84.8666 54.3168 85.3145 53.8688 85.3145 53.3163C85.3145 52.7637 84.8666 52.3157 84.3139 52.3157H80.4332C79.8805 52.3157 79.4326 52.7637 79.4326 53.3163C79.4326 53.8688 79.8807 54.3168 80.4332 54.3168Z" fill="#4582EC"/>
<path d="M80.4332 57.8327H84.3139C84.8666 57.8327 85.3145 57.3847 85.3145 56.8321C85.3145 56.2796 84.8666 55.8315 84.3139 55.8315H80.4332C79.8805 55.8315 79.4326 56.2796 79.4326 56.8321C79.4326 57.3849 79.8807 57.8327 80.4332 57.8327Z" fill="#4582EC"/>
<path d="M88.4164 45.2834H84.5357C83.983 45.2834 83.5352 45.7315 83.5352 46.284C83.5352 46.8366 83.983 47.2846 84.5357 47.2846H88.4164C88.9691 47.2846 89.417 46.8366 89.417 46.284C89.417 45.7315 88.9689 45.2834 88.4164 45.2834Z" fill="#4582EC"/>
<path d="M44.4205 35.4166C43.9031 35.4166 43.4352 35.3195 43.0169 35.1252C42.6058 34.931 42.2797 34.6512 42.0387 34.286C41.8481 33.9973 41.7306 33.6672 41.6863 33.2959C41.6665 33.1297 41.8035 32.9923 41.9708 32.9923H42.98C43.1383 32.9923 43.2651 33.1167 43.3027 33.2705C43.3531 33.4766 43.4457 33.6481 43.5805 33.7849C43.779 33.9791 44.0484 34.0763 44.3886 34.0763C44.736 34.0763 45.0089 33.9869 45.2074 33.8082C45.4059 33.6217 45.5051 33.3808 45.5051 33.0856C45.5051 32.8447 45.4378 32.6466 45.3031 32.4912C45.1684 32.3358 44.9983 32.2153 44.7927 32.1299C44.5942 32.0366 44.3178 31.9356 43.9633 31.8268C43.4813 31.6714 43.0878 31.5199 42.783 31.3723C42.4853 31.2169 42.2265 30.9877 42.0068 30.6846C41.7941 30.3738 41.6878 29.962 41.6878 29.4492C41.6878 28.9675 41.7976 28.5479 42.0174 28.1905C42.2372 27.8331 42.5455 27.5611 42.9425 27.3746C43.3395 27.1804 43.7932 27.0833 44.3036 27.0833C45.0692 27.0833 45.6895 27.2892 46.1644 27.701C46.5739 28.0442 46.8273 28.5051 46.9248 29.0837C46.9536 29.255 46.8145 29.4026 46.6408 29.4026H45.6096C45.4498 29.4026 45.324 29.2744 45.2728 29.123C45.2198 28.9661 45.1271 28.83 44.9947 28.715C44.7963 28.5285 44.5304 28.4352 44.1972 28.4352C43.9066 28.4352 43.6727 28.5168 43.4954 28.68C43.3253 28.8432 43.2402 29.0801 43.2402 29.3909C43.2402 29.6085 43.304 29.7911 43.4316 29.9387C43.5663 30.0786 43.7294 30.1951 43.9208 30.2884C44.1193 30.3738 44.3957 30.4749 44.7502 30.5914C45.2322 30.7468 45.6257 30.9022 45.9305 31.0576C46.2353 31.213 46.4976 31.4461 46.7174 31.7569C46.9371 32.0677 47.047 32.4756 47.047 32.9807C47.047 33.4158 46.9442 33.8198 46.7386 34.1928C46.533 34.5658 46.2318 34.8649 45.8348 35.0902C45.4378 35.3078 44.9664 35.4166 44.4205 35.4166Z" fill="white"/>
<path d="M52.9549 33.9946C52.9155 33.8698 52.7997 33.7849 52.6688 33.7849H50.1525C50.0216 33.7849 49.9058 33.8698 49.8664 33.9946L49.5097 35.1253C49.4703 35.2501 49.3545 35.335 49.2236 35.335H48.2943C48.0902 35.335 47.9457 35.1356 48.0093 34.9416L50.4817 27.3947C50.522 27.2715 50.6371 27.1881 50.7668 27.1881H52.0652C52.1949 27.1881 52.3099 27.2715 52.3503 27.3947L54.8227 34.9416C54.8862 35.1356 54.7417 35.335 54.5376 35.335H53.5977C53.4668 35.335 53.351 35.2501 53.3116 35.1253L52.9549 33.9946ZM52.0754 32.4795C52.2781 32.4795 52.4225 32.2826 52.3615 32.0892L51.6967 29.9828C51.6085 29.7032 51.2128 29.7032 51.1246 29.9828L50.4598 32.0892C50.3988 32.2826 50.5432 32.4795 50.7459 32.4795H52.0754Z" fill="white"/>
<path d="M60.5664 33.9946C60.527 33.8698 60.4113 33.7849 60.2803 33.7849H57.7641C57.6332 33.7849 57.5174 33.8698 57.478 33.9946L57.1212 35.1253C57.0818 35.2501 56.966 35.335 56.8351 35.335H55.9059C55.7018 35.335 55.5573 35.1356 55.6208 34.9416L58.0932 27.3947C58.1336 27.2715 58.2486 27.1881 58.3783 27.1881H59.6768C59.8065 27.1881 59.9215 27.2715 59.9618 27.3947L62.4343 34.9416C62.4978 35.1356 62.3533 35.335 62.1492 35.335H61.2093C61.0784 35.335 60.9626 35.2501 60.9232 35.1253L60.5664 33.9946ZM59.6869 32.4795C59.8897 32.4795 60.034 32.2826 59.973 32.0892L59.3083 29.9828C59.2201 29.7032 58.8244 29.7032 58.7361 29.9828L58.0714 32.0892C58.0104 32.2826 58.1548 32.4795 58.3575 32.4795H59.6869Z" fill="white"/>
<path d="M66.1234 35.4166C65.6059 35.4166 65.138 35.3195 64.7198 35.1252C64.3086 34.931 63.9825 34.6512 63.7415 34.286C63.5509 33.9973 63.4335 33.6672 63.3892 33.2959C63.3693 33.1297 63.5063 32.9923 63.6737 32.9923H64.6829C64.8411 32.9923 64.968 33.1167 65.0056 33.2705C65.056 33.4766 65.1486 33.6481 65.2834 33.7849C65.4819 33.9791 65.7512 34.0763 66.0915 34.0763C66.4389 34.0763 66.7118 33.9869 66.9103 33.8082C67.1088 33.6217 67.208 33.3808 67.208 33.0856C67.208 32.8447 67.1407 32.6466 67.006 32.4912C66.8713 32.3358 66.7011 32.2153 66.4956 32.1299C66.2971 32.0366 66.0206 31.9356 65.6662 31.8268C65.1841 31.6714 64.7907 31.5199 64.4859 31.3723C64.1881 31.2169 63.9294 30.9877 63.7096 30.6846C63.497 30.3738 63.3906 29.962 63.3906 29.4492C63.3906 28.9675 63.5005 28.5479 63.7203 28.1905C63.94 27.8331 64.2484 27.5611 64.6454 27.3746C65.0423 27.1804 65.496 27.0833 66.0064 27.0833C66.772 27.0833 67.3923 27.2892 67.8673 27.701C68.2767 28.0442 68.5302 28.5051 68.6276 29.0837C68.6565 29.255 68.5174 29.4026 68.3437 29.4026H67.3124C67.1526 29.4026 67.0268 29.2744 66.9757 29.123C66.9227 28.9661 66.83 28.83 66.6976 28.715C66.4991 28.5285 66.2333 28.4352 65.9001 28.4352C65.6095 28.4352 65.3755 28.5168 65.1983 28.68C65.0282 28.8432 64.9431 29.0801 64.9431 29.3909C64.9431 29.6085 65.0069 29.7911 65.1345 29.9387C65.2692 30.0786 65.4322 30.1951 65.6236 30.2884C65.8221 30.3738 66.0986 30.4749 66.453 30.5914C66.9351 30.7468 67.3285 30.9022 67.6333 31.0576C67.9382 31.213 68.2005 31.4461 68.4202 31.7569C68.64 32.0677 68.7498 32.4756 68.7498 32.9807C68.7498 33.4158 68.6471 33.8198 68.4415 34.1928C68.2359 34.5658 67.9346 34.8649 67.5376 35.0902C67.1407 35.3078 66.6692 35.4166 66.1234 35.4166Z" fill="white"/>
<path d="M45.1544 43.6802H42.0816C41.5708 43.6802 41.1146 44.0536 41.0661 44.562C41.0105 45.1454 41.4677 45.6362 42.0396 45.6362H45.1544C45.6947 45.6362 46.1325 45.1983 46.1325 44.6581C46.1325 44.1181 45.6947 43.6802 45.1544 43.6802Z" fill="#4582EC"/>
<path d="M56.957 43.6802H49.6495C49.1093 43.6802 48.6714 44.1181 48.6714 44.6583C48.6714 45.1985 49.1093 45.6364 49.6495 45.6364H56.9989C57.5708 45.6364 58.028 45.1456 57.9724 44.5622C57.9239 44.0536 57.4677 43.6802 56.957 43.6802Z" fill="#4582EC"/>
<path d="M52.1865 47.7751H42.0816C41.5708 47.7751 41.1146 48.1486 41.0661 48.657C41.0105 49.2404 41.4677 49.7312 42.0396 49.7312H52.1865C52.7267 49.7312 53.1646 49.2933 53.1646 48.7531C53.1646 48.213 52.7267 47.7751 52.1865 47.7751Z" fill="#4582EC"/>
<path d="M62.8173 47.7751H56.6817C56.1415 47.7751 55.7036 48.213 55.7036 48.7533C55.7036 49.2935 56.1415 49.7314 56.6817 49.7314H62.8593C63.4314 49.7314 63.8884 49.2404 63.8328 48.6572C63.7843 48.1486 63.3283 47.7751 62.8173 47.7751Z" fill="#4582EC"/>
<path d="M49.2564 51.8701H42.0816C41.5708 51.8701 41.1146 52.2436 41.0661 52.752C41.0105 53.3354 41.4677 53.8262 42.0396 53.8262H49.2566C49.7968 53.8262 50.2347 53.3883 50.2347 52.8481C50.2345 52.308 49.7966 51.8701 49.2564 51.8701Z" fill="#4582EC"/>
<path d="M56.9575 51.8701H53.7521C53.2118 51.8701 52.7739 52.308 52.7739 52.8483C52.7739 53.3885 53.2118 53.8264 53.7521 53.8264H56.9995C57.5714 53.8264 58.0286 53.3356 57.973 52.7522C57.9245 52.2436 57.4683 51.8701 56.9575 51.8701Z" fill="#4582EC"/>
<path d="M62.8174 55.9653H50.8219C50.2816 55.9653 49.8438 56.4032 49.8438 56.9435C49.8438 57.4837 50.2816 57.9216 50.8219 57.9216H62.8594C63.4312 57.9216 63.8885 57.4308 63.8328 56.8474C63.7842 56.3388 63.3281 55.9653 62.8174 55.9653Z" fill="#4582EC"/>
<path d="M46.3265 55.9653H42.0816C41.5708 55.9653 41.1146 56.3388 41.0661 56.8472C41.0105 57.4306 41.4677 57.9214 42.0396 57.9214H46.3265C46.8667 57.9214 47.3046 57.4835 47.3046 56.9433C47.3044 56.4032 46.8665 55.9653 46.3265 55.9653Z" fill="#4582EC"/>
<path d="M90.2218 74.0643L87.5751 73.3108C87.2952 72.3463 86.9102 71.4174 86.4259 70.5375L87.7651 68.1317C88.1118 67.5079 88.0013 66.7198 87.4968 66.2155L85.3241 64.0428C84.8198 63.5383 84.0317 63.428 83.4067 63.7748L81.0016 65.1137C80.1216 64.6293 79.1927 64.2444 78.2286 63.9643L77.4749 61.3176C77.2792 60.6307 76.6436 60.151 75.9294 60.151H75.3698V12.8887C75.3698 10.736 73.6185 8.98462 71.4655 8.98462H28.5269C26.3741 8.98462 24.6226 10.736 24.6226 12.8887V18.5688H17.4144C15.2616 18.5688 13.5103 20.3202 13.5103 22.4729V28.9465V28.9475C13.5103 29.487 13.9476 29.9241 14.4868 29.9241H24.6228V74.218C24.6228 76.3707 26.3741 78.1221 28.5271 78.1221H52.9993C53.5386 78.1221 53.9759 77.685 53.9759 77.1456C53.9759 76.6061 53.5386 76.169 52.9993 76.169H28.5269C27.4511 76.169 26.5757 75.2938 26.5757 74.218V20.3397H73.4169V60.151H72.8573C72.1431 60.151 71.5077 60.6307 71.3118 61.3178L70.5583 63.9643C69.5942 64.2444 68.6653 64.6291 67.7853 65.1137L65.3792 63.7743C64.7554 63.428 63.9671 63.5383 63.463 64.0428L61.2905 66.2153C60.7858 66.7198 60.6755 67.5077 61.0224 68.1323L62.3612 70.5374C61.8769 71.4174 61.4919 72.3463 61.212 73.3106L58.5653 74.0641C57.8786 74.2598 57.3989 74.8954 57.3989 75.6096V78.6817C57.3989 79.3957 57.8786 80.0313 58.5657 80.227L61.2122 80.9805C61.4921 81.945 61.877 82.8737 62.3614 83.7538L61.4288 85.4291C61.1099 85.6407 60.7409 85.7534 60.3536 85.7534H17.4144C16.3386 85.7534 15.4634 84.8782 15.4634 83.8022V34.3272C15.4634 33.7877 15.0261 33.3506 14.4868 33.3506C13.9476 33.3506 13.5103 33.7877 13.5103 34.3272V83.8024C13.5103 85.9551 15.2616 87.7067 17.4144 87.7067H60.3534C60.5685 87.7067 60.7808 87.6893 60.989 87.6553C61.0645 87.8084 61.1651 87.9512 61.2903 88.0764L63.463 90.2491C63.9677 90.7537 64.7554 90.8639 65.3802 90.517L67.7853 89.1782C68.6651 89.6623 69.594 90.0473 70.5583 90.3274L71.312 92.9741C71.5077 93.661 72.1433 94.1407 72.8575 94.1407H75.9296C76.6438 94.1407 77.2792 93.661 77.4751 92.9739L78.2286 90.3274C79.1931 90.0473 80.1218 89.6625 81.0016 89.1782L83.4077 90.5176C84.0313 90.8635 84.8194 90.7534 85.3239 90.2491L87.4968 88.0764C88.0009 87.5719 88.1112 86.784 87.7645 86.1594L86.4257 83.7543C86.9099 82.8745 87.295 81.9454 87.5749 80.9811L90.2218 80.2276C90.9085 80.0319 91.3882 79.3963 91.3882 78.6823V75.6102C91.3882 74.8955 90.9085 74.26 90.2218 74.0643ZM24.6226 27.9709H15.4634V22.4731C15.4634 21.3973 16.3386 20.5221 17.4144 20.5221H24.6226V27.9709ZM26.5757 18.3866V12.8887C26.5757 11.8129 27.4509 10.9377 28.5269 10.9377H71.4659C72.5417 10.9377 73.4171 11.8129 73.4171 12.8887V18.3864L26.5757 18.3866ZM89.4351 78.4206L86.5077 79.2543C86.1702 79.3504 85.9102 79.6202 85.8267 79.9608C85.5429 81.1174 85.0858 82.2204 84.4681 83.2389C84.286 83.5389 84.2792 83.9137 84.4499 84.2202L85.931 86.8803L84.1282 88.6831L81.4681 87.202C81.1614 87.0315 80.7866 87.0383 80.4866 87.2204C79.4681 87.8381 78.3651 88.2952 77.2085 88.5788C76.8677 88.6625 76.5979 88.9225 76.5018 89.2598L75.6683 92.1873H73.1186L72.2851 89.26C72.189 88.9225 71.919 88.6625 71.5784 88.5789C70.422 88.2954 69.319 87.8383 68.3003 87.2206C68.0001 87.0385 67.6257 87.0319 67.3188 87.2022L64.6587 88.6831L62.8561 86.8805L64.3372 84.2204C64.5079 83.9139 64.5009 83.5391 64.319 83.2391C63.7011 82.2204 63.244 81.1174 62.9604 79.961C62.8769 79.6204 62.6169 79.3506 62.2794 79.2545L59.352 78.4207V75.8713L62.2794 75.0375C62.6169 74.9414 62.8769 74.6717 62.9604 74.3311C63.244 73.1747 63.7011 72.0717 64.319 71.053C64.5011 70.753 64.5079 70.3782 64.3372 70.0717L62.8563 67.4116L64.6591 65.609L67.319 67.0899C67.6255 67.2606 68.0003 67.2538 68.3005 67.0717C69.3194 66.4538 70.4224 65.9965 71.5786 65.7131C71.9194 65.6293 72.1892 65.3694 72.2852 65.0321L73.1188 62.1047H75.6685L76.502 65.0321C76.5981 65.3696 76.8679 65.6295 77.2087 65.7131C78.3649 65.9967 79.4679 66.4538 80.4868 67.0717C80.787 67.2538 81.1618 67.2606 81.4683 67.0899L84.1282 65.609L85.931 67.4116L84.4501 70.0717C84.2794 70.3782 84.2864 70.753 84.4683 71.053C85.086 72.0715 85.5431 73.1745 85.8269 74.3311C85.9104 74.6717 86.1704 74.9414 86.5079 75.0375L89.4352 75.8713V78.4206H89.4351Z" fill="#4582EC"/>
<path d="M74.3937 71.1309C71.0771 71.1309 68.3789 73.8291 68.3789 77.1457C68.3789 80.4623 71.0771 83.1606 74.3937 83.1606C77.7103 83.1606 80.4086 80.4623 80.4086 77.1457C80.4086 73.8291 77.7103 71.1309 74.3937 71.1309ZM73.4172 73.2076V74.2182C73.4172 75.2939 72.542 76.1691 71.466 76.1691H70.4557C70.817 74.7141 71.9621 73.5689 73.4172 73.2076ZM74.3937 81.2074C72.4914 81.2074 70.8947 79.8908 70.4557 78.1223H71.466C73.6187 78.1223 75.3703 76.3709 75.3703 74.2182V73.2076C77.1389 73.6467 78.4555 75.2432 78.4555 77.1457C78.4555 79.3854 76.6334 81.2074 74.3937 81.2074Z" fill="#4582EC"/>
<path d="M21.9194 25.2371C22.4587 25.2371 22.896 24.8 22.896 24.2605V24.2322C22.896 23.6927 22.4587 23.2556 21.9194 23.2556C21.3802 23.2556 20.9429 23.6927 20.9429 24.2322V24.2605C20.9429 24.8 21.3802 25.2371 21.9194 25.2371Z" fill="#4582EC"/>
<path d="M33.0322 13.6711C32.493 13.6711 32.0557 14.1083 32.0557 14.6477V14.676C32.0557 15.2155 32.493 15.6526 33.0322 15.6526C33.5715 15.6526 34.0088 15.2155 34.0088 14.676V14.6477C34.0088 14.1083 33.5715 13.6711 33.0322 13.6711Z" fill="#4582EC"/>
<path d="M36.8042 13.6711C36.2649 13.6711 35.8276 14.1083 35.8276 14.6477V14.676C35.8276 15.2155 36.2649 15.6526 36.8042 15.6526C37.3435 15.6526 37.7808 15.2155 37.7808 14.676V14.6477C37.7808 14.1083 37.3435 13.6711 36.8042 13.6711Z" fill="#4582EC"/>
<path d="M40.5757 13.6711C40.0364 13.6711 39.5991 14.1083 39.5991 14.6477V14.676C39.5991 15.2155 40.0364 15.6526 40.5757 15.6526C41.1149 15.6526 41.5522 15.2155 41.5522 14.676V14.6477C41.5522 14.1083 41.1149 13.6711 40.5757 13.6711Z" fill="#4582EC"/>
<path d="M31.9023 44.644C31.9023 44.1046 31.4649 43.6675 30.9255 43.6675C30.386 43.6675 29.9487 44.1048 29.9487 44.644V44.6724C29.9487 45.2118 30.386 45.6491 30.9255 45.6491C31.4649 45.6491 31.9023 45.2118 31.9023 44.6724V44.644Z" fill="#4582EC"/>
<path d="M30.926 55.9521C30.3865 55.9521 29.9492 56.3895 29.9492 56.9289V56.9572C29.9492 57.4967 30.3865 57.9338 30.926 57.9338C31.4654 57.9338 31.9027 57.4965 31.9027 56.9572V56.9289C31.9025 56.3895 31.4652 55.9521 30.926 55.9521Z" fill="#4582EC"/>
<path d="M83.5344 15.2326C83.2844 15.2326 83.0346 15.1373 82.8437 14.9465L80.6961 12.799C80.5129 12.6158 80.4102 12.3676 80.4102 12.1086C80.4102 11.8496 80.5131 11.6012 80.6961 11.4182L82.8437 9.27051C83.027 9.0873 83.2752 8.98438 83.5344 8.98438C83.7934 8.98438 84.0418 9.0873 84.225 9.27051L86.3725 11.4182C86.7539 11.7994 86.7539 12.4178 86.3725 12.799L84.225 14.9465C84.0342 15.1373 83.7844 15.2326 83.5344 15.2326ZM82.7678 12.1086L83.5342 12.875L84.3006 12.1086L83.5342 11.342L82.7678 12.1086Z" fill="#4582EC"/>
<path d="M91.5678 64.2561C91.0285 64.2561 90.5912 63.819 90.5912 63.2795C90.5912 62.6315 90.0641 62.1042 89.416 62.1042C88.8768 62.1042 88.4395 61.667 88.4395 61.1276C88.4395 60.5881 88.8768 60.151 89.416 60.151C90.0641 60.151 90.5912 59.6239 90.5912 58.9758C90.5912 58.4364 91.0285 57.9993 91.5678 57.9993C92.107 57.9993 92.5443 58.4364 92.5443 58.9758C92.5443 59.6237 93.0715 60.151 93.7195 60.151C94.2588 60.151 94.6961 60.5881 94.6961 61.1276C94.6961 61.667 94.2588 62.1042 93.7195 62.1042C93.0715 62.1042 92.5443 62.6313 92.5443 63.2795C92.5443 63.819 92.107 64.2561 91.5678 64.2561Z" fill="#4582EC"/>
<path d="M8.43154 33.4829C7.89228 33.4829 7.45498 33.0458 7.45498 32.5063C7.45498 31.8585 6.92783 31.3312 6.27978 31.3312C5.74053 31.3312 5.30322 30.894 5.30322 30.3546C5.30322 29.8151 5.74053 29.378 6.27978 29.378C6.92783 29.378 7.45498 28.8509 7.45498 28.2026C7.45498 27.6632 7.89228 27.2261 8.43154 27.2261C8.9708 27.2261 9.4081 27.6632 9.4081 28.2026C9.4081 28.8507 9.93525 29.378 10.5833 29.378C11.1226 29.378 11.5599 29.8151 11.5599 30.3546C11.5599 30.894 11.1226 31.3312 10.5833 31.3312C9.93525 31.3312 9.4081 31.8583 9.4081 32.5063C9.4081 33.0456 8.97099 33.4829 8.43154 33.4829Z" fill="#4582EC"/>
<defs>
<linearGradient id="paint0_linear_2:1264" x1="-1.29829" y1="31.5293" x2="106.567" y2="63.2543" gradientUnits="userSpaceOnUse">
<stop stop-color="#4582EC" stop-opacity="0"/>
<stop offset="1" stop-color="#EDF3FE"/>
</linearGradient>
</defs>
</svg>
