<svg width="100" height="100" viewBox="0 0 100 100" fill="none" xmlns="http://www.w3.org/2000/svg">
<g opacity="0.5" clip-path="url(#clip0_2:1372)">
<path d="M74.7277 33.9873C74.6902 33.9872 74.6525 33.987 74.615 33.987C68.3584 33.9772 62.4305 31.283 58.3182 26.5678C52.192 19.5436 43.1619 15.1182 33.0992 15.1629C14.8352 15.244 -0.233395 30.5889 0.00273802 48.8516C0.237699 67.0129 15.033 81.6631 33.2502 81.6631C38.3953 81.6631 43.267 80.4938 47.6148 78.4069C51.3637 76.6075 55.8307 77.0819 59.132 79.6102C63.4022 82.8807 68.7395 84.8276 74.5316 84.8373C88.4734 84.8606 99.9186 73.5053 99.9996 59.5637C100.081 45.4914 88.7805 34.0702 74.7277 33.9873Z" fill="url(#paint0_linear_2:1372)"/>
<path opacity="0.1" d="M89.0625 18.5374V74.0549C89.0625 75.6721 87.75 76.9846 86.1328 76.9846H13.8672C12.25 76.9846 10.9375 75.6721 10.9375 74.0549V18.5374C10.9375 16.9202 12.25 15.6077 13.8672 15.6077H86.1328C87.75 15.6077 89.0625 16.9202 89.0625 18.5374Z" fill="#4582EC"/>
<path d="M89.0625 22.6389V78.1565C89.0625 79.7737 87.75 81.0862 86.1328 81.0862H13.8672C12.25 81.0862 10.9375 79.7737 10.9375 78.1565V22.6389C10.9375 21.0217 12.25 19.7092 13.8672 19.7092H86.1328C87.75 19.7092 89.0625 21.0217 89.0625 22.6389Z" fill="white"/>
<path d="M18.0537 29.1178H81.9457V50.2434H18.0537V29.1178Z" fill="#8FB4F4"/>
<path d="M89.0625 29.1179V22.6392C89.0625 21.0212 87.7508 19.7095 86.1328 19.7095H13.8672C12.2492 19.7095 10.9375 21.0212 10.9375 22.6392V29.1179H89.0625Z" fill="white"/>
<path d="M34.27 54.7493H18.0735C17.6718 54.7493 17.3462 54.4237 17.3462 54.0219V40.9789C17.3462 40.5772 17.6718 40.2516 18.0735 40.2516H34.27C34.6718 40.2516 34.9974 40.5772 34.9974 40.9789V54.0219C34.9974 54.4235 34.6718 54.7493 34.27 54.7493Z" fill="white"/>
<path d="M32.6746 61.8388H19.6695C19.117 61.8388 18.6689 61.3908 18.6689 60.8382C18.6689 60.2857 19.1168 59.8376 19.6695 59.8376H32.6746C33.2271 59.8376 33.6752 60.2857 33.6752 60.8382C33.6752 61.3908 33.2271 61.8388 32.6746 61.8388Z" fill="#4582EC"/>
<path d="M58.0981 54.7493H41.9017C41.4999 54.7493 41.1743 54.4237 41.1743 54.0219V40.9789C41.1743 40.5772 41.4999 40.2516 41.9017 40.2516H58.0981C58.4999 40.2516 58.8255 40.5772 58.8255 40.9789V54.0219C58.8255 54.4235 58.4999 54.7493 58.0981 54.7493Z" fill="white"/>
<path d="M56.5028 61.8388H43.4977C42.9451 61.8388 42.4971 61.3908 42.4971 60.8382C42.4971 60.2857 42.9449 59.8376 43.4977 59.8376H56.5028C57.0553 59.8376 57.5033 60.2857 57.5033 60.8382C57.5033 61.3908 57.0553 61.8388 56.5028 61.8388Z" fill="#4582EC"/>
<path d="M81.9263 54.7493H65.7298C65.328 54.7493 65.0024 54.4237 65.0024 54.0219V40.9789C65.0024 40.5772 65.328 40.2516 65.7298 40.2516H81.9263C82.328 40.2516 82.6536 40.5772 82.6536 40.9789V54.0219C82.6536 54.4235 82.328 54.7493 81.9263 54.7493Z" fill="white"/>
<path d="M80.3309 61.8389H67.3258C66.7732 61.8389 66.3252 61.3909 66.3252 60.8384C66.3252 60.2858 66.773 59.8378 67.3258 59.8378H80.3309C80.8834 59.8378 81.3314 60.2858 81.3314 60.8384C81.3314 61.3909 80.8834 61.8389 80.3309 61.8389Z" fill="#4582EC"/>
<path d="M81.9265 39.275H65.73C64.7903 39.275 64.0259 40.0395 64.0259 40.9791V54.0219C64.0259 54.9615 64.7903 55.726 65.73 55.726H81.9265C82.8661 55.726 83.6306 54.9615 83.6306 54.0219V40.9791C83.6304 40.0395 82.8659 39.275 81.9265 39.275ZM81.6772 46.5238H72.0052V41.2281H81.6772V46.5238ZM65.979 41.2281H70.052V53.7728H65.979V41.2281ZM72.0054 53.7728V48.4772H81.6774V53.7728H72.0054Z" fill="#4582EC"/>
<path d="M76.8152 63.549H70.8414C70.2889 63.549 69.8408 63.9968 69.8408 64.5495C69.8408 65.1021 70.2887 65.5501 70.8414 65.5501H76.8152C77.3678 65.5501 77.8158 65.1021 77.8158 64.5495C77.8156 63.9968 77.3678 63.549 76.8152 63.549Z" fill="#4582EC"/>
<path d="M30.6641 74.5371H21.6797C21.3561 74.5371 21.0938 74.2748 21.0938 73.9512V70.6959C21.0938 70.3723 21.3561 70.11 21.6797 70.11H30.6641C30.9877 70.11 31.25 70.3723 31.25 70.6959V73.9512C31.25 74.2748 30.9877 74.5371 30.6641 74.5371Z" fill="#8FB4F4"/>
<path d="M54.6987 74.5371H45.7144C45.3907 74.5371 45.1284 74.2748 45.1284 73.9512V70.6959C45.1284 70.3723 45.3907 70.11 45.7144 70.11H54.6987C55.0224 70.11 55.2847 70.3723 55.2847 70.6959V73.9512C55.2847 74.2748 55.0224 74.5371 54.6987 74.5371Z" fill="#8FB4F4"/>
<path d="M78.7329 74.5371H69.7485C69.4249 74.5371 69.1626 74.2748 69.1626 73.9512V70.6959C69.1626 70.3723 69.4249 70.11 69.7485 70.11H78.7329C79.0565 70.11 79.3188 70.3723 79.3188 70.6959V73.9512C79.3188 74.2748 79.0565 74.5371 78.7329 74.5371Z" fill="#8FB4F4"/>
<path d="M50.2627 75.1262L56.374 91.5721C56.6313 92.2643 57.5811 92.3381 57.942 91.694L61.4156 85.4973C61.4936 85.3581 61.6086 85.2432 61.7479 85.1651L67.9445 81.6914C68.5887 81.3303 68.5149 80.3807 67.8227 80.1235L51.3768 74.0121C50.6816 73.7538 50.0045 74.4311 50.2627 75.1262Z" fill="white"/>
<path d="M17.3984 24.3993V24.4278C17.3984 24.9673 17.8355 25.4044 18.375 25.4044C18.9145 25.4044 19.3516 24.9673 19.3516 24.4278V24.3993C19.3516 23.8598 18.9145 23.4227 18.375 23.4227C17.8355 23.4227 17.3984 23.8598 17.3984 24.3993Z" fill="#4582EC"/>
<path d="M21.1729 24.3993V24.4278C21.1729 24.9673 21.61 25.4044 22.1494 25.4044C22.6889 25.4044 23.126 24.9673 23.126 24.4278V24.3993C23.126 23.8598 22.6889 23.4227 22.1494 23.4227C21.61 23.4227 21.1729 23.8598 21.1729 24.3993Z" fill="#4582EC"/>
<path d="M24.9478 24.3993V24.4278C24.9478 24.9673 25.3849 25.4044 25.9243 25.4044C26.4638 25.4044 26.9009 24.9673 26.9009 24.4278V24.3993C26.9009 23.8598 26.4638 23.4227 25.9243 23.4227C25.3849 23.4227 24.9478 23.8598 24.9478 24.3993Z" fill="#4582EC"/>
<path d="M86.1328 18.7327H13.8672C11.7133 18.7327 9.96094 20.485 9.96094 22.6389V29.1176C9.96094 29.6571 10.398 30.0942 10.9375 30.0942H82.3568C82.8963 30.0942 83.3334 29.6571 83.3334 29.1176C83.3334 28.5782 82.8963 28.1411 82.3568 28.1411H11.9141V22.6389C11.9141 21.562 12.7902 20.6858 13.8672 20.6858H86.1328C87.2098 20.6858 88.0859 21.562 88.0859 22.6389V78.1561C88.0859 79.233 87.2098 80.1092 86.1328 80.1092H69.167C68.9635 79.7 68.6137 79.3756 68.1627 79.2082L51.7168 73.0969C51.0328 72.8422 50.2875 73.0053 49.7717 73.5213C49.2557 74.0373 49.093 74.7827 49.3473 75.4664L51.0727 80.1092H13.8672C12.7902 80.1092 11.9141 79.233 11.9141 78.1561V34.4967C11.9141 33.9573 11.477 33.5202 10.9375 33.5202C10.398 33.5202 9.96094 33.9573 9.96094 34.4967V78.1561C9.96094 80.31 11.7133 82.0623 13.8672 82.0623H51.7984L55.4588 91.9125C55.7119 92.5936 56.3191 93.0518 57.0438 93.1079C57.0934 93.1118 57.1428 93.1135 57.1918 93.1135C57.8586 93.1135 58.4633 92.7618 58.7939 92.1715L62.2525 86.002L68.4223 82.5434C68.6447 82.4188 68.8309 82.2536 68.9795 82.0623H86.1328C88.2867 82.0623 90.0391 80.31 90.0391 78.1561V22.6389C90.0391 20.485 88.2867 18.7327 86.1328 18.7327ZM61.2699 84.3135C60.9736 84.4797 60.7295 84.7241 60.5639 85.0196L57.2066 91.0088L51.2617 75.0112L67.2594 80.9561L61.2699 84.3135Z" fill="#4582EC"/>
<path d="M47.8659 91.5324C47.3265 91.5324 46.8894 91.0953 46.8894 90.5559C46.8894 89.908 46.3624 89.3809 45.7144 89.3809C45.1749 89.3809 44.7378 88.9438 44.7378 88.4043C44.7378 87.8649 45.1749 87.4278 45.7144 87.4278C46.3622 87.4278 46.8894 86.9006 46.8894 86.2526C46.8894 85.7131 47.3265 85.276 47.8659 85.276C48.4054 85.276 48.8425 85.7131 48.8425 86.2526C48.8425 86.9004 49.3694 87.4278 50.0175 87.4278C50.5569 87.4278 50.994 87.8649 50.994 88.4043C50.994 88.9438 50.5569 89.3809 50.0175 89.3809C49.3696 89.3809 48.8425 89.9078 48.8425 90.5559C48.8425 91.0953 48.4054 91.5324 47.8659 91.5324Z" fill="#8FB4F4"/>
<path d="M34.2702 39.275H18.0737C17.1341 39.275 16.3696 40.0395 16.3696 40.9791V54.0219C16.3696 54.9615 17.1341 55.726 18.0737 55.726H34.2702C35.2099 55.726 35.9743 54.9615 35.9743 54.0219V40.9791C35.9741 40.0395 35.2097 39.275 34.2702 39.275ZM34.021 41.2281V44.474H18.3228V41.2281H34.021ZM18.3228 46.4272H29.003V53.7727H18.3228V46.4272ZM30.9562 53.7728V46.4274H34.021V53.7728H30.9562Z" fill="#4582EC"/>
<path d="M29.159 63.5487H23.1852C22.6326 63.5487 22.1846 63.9966 22.1846 64.5493C22.1846 65.1018 22.6324 65.5499 23.1852 65.5499H29.159C29.7115 65.5499 30.1596 65.1018 30.1596 64.5493C30.1594 63.9966 29.7115 63.5487 29.159 63.5487Z" fill="#4582EC"/>
<path d="M47.9663 12.696L45.8188 10.5485C45.4378 10.1671 44.819 10.1671 44.438 10.5485L42.2905 12.696C42.1073 12.8792 42.0044 13.1274 42.0044 13.3864C42.0044 13.6454 42.1073 13.8939 42.2905 14.0771L44.438 16.2243C44.6288 16.4149 44.8786 16.5103 45.1284 16.5103C45.3782 16.5103 45.6282 16.4149 45.8188 16.2243L47.9663 14.0771C48.1495 13.8939 48.2524 13.6454 48.2524 13.3864C48.2524 13.1274 48.1495 12.8792 47.9663 12.696ZM45.1282 14.1528L44.3618 13.3864L45.1282 12.62L45.8946 13.3864L45.1282 14.1528Z" fill="#8FB4F4"/>
<path d="M58.0984 39.275H41.9019C40.9622 39.275 40.1978 40.0395 40.1978 40.9791V54.0219C40.1978 54.9615 40.9622 55.726 41.9019 55.726H58.0984C59.038 55.726 59.8025 54.9615 59.8025 54.0219V40.9791C59.8023 40.0395 59.0378 39.275 58.0984 39.275ZM57.8491 46.8178H52.7345V41.2281H57.8493V46.8178H57.8491ZM50.7814 41.2281V46.8178H42.1509V41.2281H50.7814ZM42.1509 48.7709H46.4845V53.7727H42.1509V48.7709ZM48.4376 53.7728V48.7711H57.8493V53.7728H48.4376Z" fill="#4582EC"/>
<path d="M52.9871 63.5487H47.0133C46.4607 63.5487 46.0127 63.9966 46.0127 64.5493C46.0127 65.1018 46.4605 65.5499 47.0133 65.5499H52.9871C53.5397 65.5499 53.9877 65.1018 53.9877 64.5493C53.9875 63.9966 53.5397 63.5487 52.9871 63.5487Z" fill="#4582EC"/>
<path d="M35.8261 9.0378C35.1784 9.0378 34.6513 8.51084 34.6513 7.86279C34.6513 7.32334 34.2142 6.88623 33.6747 6.88623C33.1353 6.88623 32.6981 7.32334 32.6981 7.86279C32.6981 8.51065 32.171 9.0378 31.5229 9.0378C30.9835 9.0378 30.5464 9.47491 30.5464 10.0144C30.5464 10.5538 30.9835 10.9909 31.5229 10.9909C32.1708 10.9909 32.6981 11.5179 32.6981 12.1659C32.6981 12.7054 33.1353 13.1425 33.6747 13.1425C34.2142 13.1425 34.6513 12.7054 34.6513 12.1659C34.6513 11.5181 35.1782 10.9909 35.8261 10.9909C36.3655 10.9909 36.8026 10.5538 36.8026 10.0144C36.8026 9.47491 36.3655 9.0378 35.8261 9.0378Z" fill="#8FB4F4"/>
<path d="M71.8247 12.696L69.6772 10.5485C69.2962 10.1671 68.6774 10.1671 68.2964 10.5485L66.1489 12.696C65.9657 12.8792 65.8628 13.1274 65.8628 13.3864C65.8628 13.6454 65.9657 13.8939 66.1489 14.0771L68.2964 16.2243C68.4872 16.4149 68.737 16.5103 68.9868 16.5103C69.2366 16.5103 69.4866 16.4149 69.6772 16.2243L71.8247 14.0771C72.0079 13.8939 72.1108 13.6454 72.1108 13.3864C72.1108 13.1274 72.0081 12.8792 71.8247 12.696ZM68.9868 14.1528L68.2204 13.3864L68.9868 12.62L69.7532 13.3864L68.9868 14.1528Z" fill="#8FB4F4"/>
</g>
<defs>
<linearGradient id="paint0_linear_2:1372" x1="3.37574" y1="32.8311" x2="104.204" y2="70.3825" gradientUnits="userSpaceOnUse">
<stop stop-color="#4582EC" stop-opacity="0"/>
<stop offset="1" stop-color="#EDF3FE"/>
</linearGradient>
<clipPath id="clip0_2:1372">
<rect width="100" height="100" fill="white"/>
</clipPath>
</defs>
</svg>
