<svg width="100" height="100" viewBox="0 0 100 100" fill="none" xmlns="http://www.w3.org/2000/svg">
<g opacity="0.5" clip-path="url(#clip0_2:1445)">
<path d="M60.5622 17.4517C56.3767 7.1648 46.2515 -0.0723065 34.4438 0.000545061C19.3804 0.0933185 6.99522 12.2435 6.62979 27.3025C6.44951 34.7322 9.16455 41.5254 13.7263 46.6351C17.3628 50.7086 19.1878 56.0736 19.0038 61.5312C18.9794 62.2566 18.9757 62.9873 18.9937 63.7226C19.4749 83.5273 36.3935 100.012 56.204 100C76.7378 99.9877 93.3798 83.3379 93.3798 62.8013C93.3798 47.7478 84.4376 34.7841 71.5757 28.9296C66.5628 26.6478 62.638 22.5533 60.5622 17.4517Z" fill="url(#paint0_linear_2:1445)"/>
<path opacity="0.1" d="M91.6894 58.5831H77.6668C78.0789 57.4825 78.43 56.3522 78.7138 55.1954L86.274 53.0422C86.9173 52.859 87.3609 52.2713 87.3609 51.6024V44.2961C87.3609 43.6272 86.9171 43.0395 86.274 42.8563L78.7138 40.7032C77.9734 37.6854 76.783 34.8446 75.2146 32.2577L79.0384 25.3883C79.3638 24.804 79.2619 24.0747 78.789 23.6016L73.6228 18.4354C73.1498 17.9624 72.4205 17.8606 71.8361 18.186L64.9668 22.0098C62.3798 20.4415 59.539 19.251 56.5212 18.5106L54.3679 10.9504C54.1847 10.3071 53.597 9.86353 52.9281 9.86353H45.622C44.9531 9.86353 44.3654 10.3073 44.1822 10.9504L42.0289 18.5106C39.2328 19.1965 36.5914 20.2733 34.1601 21.6749V11.9516C34.1601 10.8704 33.2835 9.9938 32.2023 9.9938H8.31108C7.22983 9.9938 6.35327 10.8704 6.35327 11.9516V30.9512C6.35327 32.0325 7.22983 32.909 8.31108 32.909H22.957C21.5765 35.3196 20.515 37.9358 19.8361 40.7032L12.2759 42.8563C11.6326 43.0395 11.189 43.6272 11.189 44.2961V51.6024C11.189 52.2713 11.6328 52.859 12.2759 53.0422L19.8361 55.1954C20.5765 58.2131 21.7669 61.054 23.3353 63.6409L19.5115 70.5102C19.1861 71.0946 19.288 71.8239 19.7609 72.2969L24.9271 77.4631C25.4001 77.9362 26.1294 78.0379 26.7138 77.7125L33.5832 73.8887C36.1701 75.4571 39.0109 76.6475 42.0287 77.3879L44.182 84.9481C44.3652 85.5914 44.9529 86.035 45.6218 86.035H52.9279C53.5968 86.035 54.1845 85.5912 54.3677 84.9481L56.521 77.3879C57.7035 77.0979 58.8576 76.7364 59.981 76.3123V79.5403C59.981 80.6215 60.8576 81.4981 61.9388 81.4981H91.6892C92.7705 81.4981 93.647 80.6215 93.647 79.5403V60.5407C93.6472 59.4596 92.7707 58.5831 91.6894 58.5831Z" fill="#0E62F3"/>
<path d="M87.3616 55.7039V48.3977C87.3616 47.7288 86.9178 47.1411 86.2747 46.9579L78.7143 44.8047C77.9739 41.787 76.7834 38.9461 75.2151 36.3592L79.0389 29.4899C79.3643 28.9055 79.2623 28.1762 78.7895 27.7032L73.6233 22.537C73.1502 22.0639 72.4209 21.9622 71.8366 22.2875L64.9672 26.1114C62.3803 24.543 59.5395 23.3526 56.5217 22.6122L54.3684 15.052C54.1852 14.4086 53.5975 13.9651 52.9286 13.9651H45.6225C44.9536 13.9651 44.3659 14.4088 44.1827 15.052L42.0293 22.6122C39.0116 23.3526 36.1708 24.543 33.5838 26.1114L26.7145 22.2875C26.1301 21.9622 25.4008 22.0641 24.9278 22.537L19.7616 27.7032C19.2885 28.1762 19.1868 28.9055 19.5122 29.4899L23.336 36.3592C21.7676 38.9461 20.5772 41.787 19.8368 44.8047L12.2766 46.9579C11.6333 47.1411 11.1897 47.7288 11.1897 48.3977V55.7039C11.1897 56.3729 11.6334 56.9606 12.2766 57.1438L19.8366 59.2969C20.577 62.3147 21.7674 65.1555 23.3358 67.7424L19.512 74.6118C19.1866 75.1961 19.2885 75.9254 19.7614 76.3985L24.9276 81.5647C25.4006 82.0377 26.1299 82.1395 26.7143 81.8141L33.5836 77.9903C36.1706 79.5586 39.0114 80.7491 42.0292 81.4895L44.1825 89.0496C44.3657 89.693 44.9534 90.1366 45.6223 90.1366H52.9284C53.5973 90.1366 54.185 89.6928 54.3682 89.0496L56.5215 81.4895C59.5393 80.7491 62.3801 79.5586 64.967 77.9903L71.8364 81.8141C72.4207 82.1395 73.15 82.0375 73.6231 81.5647L78.7893 76.3985C79.2624 75.9254 79.3641 75.1961 79.0387 74.6118L75.2149 67.7424C76.7832 65.1555 77.9737 62.3147 78.7141 59.2969L86.2743 57.1436C86.9178 56.9606 87.3616 56.3727 87.3616 55.7039Z" fill="white"/>
<path d="M62.2439 65.0306C69.4126 57.8619 69.4126 46.2392 62.2439 39.0705C55.0752 31.9018 43.4525 31.9018 36.2838 39.0705C29.1151 46.2392 29.1151 57.8619 36.2838 65.0306C43.4525 72.1993 55.0752 72.1993 62.2439 65.0306Z" fill="#4582EC"/>
<path d="M49.275 67.1656C57.6227 67.1656 64.3898 60.3984 64.3898 52.0508C64.3898 43.7031 57.6227 36.9359 49.275 36.9359C40.9273 36.9359 34.1602 43.7031 34.1602 52.0508C34.1602 60.3984 40.9273 67.1656 49.275 67.1656Z" fill="white"/>
<path d="M49.2754 75.8789C36.1365 75.8789 25.4473 65.1896 25.4473 52.0508C25.4473 51.5115 25.8846 51.0742 26.4238 51.0742C26.9631 51.0742 27.4004 51.5115 27.4004 52.0508C27.4004 64.1127 37.2135 73.9258 49.2754 73.9258C49.8146 73.9258 50.2519 74.3631 50.2519 74.9023C50.2521 75.4416 49.8146 75.8789 49.2754 75.8789Z" fill="#4582EC"/>
<path d="M72.1272 53.0273C71.5879 53.0273 71.1506 52.59 71.1506 52.0508C71.1506 39.9889 61.3375 30.1758 49.2756 30.1758C48.7364 30.1758 48.2991 29.7385 48.2991 29.1992C48.2991 28.66 48.7364 28.2227 49.2756 28.2227C62.4145 28.2227 73.1038 38.9119 73.1038 52.0508C73.1038 52.59 72.6664 53.0273 72.1272 53.0273Z" fill="#4582EC"/>
<path d="M44.7084 55.3776C44.4586 55.3776 44.2084 55.2823 44.018 55.0917L41.6674 52.7411C41.286 52.3597 41.286 51.7413 41.6674 51.36L44.018 49.0094C44.3991 48.6282 45.0178 48.6282 45.3989 49.0094C45.7803 49.3909 45.7803 50.0093 45.3989 50.3905L43.7389 52.0507L45.3989 53.7108C45.7803 54.0923 45.7803 54.7106 45.3989 55.0919C45.2082 55.2823 44.9584 55.3776 44.7084 55.3776Z" fill="#4582EC"/>
<path d="M53.842 55.3778C53.5922 55.3778 53.342 55.2825 53.1516 55.0919C52.7701 54.7104 52.7701 54.0921 53.1516 53.7108L54.8115 52.0507L53.1516 50.3905C52.7701 50.0091 52.7701 49.3907 53.1516 49.0094C53.5326 48.6282 54.1514 48.6282 54.5324 49.0094L56.883 51.36C57.2644 51.7415 57.2644 52.3598 56.883 52.7411L54.5324 55.0917C54.342 55.2825 54.092 55.3778 53.842 55.3778Z" fill="#4582EC"/>
<path d="M47.9467 55.378C47.784 55.378 47.6192 55.3374 47.4676 55.2516C46.9979 54.9864 46.8321 54.3907 47.0973 53.921L49.752 49.2198C50.017 48.7503 50.6129 48.5845 51.0825 48.8495C51.5522 49.1148 51.718 49.7105 51.4528 50.18L48.7981 54.8811C48.6184 55.1993 48.2876 55.378 47.9467 55.378Z" fill="#4582EC"/>
<path d="M32.2021 37.0105H8.31108C7.22983 37.0105 6.35327 36.1339 6.35327 35.0526V16.053C6.35327 14.9718 7.22983 14.0952 8.31108 14.0952H32.2021C33.2833 14.0952 34.1599 14.9718 34.1599 16.053V35.0526C34.1599 36.1339 33.2835 37.0105 32.2021 37.0105Z" fill="white"/>
<path d="M32.2021 14.0952H25.53V37.0105H32.2021C33.2833 37.0105 34.1599 36.1339 34.1599 35.0526V16.053C34.1599 14.9718 33.2833 14.0952 32.2021 14.0952Z" fill="white"/>
<path d="M34.1603 20.4907V16.053C34.1603 14.9718 33.2837 14.0952 32.2025 14.0952H8.31108C7.22983 14.0952 6.35327 14.9718 6.35327 16.053V20.4907H34.1603Z" fill="#8FB4F4"/>
<path d="M21.5961 32.4392H11.8862C11.3456 32.4392 10.9075 32.001 10.9075 31.4605C10.9075 30.9201 11.3456 30.4818 11.8862 30.4818H21.5963C22.137 30.4818 22.575 30.9201 22.575 31.4605C22.5749 32.0011 22.1368 32.4392 21.5961 32.4392Z" fill="#4582EC"/>
<path d="M16.3102 28.3759H11.8862C11.3456 28.3759 10.9075 27.9376 10.9075 27.3972C10.9075 26.8567 11.3456 26.4185 11.8862 26.4185H16.3102C16.8508 26.4185 17.2889 26.8567 17.2889 27.3972C17.2889 27.9376 16.8508 28.3759 16.3102 28.3759Z" fill="#4582EC"/>
<path d="M91.6889 85.5997H61.9385C60.8573 85.5997 59.9807 84.7231 59.9807 83.6419V64.6423C59.9807 63.561 60.8573 62.6844 61.9385 62.6844H91.6889C92.7702 62.6844 93.6467 63.561 93.6467 64.6423V83.6419C93.6467 84.7231 92.7702 85.5997 91.6889 85.5997Z" fill="white"/>
<path d="M93.6467 69.0799V64.6423C93.6467 63.561 92.7702 62.6844 91.6889 62.6844H61.9385C60.8573 62.6844 59.9807 63.561 59.9807 64.6423V69.0799H93.6467Z" fill="#8FB4F4"/>
<path d="M91.6892 61.7081H79.0408C79.215 61.1704 79.3765 60.6278 79.5211 60.0825L86.5414 58.0831C87.5988 57.7819 88.3375 56.8036 88.3375 55.704V48.3979C88.3375 47.2983 87.5988 46.32 86.5414 46.0188L79.5211 44.0194C78.8084 41.3276 77.7406 38.7506 76.3408 36.3436L79.8916 29.9649C80.4263 29.0041 80.2568 27.7903 79.4794 27.0127L74.3132 21.8465C73.5357 21.0688 72.3216 20.8995 71.3609 21.4342L64.9822 24.985C62.5753 23.5852 59.9984 22.5176 57.3064 21.8047L55.307 14.7844C55.0058 13.727 54.0273 12.9885 52.9279 12.9885H45.6218C44.5222 12.9885 43.5439 13.7272 43.2427 14.7846L41.2433 21.8047C39.1306 22.3643 37.0841 23.1471 35.1365 24.1348V16.0532C35.1365 14.4352 33.8201 13.1188 32.2021 13.1188H8.31128C6.69331 13.1188 5.3769 14.4352 5.3769 16.0532V20.4909C5.3769 21.0301 5.81421 21.4674 6.35347 21.4674H33.1835V35.0526C33.1835 35.5938 32.7433 36.0338 32.2023 36.0338H8.31108C7.77007 36.0338 7.32983 35.5936 7.32983 35.0526V25.8698C7.32983 25.3305 6.89253 24.8932 6.35327 24.8932C5.81401 24.8932 5.37671 25.3305 5.37671 25.8698V35.0526C5.37671 36.6707 6.69311 37.987 8.31108 37.987H21.3222C20.3523 39.9124 19.5812 41.9333 19.0287 44.0192L12.0085 46.0186C10.9509 46.3198 10.2125 47.2981 10.2125 48.3977V55.7038C10.2125 56.8034 10.9511 57.7817 12.0085 58.0829L19.0287 60.0823C19.7416 62.7743 20.8093 65.3514 22.2089 67.758L18.6583 74.1368C18.1236 75.0975 18.2929 76.3116 19.0705 77.0889L24.2367 82.2551C25.0142 83.0327 26.2281 83.2022 27.189 82.6672L33.5677 79.1164C35.9746 80.5163 38.5517 81.5838 41.2435 82.2967L43.2429 89.3168C43.5441 90.3743 44.5224 91.1129 45.622 91.1129H52.9281C54.0275 91.1129 55.0058 90.3745 55.3072 89.3168L57.3066 82.2965C57.8765 82.1456 58.4433 81.9758 59.0044 81.7926V83.6414C59.0044 85.2594 60.3209 86.5758 61.9388 86.5758H91.6892C93.3074 86.5758 94.6236 85.2594 94.6236 83.6414V64.6418C94.6238 63.0245 93.3074 61.7081 91.6892 61.7081ZM7.32983 19.5143V16.0532C7.32983 15.5122 7.77007 15.0719 8.31108 15.0719H32.2021C32.7431 15.0719 33.1834 15.5122 33.1834 16.0532V19.5143H7.32983ZM56.2882 80.5413C55.9474 80.6248 55.6779 80.8848 55.5818 81.2221L53.4287 88.7823C53.3652 89.0049 53.1593 89.1604 52.9281 89.1604H45.622C45.3906 89.1604 45.1847 89.0049 45.1214 88.7825L42.9683 81.2223C42.8722 80.8848 42.6025 80.625 42.2619 80.5415C39.3781 79.8338 36.6287 78.6948 34.09 77.1557C33.7898 76.9739 33.4154 76.9668 33.1087 77.1375L26.2394 80.9614C26.0373 81.0741 25.7818 81.0383 25.6181 80.8746L20.4519 75.7082C20.2884 75.5448 20.2527 75.2893 20.3652 75.0872L24.189 68.2178C24.3597 67.9114 24.3527 67.5368 24.1709 67.2366C22.6318 64.6981 21.4927 61.9487 20.7851 59.0647C20.7015 58.7239 20.4416 58.4543 20.1042 58.3582L12.5441 56.2051C12.3216 56.1416 12.1662 55.936 12.1662 55.7045V48.3985C12.1662 48.167 12.3214 47.9612 12.5441 47.8979L20.1042 45.7448C20.4417 45.6487 20.7015 45.379 20.7851 45.0383C21.3888 42.578 22.3134 40.2086 23.5285 37.9879H32.2027C33.8207 37.9879 35.1371 36.6715 35.1371 35.0536V26.3436C37.3787 25.1084 39.7748 24.1715 42.2619 23.5614C42.6027 23.4778 42.8722 23.2178 42.9683 22.8805L45.1214 15.3204C45.1849 15.0979 45.3908 14.9424 45.622 14.9424H52.9281C53.1595 14.9424 53.3654 15.0979 53.4287 15.3204L55.5818 22.8805C55.6779 23.218 55.9476 23.4778 56.2882 23.5614C59.172 24.269 61.9214 25.4082 64.4601 26.9471C64.7605 27.1291 65.1349 27.1362 65.4414 26.9653L72.3107 23.1415C72.5129 23.029 72.7683 23.0645 72.932 23.2282L78.0982 28.3944C78.2619 28.5579 78.2976 28.8135 78.1849 29.0157L74.3611 35.885C74.1904 36.1916 74.1974 36.5661 74.3793 36.8663C75.9183 39.4051 77.0576 42.1543 77.765 45.0381C77.8486 45.379 78.1086 45.6485 78.4459 45.7446L86.006 47.8977C86.2285 47.9612 86.3839 48.167 86.3839 48.3983V55.7043C86.3839 55.9358 86.2285 56.1416 86.006 56.2049L78.4459 58.3581C78.1084 58.4541 77.8484 58.7239 77.765 59.0645C77.5466 59.9541 77.2814 60.8407 76.9795 61.7082H72.9927C72.4535 61.7082 72.0162 62.1456 72.0162 62.6848C72.0162 63.2241 72.4535 63.6614 72.9927 63.6614H91.6888C92.23 63.6614 92.6701 64.1016 92.6701 64.6426V68.1038H60.9572V64.6426C60.9572 64.1016 61.3974 63.6614 61.9384 63.6614H67.6138C68.1531 63.6614 68.5904 63.2241 68.5904 62.6848C68.5904 62.1456 68.1531 61.7082 67.6138 61.7082H61.9384C60.3205 61.7082 59.0041 63.0247 59.0041 64.6426V79.7305C58.1142 80.0428 57.2029 80.3166 56.2882 80.5413ZM91.6892 84.6233H61.9388C61.3978 84.6233 60.9576 84.1831 60.9576 83.642V70.0567H92.6705V83.642C92.6707 84.1831 92.2304 84.6233 91.6892 84.6233Z" fill="#4582EC"/>
<path d="M67.0153 80.2716C66.9856 80.2716 66.9557 80.2702 66.9258 80.2674C66.5375 80.2319 66.2077 79.9688 66.0866 79.5981L64.7467 75.4946C64.5793 74.9819 64.8592 74.4305 65.3719 74.2632C65.8846 74.0958 66.436 74.3757 66.6034 74.8884L67.2401 76.8382L67.5969 76.1825C67.7678 75.8684 68.0969 75.6727 68.4547 75.6727C68.8125 75.6727 69.1416 75.8682 69.3125 76.1825L69.6694 76.8382L70.3061 74.8884C70.4733 74.3757 71.0246 74.0956 71.5375 74.2632C72.0502 74.4305 72.3303 74.9819 72.1627 75.4946L70.8229 79.5981C70.7018 79.9688 70.3719 80.2319 69.9838 80.2674C69.5959 80.3036 69.2233 80.1044 69.037 79.7618L68.4549 78.6923L67.8729 79.7618C67.7008 80.0778 67.3706 80.2716 67.0153 80.2716Z" fill="#4582EC"/>
<path d="M75.3747 80.2716C75.345 80.2716 75.3151 80.2702 75.2852 80.2674C74.8969 80.2319 74.567 79.9688 74.4459 79.5981L73.1061 75.4946C72.9387 74.9819 73.2186 74.4305 73.7313 74.2632C74.244 74.0958 74.7954 74.3757 74.9627 74.8884L75.5995 76.8382L75.9563 76.1825C76.1272 75.8684 76.4563 75.6727 76.8141 75.6727C77.1719 75.6727 77.501 75.8682 77.6719 76.1825L78.0288 76.8382L78.6655 74.8884C78.8327 74.3757 79.384 74.0956 79.8969 74.2632C80.4096 74.4305 80.6897 74.9819 80.5221 75.4946L79.1823 79.5981C79.0612 79.9688 78.7313 80.2319 78.3432 80.2674C77.9549 80.3036 77.5825 80.1044 77.3963 79.7618L76.8143 78.6923L76.2323 79.7618C76.06 80.0778 75.7297 80.2716 75.3747 80.2716Z" fill="#4582EC"/>
<path d="M86.6135 80.2715C86.2584 80.2715 85.9279 80.0778 85.7561 79.7618L85.174 78.6923L84.592 79.7618C84.4057 80.1042 84.0342 80.3034 83.6451 80.2674C83.2568 80.2319 82.927 79.9688 82.8061 79.5981L81.4662 75.4946C81.2988 74.9819 81.5787 74.4305 82.0914 74.2632C82.6041 74.0958 83.1555 74.3757 83.3228 74.8884L83.9596 76.8382L84.3164 76.1825C84.4873 75.8684 84.8164 75.6727 85.1742 75.6727C85.532 75.6727 85.8611 75.8682 86.032 76.1825L86.3889 76.8382L87.0256 74.8884C87.1928 74.3757 87.7441 74.0956 88.257 74.2632C88.7697 74.4305 89.0498 74.9819 88.8822 75.4946L87.5424 79.5981C87.4213 79.9688 87.0914 80.2319 86.7033 80.2674C86.673 80.2702 86.6432 80.2715 86.6135 80.2715Z" fill="#4582EC"/>
<path d="M86.5163 39.2123C86.2663 39.2123 86.0165 39.117 85.8257 38.9264L83.6784 36.7791C83.297 36.3977 83.297 35.7793 83.6784 35.398L85.8257 33.2508C86.2071 32.8695 86.8253 32.8695 87.2067 33.2508L89.354 35.398C89.7354 35.7795 89.7354 36.3978 89.354 36.7791L87.2069 38.9262C87.0161 39.1168 86.7663 39.2123 86.5163 39.2123ZM85.7501 36.0883L86.5163 36.8545L87.2825 36.0883L86.5163 35.3221L85.7501 36.0883Z" fill="#8FB4F4"/>
<path d="M69.787 18.1889C69.2477 18.1889 68.8104 17.7516 68.8104 17.2123C68.8104 16.5635 68.2827 16.0357 67.634 16.0357C67.0948 16.0357 66.6575 15.5984 66.6575 15.0592C66.6575 14.5199 67.0948 14.0826 67.634 14.0826C68.2827 14.0826 68.8104 13.5549 68.8104 12.9062C68.8104 12.367 69.2477 11.9297 69.787 11.9297C70.3262 11.9297 70.7635 12.367 70.7635 12.9062C70.7635 13.5549 71.2913 14.0826 71.9399 14.0826C72.4792 14.0826 72.9165 14.5199 72.9165 15.0592C72.9165 15.5984 72.4792 16.0357 71.9399 16.0357C71.2913 16.0357 70.7635 16.5635 70.7635 17.2123C70.7635 17.7518 70.3262 18.1889 69.787 18.1889Z" fill="#8FB4F4"/>
<path d="M12.3612 69.0118C11.8219 69.0118 11.3846 68.5745 11.3846 68.0352C11.3846 67.3866 10.8569 66.8589 10.2083 66.8589C9.66899 66.8589 9.23169 66.4216 9.23169 65.8823C9.23169 65.343 9.66899 64.9057 10.2083 64.9057C10.8569 64.9057 11.3846 64.378 11.3846 63.7294C11.3846 63.1901 11.8219 62.7528 12.3612 62.7528C12.9004 62.7528 13.3377 63.1901 13.3377 63.7294C13.3377 64.378 13.8655 64.9057 14.5141 64.9057C15.0534 64.9057 15.4907 65.343 15.4907 65.8823C15.4907 66.4216 15.0534 66.8589 14.5141 66.8589C13.8655 66.8589 13.3377 67.3866 13.3377 68.0352C13.3377 68.5745 12.9004 69.0118 12.3612 69.0118Z" fill="#8FB4F4"/>
<path d="M10.9075 79.5021C10.3683 79.5021 9.93096 79.0648 9.93096 78.5256C9.93096 77.8769 9.40322 77.3492 8.75439 77.3492C8.21514 77.3492 7.77783 76.9119 7.77783 76.3726C7.77783 75.8334 8.21514 75.3961 8.75439 75.3961C9.40322 75.3961 9.93096 74.8684 9.93096 74.2197C9.93096 73.6805 10.3683 73.2432 10.9075 73.2432C11.4468 73.2432 11.8841 73.6805 11.8841 74.2197C11.8841 74.8684 12.4118 75.3961 13.0604 75.3961C13.5997 75.3961 14.037 75.8334 14.037 76.3726C14.037 76.9119 13.5997 77.3492 13.0604 77.3492C12.4118 77.3492 11.8841 77.8769 11.8841 78.5256C11.8841 79.0648 11.4468 79.5021 10.9075 79.5021Z" fill="#8FB4F4"/>
</g>
<defs>
<linearGradient id="paint0_linear_2:1445" x1="19.2736" y1="6.18439" x2="107.862" y2="39.2781" gradientUnits="userSpaceOnUse">
<stop stop-color="#FBFCFE"/>
<stop offset="1" stop-color="#DCE7FC"/>
</linearGradient>
<clipPath id="clip0_2:1445">
<rect width="100" height="100" fill="white"/>
</clipPath>
</defs>
</svg>
