<svg width="100" height="100" viewBox="0 0 100 100" fill="none" xmlns="http://www.w3.org/2000/svg">
<g opacity="0.5" clip-path="url(#clip0_2:1347)">
<path d="M98.7546 56.5268C96.4448 49.767 91.3058 44.7768 85.1116 42.4249C81.9026 41.2063 79.7706 38.1561 79.7235 34.7239C79.7226 34.6489 79.7212 34.5737 79.7194 34.4985C79.4251 21.8848 68.8819 11.7778 56.2669 11.9944C48.8266 12.1221 42.2458 15.7747 38.1214 21.3538C34.5696 26.1583 29.0413 29.1594 23.0667 29.1563C22.8913 29.1563 22.7157 29.1581 22.5393 29.162C10.4461 29.4264 0.162938 39.8022 0.00160965 51.8969C-0.17007 64.7743 10.217 75.2668 23.0547 75.2668C33.0053 75.2668 41.4823 68.9627 44.7122 60.1307C45.5573 57.8198 48.0622 56.5811 50.4315 57.2456C50.461 57.2538 50.4907 57.2622 50.5204 57.2704C52.6882 57.8688 54.1255 59.9344 53.9481 62.1764C53.7104 65.1809 54.0616 68.2809 55.0806 71.3163C59.0886 83.2567 72.1095 89.8094 84.0831 85.9022C96.3314 81.9051 102.907 68.6788 98.7546 56.5268Z" fill="url(#paint0_linear_2:1347)"/>
<path opacity="0.1" d="M74.7374 57L69.6835 55.561C69.1886 53.5434 68.3919 51.6432 67.3433 49.9141L69.9003 45.3211C70.1171 44.9307 70.0491 44.4422 69.7331 44.1262L66.279 40.6721C65.963 40.3561 65.4745 40.2881 65.0841 40.5049L60.4911 43.062C59.114 42.2268 57.6269 41.5545 56.0597 41.0641V31.5124C56.0597 30.9434 55.9345 30.3805 55.696 29.8643L51.7724 21.4268C51.0726 19.9196 48.9278 19.9196 48.228 21.4268L44.3024 29.8643C44.062 30.3803 43.9388 30.9434 43.9388 31.5124V41.0641C42.3716 41.5545 40.8845 42.2266 39.5073 43.062L34.9144 40.5049C34.5239 40.2881 34.0354 40.3561 33.7194 40.6721L30.2653 44.1262C29.9493 44.4422 29.8813 44.9307 30.0981 45.3211L32.6552 49.9141C31.6065 51.6432 30.8099 53.5432 30.3149 55.561L25.261 57C24.83 57.1229 24.5337 57.5159 24.5337 57.9639V62.8481C24.5337 63.2959 24.8302 63.6891 25.261 63.8118L30.3149 65.2508C30.8099 67.2684 31.6065 69.1686 32.6552 70.8977L30.0981 75.4907C29.8813 75.8811 29.9493 76.3696 30.2653 76.6856L33.7194 80.1397C34.0354 80.4557 34.5239 80.5237 34.9144 80.3069L39.5073 77.7499C41.2364 78.7985 43.1364 79.5952 45.1542 80.0901L46.5933 85.144C46.7161 85.5749 47.1091 85.8713 47.5569 85.8713H52.4411C52.889 85.8713 53.2821 85.5749 53.4048 85.144L54.8439 80.0901C56.8614 79.5952 58.7616 78.7985 60.4907 77.7499L65.0837 80.3069C65.4741 80.5237 65.9626 80.4557 66.2786 80.1397L69.7327 76.6856C70.0487 76.3696 70.1167 75.8811 69.8999 75.4907L67.3429 70.8977C68.3915 69.1686 69.1882 67.2686 69.6831 65.2508L74.737 63.8118C75.1681 63.6891 75.4644 63.2959 75.4644 62.8481V57.9639C75.4649 57.5159 75.1685 57.1227 74.7374 57ZM39.5259 60.4057C39.5259 56.8807 41.2694 53.7647 43.9394 51.8663V68.9452C41.2694 67.0469 39.5259 63.9307 39.5259 60.4057ZM56.0599 68.9452V51.8665C58.7296 53.7647 60.4731 56.8809 60.4731 60.4059C60.4731 63.9309 58.7296 67.0469 56.0599 68.9452Z" fill="#4582EC"/>
<path d="M86.8424 57.0542H83.4745C82.8102 57.0542 82.2717 56.5157 82.2717 55.8515V52.4835C82.2717 51.8192 82.8102 51.2808 83.4745 51.2808H86.8424C87.5067 51.2808 88.0452 51.8192 88.0452 52.4835V55.8515C88.0454 56.5157 87.5067 57.0542 86.8424 57.0542Z" fill="white"/>
<path d="M16.5255 57.0542H13.1576C12.4933 57.0542 11.9548 56.5157 11.9548 55.8515V52.4835C11.9548 51.8192 12.4933 51.2808 13.1576 51.2808H16.5255C17.1898 51.2808 17.7283 51.8192 17.7283 52.4835V55.8515C17.7283 56.5157 17.1898 57.0542 16.5255 57.0542Z" fill="white"/>
<path d="M51.6837 19.009H48.3158C47.6515 19.009 47.113 18.4705 47.113 17.8063V14.4381C47.113 13.7738 47.6515 13.2354 48.3158 13.2354H51.6837C52.348 13.2354 52.8865 13.7738 52.8865 14.4381V17.8061C52.8865 18.4703 52.348 19.009 51.6837 19.009Z" fill="white"/>
<path d="M89.1985 18.841C90.7143 18.2127 91.4338 16.4746 90.8055 14.9588C90.1772 13.443 88.4391 12.7236 86.9233 13.3519C85.4075 13.9802 84.688 15.7183 85.3163 17.2341C85.9446 18.7499 87.6828 19.4693 89.1985 18.841Z" fill="white"/>
<path d="M11.9547 19.0927C13.5951 19.0927 14.925 17.7629 14.925 16.1224C14.925 14.482 13.5951 13.1521 11.9547 13.1521C10.3142 13.1521 8.98438 14.482 8.98438 16.1224C8.98438 17.7629 10.3142 19.0927 11.9547 19.0927Z" fill="white"/>
<path d="M74.7375 61.1016L69.6836 59.6625C69.1887 57.6449 68.392 55.7447 67.3434 54.0156L69.9004 49.4227C70.1172 49.0322 70.0492 48.5437 69.7332 48.2277L66.2791 44.7736C65.9631 44.4576 65.4746 44.3896 65.0842 44.6064L60.4912 47.1635C58.7621 46.1148 56.8621 45.3182 54.8443 44.8232L53.4053 39.7693C53.2824 39.3385 52.8895 39.042 52.4416 39.042H47.5574C47.1096 39.042 46.7164 39.3385 46.5938 39.7693L45.1547 44.8232C43.1371 45.3182 41.2369 46.1148 39.5078 47.1635L34.9148 44.6064C34.5244 44.3896 34.0359 44.4576 33.7199 44.7736L30.2658 48.2277C29.9498 48.5437 29.8818 49.0322 30.0986 49.4227L32.6557 54.0156C31.607 55.7447 30.8104 57.6447 30.3154 59.6625L25.2615 61.1016C24.8307 61.2244 24.5342 61.6174 24.5342 62.0654V66.9496C24.5342 67.3975 24.8307 67.7906 25.2615 67.9133L30.3154 69.3523C30.8104 71.3699 31.607 73.2701 32.6557 74.9992L30.0986 79.5922C29.8818 79.9826 29.9498 80.4711 30.2658 80.7871L33.7199 84.2412C34.0359 84.5572 34.5244 84.6252 34.9148 84.4084L39.5078 81.8514C41.2369 82.9 43.1369 83.6967 45.1547 84.1916L46.5938 89.2455C46.7166 89.6764 47.1096 89.9728 47.5574 89.9728H52.4416C52.8895 89.9728 53.2826 89.6764 53.4053 89.2455L54.8443 84.1916C56.8619 83.6967 58.7621 82.9 60.4912 81.8514L65.0842 84.4084C65.4746 84.6252 65.9631 84.5572 66.2791 84.2412L69.7332 80.7871C70.0492 80.4711 70.1172 79.9826 69.9004 79.5922L67.3434 74.9992C68.392 73.2701 69.1887 71.3701 69.6836 69.3523L74.7375 67.9133C75.1684 67.7904 75.4648 67.3975 75.4648 66.9496V62.0654C75.4648 61.6174 75.1684 61.2242 74.7375 61.1016ZM49.9994 74.9811C44.2154 74.9811 39.5258 70.2914 39.5258 64.5074C39.5258 58.7234 44.2154 54.0338 49.9994 54.0338C55.7834 54.0338 60.473 58.7234 60.473 64.5074C60.473 70.2914 55.7834 74.9811 49.9994 74.9811Z" fill="white"/>
<path d="M56.0599 35.6139V73.0508C54.3494 74.2668 52.2576 74.9803 49.9996 74.9803C47.7396 74.9803 45.6498 74.2649 43.9392 73.0469V35.6139C43.9392 35.045 44.0625 34.4821 44.3029 33.9659L48.2285 25.5284C48.9283 24.0211 51.073 24.0211 51.7728 25.5284L55.6965 33.9659C55.9347 34.4821 56.0599 35.045 56.0599 35.6139Z" fill="#8FB4F4"/>
<path d="M49.9996 36.7378V74.9802C47.7396 74.9802 45.6498 74.2648 43.9392 73.0468V36.7378H49.9996Z" fill="white"/>
<path d="M48.2277 25.529L44.3031 33.965C44.0626 34.4816 43.9382 35.0445 43.9382 35.6144V38.1062C44.6363 38.4816 45.4359 38.6947 46.2843 38.6947C47.264 38.6947 48.1777 38.4095 48.946 37.9177C49.5943 37.5029 50.4281 37.5234 51.0788 37.9341C51.8419 38.4157 52.7456 38.6947 53.7156 38.6947C54.564 38.6947 55.3618 38.4816 56.0597 38.1062V35.614C56.0597 35.0445 55.9353 34.4818 55.695 33.9652L51.772 25.5288C51.0724 24.0216 48.9275 24.0216 48.2277 25.529Z" fill="white"/>
<path d="M48.2272 25.529L46.0806 30.147C47.1501 31.021 48.5128 31.5468 49.9985 31.5468C51.4864 31.5468 52.851 31.0208 53.9184 30.145L51.7718 25.529C51.072 24.0216 48.927 24.0216 48.2272 25.529Z" fill="white"/>
<path d="M88.0453 20.0692C90.2217 20.0692 91.9922 18.2987 91.9922 16.1222C91.9922 13.9458 90.2217 12.1753 88.0453 12.1753C86.2064 12.1753 84.6619 13.4409 84.2256 15.1456H53.8633V14.4384C53.8633 13.2366 52.8855 12.2589 51.684 12.2589H48.316C47.1145 12.2589 46.1367 13.2366 46.1367 14.4384V15.1456H15.7744C15.3381 13.4409 13.7936 12.1753 11.9547 12.1753C9.77832 12.1753 8.00781 13.9458 8.00781 16.1222C8.00781 18.2987 9.77832 20.0692 11.9547 20.0692C13.7936 20.0692 15.3381 18.8034 15.7744 17.0987H38.2574C32.6014 19.0399 27.474 22.3765 23.3514 26.8757C17.4541 33.3116 14.1123 41.5981 13.8793 50.3042H13.1576C11.9559 50.3042 10.9781 51.2819 10.9781 52.4835V55.8514C10.9781 57.053 11.9559 58.0307 13.1576 58.0307H16.5254C17.7271 58.0307 18.7049 57.053 18.7049 55.8514V52.4835C18.7049 51.2819 17.7271 50.3042 16.5254 50.3042H15.8336C16.066 42.088 19.2252 34.2698 24.7916 28.1952C30.392 22.0831 37.9504 18.2372 46.1367 17.3161V17.8063C46.1367 19.0079 47.1145 19.9856 48.316 19.9856H51.684C52.8855 19.9856 53.8633 19.0079 53.8633 17.8063V17.3161C62.0494 18.2372 69.6076 22.0833 75.208 28.195C80.7744 34.27 83.9338 42.088 84.1662 50.3044H83.4744C82.2727 50.3044 81.2949 51.2821 81.2949 52.4837V55.8516C81.2949 57.0532 82.2727 58.0309 83.4744 58.0309H86.8422C88.0439 58.0309 89.0217 57.0532 89.0217 55.8516V52.4837C89.0217 51.2821 88.0439 50.3044 86.8422 50.3044H86.1205C85.8875 41.5981 82.5455 33.3114 76.648 26.8755C72.5256 22.3765 67.3982 19.0403 61.7424 17.0989H84.2254C84.6619 18.8034 86.2064 20.0692 88.0453 20.0692ZM16.752 52.4835V55.8514C16.752 55.9762 16.6504 56.0776 16.5256 56.0776H13.1576C13.0326 56.0776 12.9313 55.976 12.9313 55.8514V52.4835C12.9313 52.3587 13.0328 52.2573 13.1576 52.2573H16.5254C16.6504 52.2573 16.752 52.3587 16.752 52.4835ZM87.0687 52.4835V55.8514C87.0687 55.9762 86.9672 56.0776 86.8424 56.0776H83.4746C83.3496 56.0776 83.2482 55.976 83.2482 55.8514V52.4835C83.2482 52.3587 83.3498 52.2573 83.4746 52.2573H86.8424C86.9672 52.2573 87.0687 52.3587 87.0687 52.4835ZM88.0453 14.1284C89.1447 14.1284 90.0391 15.0228 90.0391 16.1222C90.0391 17.2216 89.1447 18.1161 88.0453 18.1161C86.9459 18.1161 86.0514 17.2216 86.0514 16.1222C86.0514 15.0228 86.9459 14.1284 88.0453 14.1284ZM11.9547 18.1161C10.8553 18.1161 9.96094 17.2216 9.96094 16.1222C9.96094 15.0228 10.8553 14.1284 11.9547 14.1284C13.0541 14.1284 13.9486 15.0228 13.9486 16.1222C13.9486 17.2216 13.0541 18.1161 11.9547 18.1161ZM51.9102 17.8061C51.9102 17.931 51.8086 18.0323 51.684 18.0323H48.316C48.1912 18.0323 48.0898 17.9308 48.0898 17.8061V14.4384C48.0898 14.3134 48.1914 14.212 48.316 14.212H51.684C51.8088 14.212 51.9102 14.3136 51.9102 14.4384V17.8061Z" fill="#4582EC"/>
<path d="M75.0048 60.1621L70.4882 58.8759C70.021 57.1718 69.3437 55.5369 68.4685 54.0021L70.7543 49.8962C71.1804 49.1283 71.0445 48.1584 70.4238 47.5371L66.9695 44.083C66.3484 43.4621 65.3783 43.3257 64.6091 43.7531L60.5042 46.0382C59.3994 45.4085 58.2367 44.8794 57.0371 44.4584V35.6144C57.0371 34.9074 56.8794 34.1949 56.5816 33.5539L52.6582 25.1164C52.1716 24.0705 51.1531 23.4207 49.9996 23.4207C48.8462 23.4208 47.8277 24.0705 47.3416 25.1164L43.4179 33.5541C43.1201 34.1949 42.9625 34.9074 42.9625 35.6144V44.4578C41.7623 44.8789 40.5998 45.4084 39.4945 46.0384L35.3886 43.7525C34.6207 43.3263 33.6501 43.4621 33.0294 44.0832L29.575 47.5375C28.9542 48.1585 28.8185 49.1285 29.2453 49.8978L31.5302 54.0025C30.6552 55.5373 29.9777 57.1722 29.5105 58.8763L24.9941 60.1623C24.1482 60.4029 23.5574 61.1855 23.5574 62.0654V66.9496C23.5574 67.8292 24.1482 68.6119 24.9939 68.8523L29.5105 70.1386C29.9777 71.8427 30.655 73.4775 31.5302 75.0123L29.2445 79.1181C28.8183 79.8861 28.9542 80.856 29.575 81.4773L33.0292 84.9316C33.6503 85.5525 34.6205 85.6892 35.3896 85.2613L39.4945 82.9763C41.0293 83.8513 42.6642 84.5289 44.3683 84.996L45.6542 89.5125C45.8949 90.3584 46.6775 90.9492 47.5574 90.9492H52.4414C53.3212 90.9492 54.1039 90.3584 54.3443 89.5126L55.6304 84.996C57.3345 84.5289 58.9695 83.8515 60.5042 82.9763L64.6099 85.2619C65.3779 85.6888 66.3484 85.5527 66.9695 84.9316L70.424 81.4771C71.0447 80.856 71.1804 79.8861 70.7537 79.1169L68.4687 75.0121C69.3437 73.4773 70.0212 71.8423 70.4884 70.1384L75.0048 68.8523C75.8507 68.6117 76.4416 67.8291 76.4416 66.9494V62.0652C76.4416 61.1853 75.8505 60.4027 75.0048 60.1621ZM49.9992 42.3824C49.4597 42.3824 49.0226 42.8195 49.0226 43.3589V73.9541C44.2433 73.4634 40.5025 69.4138 40.5025 64.507C40.5025 62.1435 41.4009 59.8708 42.9626 58.1386V67.6675C42.9626 68.207 43.3998 68.6441 43.9392 68.6441C44.4787 68.6441 44.9158 68.207 44.9158 67.6675V39.5091C45.3628 39.6148 45.8224 39.6709 46.2845 39.6709C47.4185 39.6709 48.5209 39.349 49.4726 38.7398C49.7904 38.5361 50.2168 38.5443 50.558 38.7597C51.5023 39.3558 52.5943 39.6709 53.716 39.6709C54.1777 39.6709 54.6373 39.6148 55.0843 39.5089V72.3753C55.0843 72.4226 55.0918 72.4677 55.0982 72.513C53.883 73.2896 52.4818 73.7996 50.9759 73.9541V43.3589C50.9757 42.8195 50.5386 42.3824 49.9992 42.3824ZM57.0373 58.1291C58.6154 59.8611 59.4966 62.1078 59.4966 64.507C59.4966 66.9558 58.5648 69.1908 57.0373 70.8767V58.1291ZM49.1128 25.9398C49.357 25.4148 49.8535 25.374 50 25.374C50.1464 25.374 50.6431 25.4148 50.8873 25.94L52.6894 29.8156C51.8816 30.3033 50.9503 30.5701 49.9992 30.5701C49.0351 30.5701 48.1193 30.3093 47.3097 29.8175L49.1128 25.9398ZM45.1892 34.3775L46.4816 31.598C47.5507 32.1998 48.7648 32.5232 49.9992 32.5232C51.2359 32.5232 52.4503 32.1998 53.5181 31.5978L54.8107 34.3775C54.9896 34.7623 55.0841 35.19 55.0841 35.6144V37.4755C54.649 37.6355 54.191 37.7177 53.7158 37.7177C52.9636 37.7177 52.2322 37.507 51.6002 37.108C50.621 36.49 49.3726 36.4851 48.4197 37.0949C47.783 37.5025 47.0445 37.7177 46.2843 37.7177C45.816 37.7177 45.3517 37.6335 44.9156 37.4746V35.6142C44.9158 35.19 45.0103 34.7621 45.1892 34.3775ZM74.4884 66.9492C74.4884 66.9609 74.4814 66.9703 74.4701 66.9736L69.4162 68.4128C69.0787 68.5089 68.8187 68.7787 68.7351 69.1193C68.2701 71.0154 67.5209 72.8232 66.5085 74.4923C66.3265 74.7923 66.3195 75.1671 66.4904 75.4736L69.0466 80.0654C69.0519 80.0751 69.0504 80.0886 69.0429 80.096L65.5886 83.5503C65.5808 83.5578 65.5677 83.5593 65.5593 83.5546L60.9664 80.9976C60.6593 80.8267 60.2851 80.8335 59.9849 81.0158C58.3156 82.0283 56.5078 82.7775 54.6117 83.2423C54.2711 83.3261 54.0013 83.5861 53.9052 83.9234L52.466 88.9775C52.4628 88.9886 52.4535 88.9957 52.4416 88.9957H47.5576C47.5457 88.9957 47.5363 88.9886 47.533 88.9773L46.0939 83.9234C45.9978 83.5859 45.7281 83.3259 45.3875 83.2423C43.4914 82.7773 41.6835 82.0281 40.0142 81.0158C39.7142 80.8337 39.3398 80.8267 39.0328 80.9976L34.4408 83.5543C34.4308 83.5595 34.4183 83.558 34.4105 83.5503L30.9564 80.0962C30.949 80.0886 30.9472 80.0751 30.9519 80.0666L33.5089 75.4736C33.6798 75.1671 33.6728 74.7923 33.4908 74.4923C32.4783 72.8232 31.7291 71.0154 31.2642 69.1193C31.1804 68.7787 30.9205 68.5089 30.5832 68.4128L25.5291 66.9734C25.5179 66.9703 25.5109 66.9609 25.5109 66.9492V62.065C25.5109 62.0531 25.5179 62.0437 25.5292 62.0404L30.5832 60.6013C30.9207 60.5052 31.1806 60.2355 31.2642 59.8949C31.7292 57.9988 32.4785 56.191 33.4908 54.5216C33.6728 54.2216 33.6798 53.8468 33.5089 53.5404L30.9527 48.9486C30.9474 48.9388 30.949 48.9253 30.9564 48.9179L34.4107 45.4638C34.4183 45.4566 34.4318 45.4546 34.44 45.4593L39.033 48.0164C39.34 48.1873 39.7144 48.18 40.0144 47.9982C40.9529 47.4289 41.9408 46.941 42.9628 46.5404V55.4802C40.196 57.6421 38.5496 60.9912 38.5496 64.507C38.5496 70.8207 43.6861 75.9572 49.9998 75.9572C56.3134 75.9572 61.45 70.8207 61.45 64.507C61.45 60.9472 59.8421 57.666 57.0375 55.4787V46.5406C58.0589 46.941 59.047 47.4291 59.9851 47.9982C60.2851 48.18 60.6595 48.1873 60.9666 48.0164L65.5582 45.4601C65.5679 45.4548 65.5814 45.456 65.5888 45.4642L69.0429 48.9179C69.0504 48.9255 69.0521 48.939 69.0474 48.9476L66.4904 53.5406C66.3195 53.847 66.3265 54.2218 66.5085 54.5218C67.521 56.1912 68.2703 57.999 68.7351 59.8951C68.8189 60.2357 69.0789 60.5054 69.4162 60.6015L74.4703 62.0408C74.4814 62.0439 74.4884 62.0533 74.4884 62.0652V66.9492Z" fill="#4582EC"/>
<path opacity="0.1" d="M88.0453 14.9912C89.6857 14.9912 91.0156 13.6613 91.0156 12.0209C91.0156 10.3804 89.6857 9.05054 88.0453 9.05054C86.7475 9.05054 85.6469 9.88433 85.2426 11.0443H52.8867V10.3369C52.8867 9.67261 52.3482 9.13413 51.6838 9.13413H48.3158C47.6516 9.13413 47.1129 9.67261 47.1129 10.3369V11.0443H14.7574C14.3531 9.88433 13.2525 9.05054 11.9547 9.05054C10.3143 9.05034 8.98438 10.3802 8.98438 12.0207C8.98438 13.6611 10.3143 14.991 11.9547 14.991C13.2525 14.991 14.3531 14.1572 14.7574 12.997H39.7836C24.9648 17.3722 14.0816 31.0107 13.8699 47.1791H13.1574C12.4932 47.1791 11.9547 47.7176 11.9547 48.382V51.75C11.9547 52.4142 12.4932 52.9527 13.1574 52.9527H16.5254C17.1896 52.9527 17.7283 52.4142 17.7283 51.75V48.382C17.7283 47.7177 17.1898 47.1791 16.5254 47.1791H15.8238C16.0686 29.5213 29.7686 15.058 47.1133 13.6003V13.7046C47.1133 14.3689 47.6518 14.9076 48.3162 14.9076H51.6842C52.3484 14.9076 52.8871 14.3691 52.8871 13.7046V13.6003C70.2318 15.0578 83.9318 29.5211 84.1764 47.1791H83.4748C82.8105 47.1791 82.2721 47.7176 82.2721 48.382V51.75C82.2721 52.4142 82.8105 52.9527 83.4748 52.9527H86.8428C87.507 52.9527 88.0455 52.4142 88.0455 51.75V48.382C88.0455 47.7177 87.507 47.1791 86.8428 47.1791H86.1303C85.9186 31.0109 75.0353 17.3722 60.2166 12.997H85.2428C85.6467 14.1574 86.7473 14.9912 88.0453 14.9912Z" fill="#0E62F3"/>
<path d="M11.3843 31.0967C10.8448 31.0967 10.4077 30.6596 10.4077 30.1201C10.4077 29.4744 9.88252 28.9492 9.23682 28.9492C8.69736 28.9492 8.26025 28.5121 8.26025 27.9727C8.26025 27.4332 8.69736 26.9961 9.23682 26.9961C9.88252 26.9961 10.4077 26.4709 10.4077 25.8252C10.4077 25.2857 10.8448 24.8486 11.3843 24.8486C11.9237 24.8486 12.3608 25.2857 12.3608 25.8252C12.3608 26.4709 12.886 26.9961 13.5317 26.9961C14.0712 26.9961 14.5083 27.4332 14.5083 27.9727C14.5083 28.5121 14.0712 28.9492 13.5317 28.9492C12.886 28.9492 12.3608 29.4744 12.3608 30.1201C12.3608 30.6596 11.9237 31.0967 11.3843 31.0967Z" fill="#8FB4F4"/>
<path d="M67.4834 36.5432C66.9439 36.5432 66.5068 36.1061 66.5068 35.5667C66.5068 34.9209 65.9816 34.3958 65.3357 34.3958C64.7962 34.3958 64.3591 33.9586 64.3591 33.4192C64.3591 32.8797 64.7962 32.4426 65.3357 32.4426C65.9816 32.4426 66.5068 31.9174 66.5068 31.2717C66.5068 30.7323 66.9439 30.2952 67.4834 30.2952C68.0228 30.2952 68.4599 30.7323 68.4599 31.2717C68.4599 31.9174 68.9851 32.4426 69.6308 32.4426C70.1703 32.4426 70.6074 32.8797 70.6074 33.4192C70.6074 33.9586 70.1703 34.3958 69.6308 34.3958C68.9851 34.3958 68.4599 34.9209 68.4599 35.5667C68.4599 36.1059 68.0226 36.5432 67.4834 36.5432Z" fill="#6583FE"/>
<path d="M19.875 85.5443C19.6252 85.5443 19.375 85.4489 19.1846 85.2581L17.0373 83.1109C16.6559 82.7296 16.6559 82.1112 17.0373 81.73L19.1846 79.5827C19.5656 79.2013 20.1844 79.2013 20.5654 79.5827L22.7127 81.73C23.0941 82.1112 23.0941 82.7296 22.7127 83.1109L20.5654 85.2581C20.3748 85.4489 20.1248 85.5443 19.875 85.5443ZM19.1088 82.4204L19.875 83.1866L20.6412 82.4204L19.875 81.6542L19.1088 82.4204Z" fill="#8FB4F4"/>
<path d="M84.4878 70.0154C84.238 70.0154 83.9878 69.9201 83.7974 69.7293L81.6501 67.582C81.2687 67.2008 81.2687 66.5824 81.6501 66.2012L83.7974 64.0539C84.1784 63.6725 84.7972 63.6725 85.1782 64.0539L87.3255 66.2012C87.7069 66.5824 87.7069 67.2008 87.3255 67.582L85.1782 69.7293C84.9878 69.9199 84.7376 70.0154 84.4878 70.0154ZM83.7216 66.8914L84.4878 67.6576L85.254 66.8914L84.4878 66.1252L83.7216 66.8914Z" fill="#8FB4F4"/>
</g>
<defs>
<linearGradient id="paint0_linear_2:1347" x1="-4.96747" y1="37.5122" x2="103.254" y2="62.6325" gradientUnits="userSpaceOnUse">
<stop stop-color="#FBFCFE"/>
<stop offset="1" stop-color="#DCE7FC"/>
</linearGradient>
<clipPath id="clip0_2:1347">
<rect width="100" height="100" fill="white"/>
</clipPath>
</defs>
</svg>
