<svg width="100" height="100" viewBox="0 0 100 100" fill="none" xmlns="http://www.w3.org/2000/svg">
<g opacity="0.5" clip-path="url(#clip0_2:1316)">
<path d="M79.7322 29.6431C75.1039 27.8392 71.1938 24.5476 68.8024 20.1937C64.7809 12.872 56.9996 7.90894 48.0561 7.90894C38.7729 7.90894 30.7424 13.256 26.8692 21.0376C24.4969 25.8035 20.4602 29.5455 15.5234 31.5378C8.22872 34.482 2.10489 41.2105 0.161532 51.7296C-0.0517492 52.8839 -0.0548742 54.0707 0.158407 55.225C3.17559 71.5476 16.252 78.7474 28.1533 76.8382C34.8186 75.7691 41.5658 77.9923 46.5063 82.5925C56.552 91.9464 72.6555 94.8791 88.2881 84.8523C90.1195 83.6777 92.5766 81.2128 93.7502 79.3806C107.22 58.3515 97.2422 36.4677 79.7322 29.6431Z" fill="url(#paint0_linear_2:1316)"/>
<path opacity="0.1" d="M77.3941 10.8473V84.079C77.3941 85.6979 76.0781 87.0139 74.4592 87.0139H25.5404C23.9215 87.0139 22.6055 85.6979 22.6055 84.079V10.8473C22.6055 9.22837 23.9215 7.91235 25.5404 7.91235H74.4594C76.0783 7.91235 77.3941 9.22817 77.3941 10.8473Z" fill="#0E62F3"/>
<path d="M77.3945 14.9495V88.1799C77.3945 89.7991 76.0781 91.1155 74.459 91.1155H25.541C23.9219 91.1155 22.6055 89.7991 22.6055 88.1799V14.9495C22.6055 13.3303 23.9219 12.0139 25.541 12.0139H74.459C76.0781 12.0139 77.3945 13.3303 77.3945 14.9495Z" fill="white"/>
<path d="M36.3286 21.4397H63.6724V67.6897H36.3286V21.4397Z" fill="white"/>
<path d="M63.0864 71.7438H36.9146C36.5909 71.7438 36.3286 71.4815 36.3286 71.1579V64.2229C36.3286 63.8993 36.5909 63.637 36.9146 63.637H63.0864C63.4101 63.637 63.6724 63.8993 63.6724 64.2229V71.1579C63.6724 71.4815 63.4101 71.7438 63.0864 71.7438Z" fill="#8FB4F4"/>
<path d="M36.3286 25.5549H63.6724V71.8049H36.3286V25.5549Z" stroke="#4582EC" stroke-miterlimit="10" stroke-linecap="round" stroke-linejoin="round"/>
<path d="M28.0847 35.3076C25.0589 35.3076 22.606 32.8547 22.606 29.8289V21.4404H33.5636V29.8289C33.5636 32.8547 31.1106 35.3076 28.0847 35.3076Z" fill="#8FB4F4"/>
<path d="M49.9999 35.3076C46.9741 35.3076 44.5212 32.8547 44.5212 29.8289V21.4404H55.4788V29.8289C55.4786 32.8547 53.0257 35.3076 49.9999 35.3076Z" fill="#8FB4F4"/>
<path d="M71.9151 35.3076C68.8893 35.3076 66.4364 32.8547 66.4364 29.8289V21.4404H77.394V29.8289C77.3938 32.8547 74.9409 35.3076 71.9151 35.3076Z" fill="#8FB4F4"/>
<path d="M39.0422 35.3076C36.0164 35.3076 33.5635 32.8547 33.5635 29.8289V21.4404H44.5211V29.8289C44.5211 32.8547 42.0682 35.3076 39.0422 35.3076Z" fill="white"/>
<path d="M60.9577 35.3076C57.9319 35.3076 55.479 32.8547 55.479 29.8289V21.4404H66.4366V29.8289C66.4364 32.8547 63.9835 35.3076 60.9577 35.3076Z" fill="white"/>
<path d="M39.0422 35.3076C36.0164 35.3076 33.5635 32.8547 33.5635 29.8289V21.4404H44.5211V29.8289C44.5211 32.8547 42.0682 35.3076 39.0422 35.3076Z" stroke="#4582EC" stroke-miterlimit="10" stroke-linecap="round" stroke-linejoin="round"/>
<path d="M60.9574 35.3076C57.9316 35.3076 55.4787 32.8547 55.4787 29.8289V21.4404H66.4363V29.8289C66.4361 32.8547 63.9832 35.3076 60.9574 35.3076Z" stroke="#4582EC" stroke-miterlimit="10" stroke-linecap="round" stroke-linejoin="round"/>
<path d="M77.394 21.4404V14.9498C77.394 13.3289 76.08 12.0146 74.4589 12.0146H25.5411C23.9202 12.0146 22.606 13.3287 22.606 14.9498V21.4404H77.394Z" fill="white"/>
<path d="M29.0815 16.7134V16.7419C29.0815 17.2813 29.5187 17.7185 30.0581 17.7185C30.5976 17.7185 31.0347 17.2813 31.0347 16.7419V16.7134C31.0347 16.1739 30.5976 15.7368 30.0581 15.7368C29.5187 15.7368 29.0815 16.1741 29.0815 16.7134Z" fill="#4582EC"/>
<path d="M32.8618 16.7134V16.7419C32.8618 17.2813 33.2989 17.7185 33.8384 17.7185C34.3778 17.7185 34.8149 17.2813 34.8149 16.7419V16.7134C34.8149 16.1739 34.3778 15.7368 33.8384 15.7368C33.2989 15.7368 32.8618 16.1741 32.8618 16.7134Z" fill="#4582EC"/>
<path d="M36.6436 16.7134V16.7419C36.6436 17.2813 37.0807 17.7185 37.6201 17.7185C38.1596 17.7185 38.5967 17.2813 38.5967 16.7419V16.7134C38.5967 16.1739 38.1596 15.7368 37.6201 15.7368C37.0807 15.7368 36.6436 16.1741 36.6436 16.7134Z" fill="#4582EC"/>
<path d="M74.459 11.0383H25.5414C23.3846 11.0383 21.6299 12.793 21.6299 14.9499V21.4405C21.6299 21.9799 22.067 22.417 22.6064 22.417C22.6406 22.417 22.6729 22.4104 22.7061 22.4069C22.7393 22.4104 22.7715 22.417 22.8057 22.417H72.049C72.5885 22.417 73.0256 21.9799 73.0256 21.4405C73.0256 20.901 72.5885 20.4639 72.049 20.4639H23.5828V14.9499C23.5828 13.87 24.4613 12.9915 25.5412 12.9915H74.459C75.5389 12.9915 76.4174 13.87 76.4174 14.9499V88.1797C76.4174 89.2596 75.5389 90.1381 74.459 90.1381H25.5414C24.4615 90.1381 23.583 89.2596 23.583 88.1797V26.8194C23.583 26.2799 23.1459 25.8428 22.6064 25.8428C22.067 25.8428 21.6299 26.2799 21.6299 26.8194V88.1797C21.6299 90.3366 23.3846 92.0913 25.5414 92.0913H74.4592C76.616 92.0913 78.3707 90.3366 78.3707 88.1797V14.9499C78.3707 12.793 76.6158 11.0383 74.459 11.0383Z" fill="#4582EC"/>
<path d="M58.6482 44.4177C58.4627 44.196 58.1885 44.0681 57.8994 44.0681H46.4566L45.8273 42.1212C45.6971 41.7183 45.3217 41.4451 44.898 41.4451H42.1006C41.5611 41.4451 41.124 41.8822 41.124 42.4216C41.124 42.9611 41.5611 43.3982 42.1006 43.3982H44.1875L46.5586 50.733H46.3906C45.8512 50.733 45.4141 51.1701 45.4141 51.7095C45.4141 52.249 45.8512 52.6861 46.3906 52.6861H56.7098C57.183 52.6861 57.5879 52.347 57.6711 51.8812L58.8609 45.2164C58.9117 44.9318 58.8338 44.6394 58.6482 44.4177ZM55.892 50.733H48.6113L47.0881 46.0212H56.7332L55.892 50.733Z" fill="#4582EC"/>
<path d="M48.4818 58.6834C47.0805 58.6834 45.9404 57.5434 45.9404 56.142C45.9404 54.7406 47.0805 53.6006 48.4818 53.6006C49.8832 53.6006 51.0234 54.7406 51.0234 56.142C51.0234 57.5434 49.883 58.6834 48.4818 58.6834ZM48.4818 55.5541C48.1574 55.5541 47.8936 55.818 47.8936 56.1424C47.8936 56.4668 48.1574 56.7307 48.4818 56.7307C48.8062 56.7307 49.0703 56.4668 49.0703 56.1424C49.0703 55.818 48.8062 55.5541 48.4818 55.5541Z" fill="#4582EC"/>
<path d="M55.7738 58.6834C54.3725 58.6834 53.2324 57.5434 53.2324 56.142C53.2324 54.7406 54.3725 53.6006 55.7738 53.6006C57.1752 53.6006 58.3152 54.7406 58.3152 56.142C58.3152 57.5434 57.1752 58.6834 55.7738 58.6834ZM55.7738 55.5541C55.4494 55.5541 55.1855 55.818 55.1855 56.1424C55.1855 56.4668 55.4494 56.7307 55.7738 56.7307C56.0982 56.7307 56.3621 56.4668 56.3621 56.1424C56.3621 55.818 56.0984 55.5541 55.7738 55.5541Z" fill="#4582EC"/>
<path d="M46.0799 79.3941H63.675C64.2283 79.3941 64.6768 78.9457 64.6768 78.3924C64.6768 77.8391 64.2283 77.3906 63.675 77.3906H46.0799C45.5266 77.3906 45.0781 77.8391 45.0781 78.3924C45.0781 78.9457 45.5266 79.3941 46.0799 79.3941Z" fill="#4582EC"/>
<path d="M36.3255 79.3941H41.1313C41.6847 79.3941 42.1331 78.9457 42.1331 78.3924C42.1331 77.8391 41.6847 77.3906 41.1313 77.3906H36.3255C35.7722 77.3906 35.3237 77.8391 35.3237 78.3924C35.3237 78.9457 35.7724 79.3941 36.3255 79.3941Z" fill="#4582EC"/>
<path d="M36.3255 83.3675H63.6753C64.2286 83.3675 64.677 82.9191 64.677 82.3658C64.677 81.8125 64.2286 81.364 63.6753 81.364H36.3255C35.7722 81.364 35.3237 81.8125 35.3237 82.3658C35.3237 82.9191 35.7724 83.3675 36.3255 83.3675Z" fill="#4582EC"/>
<path d="M15.9153 28.0364C15.6655 28.0364 15.4153 27.9411 15.2248 27.7503L13.0776 25.603C12.6961 25.2218 12.6961 24.6034 13.0776 24.2222L15.2248 22.0749C15.6059 21.6935 16.2247 21.6935 16.6057 22.0749L18.753 24.2222C19.1344 24.6034 19.1344 25.2218 18.753 25.603L16.6059 27.7503C16.4153 27.9411 16.1653 28.0364 15.9153 28.0364ZM15.1493 24.9126L15.9155 25.6788L16.6817 24.9126L15.9155 24.1464L15.1493 24.9126Z" fill="#8FB4F4"/>
<path d="M83.6887 56.0433C83.4389 56.0433 83.1887 55.9479 82.9983 55.7571L80.851 53.6099C80.4696 53.2286 80.4696 52.6102 80.851 52.229L82.9983 50.0817C83.3793 49.7003 83.9981 49.7003 84.3791 50.0817L86.5264 52.229C86.9079 52.6102 86.9079 53.2286 86.5264 53.6099L84.3791 55.7571C84.1887 55.9479 83.9387 56.0433 83.6887 56.0433ZM82.9227 52.9194L83.6889 53.6856L84.4551 52.9194L83.6889 52.1532L82.9227 52.9194Z" fill="#8FB4F4"/>
<path d="M87.7971 67.8638C87.5473 67.8638 87.2971 67.7685 87.1067 67.5777L84.9594 65.4304C84.578 65.0492 84.578 64.4308 84.9594 64.0496L87.1067 61.9023C87.4877 61.5208 88.1065 61.5208 88.4875 61.9023L90.6348 64.0496C91.0162 64.4308 91.0162 65.0492 90.6348 65.4304L88.4875 67.5777C88.2971 67.7685 88.0471 67.8638 87.7971 67.8638ZM87.0311 64.74L87.7973 65.5062L88.5635 64.74L87.7973 63.9738L87.0311 64.74Z" fill="#8FB4F4"/>
<path d="M12.2036 61.1687C11.6642 61.1687 11.2271 60.7316 11.2271 60.1921C11.2271 59.5464 10.7019 59.0212 10.0562 59.0212C9.5167 59.0212 9.07959 58.5841 9.07959 58.0447C9.07959 57.5052 9.5167 57.0681 10.0562 57.0681C10.7019 57.0681 11.2271 56.5429 11.2271 55.8972C11.2271 55.3578 11.6642 54.9207 12.2036 54.9207C12.7431 54.9207 13.1802 55.3578 13.1802 55.8972C13.1802 56.5429 13.7054 57.0681 14.3511 57.0681C14.8905 57.0681 15.3276 57.5052 15.3276 58.0447C15.3276 58.5841 14.8905 59.0212 14.3511 59.0212C13.7054 59.0212 13.1802 59.5464 13.1802 60.1921C13.1802 60.7314 12.7431 61.1687 12.2036 61.1687Z" fill="#8FB4F4"/>
</g>
<defs>
<linearGradient id="paint0_linear_2:1316" x1="-1.29829" y1="29.5741" x2="108.195" y2="58.6165" gradientUnits="userSpaceOnUse">
<stop stop-color="#9BC0FF" stop-opacity="0"/>
<stop offset="1" stop-color="white"/>
</linearGradient>
<clipPath id="clip0_2:1316">
<rect width="100" height="100" fill="white"/>
</clipPath>
</defs>
</svg>
