<svg width="100" height="100" viewBox="0 0 100 100" fill="none" xmlns="http://www.w3.org/2000/svg">
<g opacity="0.5" clip-path="url(#clip0_2:1407)">
<path d="M60.562 17.4517C56.3762 7.1648 46.251 -0.0723065 34.4434 0.000545061C19.3801 0.0933185 6.99517 12.2435 6.62954 27.3025C6.44927 34.7322 9.16431 41.5254 13.726 46.6351C17.3626 50.7086 19.1876 56.0736 19.0036 61.5312C18.9792 62.2566 18.9754 62.9873 18.9934 63.7226C19.4747 83.5273 36.3932 100.012 56.2038 100C76.7375 99.9877 93.3795 83.3379 93.3795 62.8013C93.3795 47.7478 84.4374 34.7841 71.5754 28.9296C66.5625 26.6478 62.6377 22.5533 60.562 17.4517Z" fill="url(#paint0_linear_2:1407)"/>
<path opacity="0.1" d="M90.1552 11.7974H56.1968C54.2612 11.7974 52.6921 13.3665 52.6921 15.3021V45.673H47.3081V15.3022C47.3081 13.3665 45.739 11.7976 43.8034 11.7976H9.84502C7.90947 11.7976 6.34033 13.3667 6.34033 15.3022V76.4946C6.34033 78.4302 7.90947 79.9993 9.84502 79.9993H43.8034C45.739 79.9993 47.3081 78.4302 47.3081 76.4946V64.1472H52.6921V76.4946C52.6921 78.4302 54.2612 79.9993 56.1968 79.9993H90.1552C92.0909 79.9993 93.6601 78.4302 93.6601 76.4946V15.3022C93.6599 13.3665 92.0907 11.7974 90.1552 11.7974Z" fill="#4582EC"/>
<path d="M90.1555 84.1009H56.1971C54.2615 84.1009 52.6924 82.5318 52.6924 80.5962V19.4039C52.6924 17.4683 54.2615 15.8992 56.1971 15.8992H90.1555C92.091 15.8992 93.6602 17.4683 93.6602 19.4039V80.5962C93.6602 82.5318 92.091 84.1009 90.1555 84.1009Z" fill="#8FB4F4"/>
<path d="M93.6606 57.5527V80.5957C93.6606 82.5312 92.0903 84.1016 90.1548 84.1016H56.1978C54.2622 84.1016 52.6919 82.5312 52.6919 80.5957V57.5527H93.6606Z" fill="white"/>
<path d="M84.206 20.7052L85.7712 15.8989H60.5815L62.1468 20.7052C62.3735 21.4011 63.0222 21.8722 63.7542 21.8722H82.5983C83.3304 21.8722 83.9792 21.4011 84.206 20.7052Z" fill="white"/>
<path d="M43.8032 84.1009H9.84502C7.90947 84.1009 6.34033 82.5318 6.34033 80.5962V19.4039C6.34033 17.4683 7.90947 15.8992 9.84502 15.8992H43.8034C45.739 15.8992 47.3081 17.4683 47.3081 19.4039V80.5962C47.3081 82.5318 45.739 84.1009 43.8032 84.1009Z" fill="#8FB4F4"/>
<path d="M47.3091 57.5527V80.5957C47.3091 82.5312 45.7388 84.1016 43.8032 84.1016H9.84619C7.91064 84.1016 6.34033 82.5312 6.34033 80.5957V57.5527H47.3091Z" fill="white"/>
<path d="M26.8248 47.9858C32.7546 47.9858 37.5617 43.1787 37.5617 37.2489C37.5617 31.319 32.7546 26.512 26.8248 26.512C20.895 26.512 16.0879 31.319 16.0879 37.2489C16.0879 43.1787 20.895 47.9858 26.8248 47.9858Z" fill="white"/>
<path d="M73.1759 47.9858C79.1057 47.9858 83.9128 43.1787 83.9128 37.2489C83.9128 31.319 79.1057 26.512 73.1759 26.512C67.2461 26.512 62.439 31.319 62.439 37.2489C62.439 43.1787 67.2461 47.9858 73.1759 47.9858Z" fill="white"/>
<path d="M37.8537 20.7052L39.4189 15.8989H14.2295L15.7947 20.7052C16.0215 21.4011 16.6701 21.8722 17.4021 21.8722H36.2463C36.9783 21.8722 37.6272 21.4011 37.8537 20.7052Z" fill="white"/>
<path d="M25.2684 41.1612H24.227C22.9559 41.1612 21.9219 40.1272 21.9219 38.8561V35.6418C21.9219 34.3707 22.9559 33.3365 24.227 33.3365H25.2684C26.5395 33.3365 27.5736 34.3707 27.5736 35.6418V38.8561C27.5736 40.1272 26.5395 41.1612 25.2684 41.1612ZM24.2271 35.2897C24.033 35.2897 23.8752 35.4477 23.8752 35.6418V38.8561C23.8752 39.0502 24.0332 39.208 24.2271 39.208H25.2686C25.4627 39.208 25.6207 39.05 25.6207 38.8561V35.6418C25.6207 35.4477 25.4627 35.2897 25.2686 35.2897H24.2271Z" fill="#4582EC"/>
<path d="M30.8968 41.1612C30.3575 41.1612 29.9202 40.7239 29.9202 40.1846V35.2897H29.8335C29.2942 35.2897 28.8569 34.8524 28.8569 34.3131C28.8569 33.7739 29.2942 33.3365 29.8335 33.3365H30.8968C31.436 33.3365 31.8733 33.7739 31.8733 34.3131V40.1846C31.8733 40.7239 31.436 41.1612 30.8968 41.1612Z" fill="#4582EC"/>
<path d="M70.3104 41.1612H69.2691C67.998 41.1612 66.9639 40.1272 66.9639 38.8561V35.6418C66.9639 34.3707 67.998 33.3365 69.2691 33.3365H70.3104C71.5814 33.3365 72.6156 34.3707 72.6156 35.6418V38.8561C72.6156 40.1272 71.5814 41.1612 70.3104 41.1612ZM69.2691 35.2897C69.075 35.2897 68.917 35.4477 68.917 35.6418V38.8561C68.917 39.0502 69.075 39.208 69.2691 39.208H70.3104C70.5045 39.208 70.6625 39.05 70.6625 38.8561V35.6418C70.6625 35.4477 70.5045 35.2897 70.3104 35.2897H69.2691Z" fill="#4582EC"/>
<path d="M78.4117 41.0752H74.875C74.4605 41.0752 74.0914 40.8137 73.9539 40.4227C73.8164 40.0317 73.9406 39.5965 74.2637 39.3369C75.2486 38.5461 76.7727 37.1004 77.0773 36.3629C77.1945 36.0795 77.176 35.7668 77.0291 35.5471C76.9148 35.3762 76.7449 35.2897 76.5238 35.2897C76.1531 35.2897 75.8516 35.5912 75.8516 35.9619C75.8516 36.5012 75.4145 36.9385 74.875 36.9385C74.3355 36.9385 73.8984 36.5012 73.8984 35.9619C73.8984 34.5143 75.0762 33.3365 76.5238 33.3365C77.3986 33.3365 78.1746 33.7465 78.6525 34.4615C79.165 35.2278 79.2508 36.2174 78.8824 37.109C78.618 37.7485 78.0234 38.4754 77.3992 39.1221H78.4117C78.9512 39.1221 79.3883 39.5594 79.3883 40.0987C79.3883 40.6379 78.951 41.0752 78.4117 41.0752Z" fill="#4582EC"/>
<path d="M37.233 58.299H16.4154C15.8752 58.299 15.4375 57.8611 15.4375 57.3211C15.4375 56.781 15.8752 56.3431 16.4154 56.3431H37.233C37.7732 56.3431 38.2109 56.781 38.2109 57.3211C38.2109 57.8611 37.7732 58.299 37.233 58.299Z" fill="#4582EC"/>
<path d="M31.3736 53.0676H22.2748C21.7346 53.0676 21.2969 52.6297 21.2969 52.0896C21.2969 51.5496 21.7346 51.1117 22.2748 51.1117H31.3736C31.9139 51.1117 32.3515 51.5496 32.3515 52.0896C32.3515 52.6297 31.9139 53.0676 31.3736 53.0676Z" fill="#4582EC"/>
<path d="M37.233 61.7725H16.4154C15.8752 61.7725 15.4375 61.3346 15.4375 60.7946C15.4375 60.2545 15.8752 59.8167 16.4154 59.8167H37.233C37.7732 59.8167 38.2109 60.2545 38.2109 60.7946C38.2109 61.3346 37.7732 61.7725 37.233 61.7725Z" fill="#4582EC"/>
<path d="M37.233 65.246H16.4154C15.8752 65.246 15.4375 64.8081 15.4375 64.2681C15.4375 63.7281 15.8752 63.2902 16.4154 63.2902H37.233C37.7732 63.2902 38.2109 63.7281 38.2109 64.2681C38.2109 64.8081 37.7732 65.246 37.233 65.246Z" fill="#4582EC"/>
<path d="M83.5849 58.299H62.7675C62.2272 58.299 61.7896 57.8611 61.7896 57.3211C61.7896 56.781 62.2272 56.3431 62.7675 56.3431H83.585C84.1253 56.3431 84.563 56.781 84.563 57.3211C84.563 57.8611 84.1251 58.299 83.5849 58.299Z" fill="#4582EC"/>
<path d="M77.7257 53.0676H68.6269C68.0866 53.0676 67.6489 52.6297 67.6489 52.0896C67.6489 51.5496 68.0866 51.1117 68.6269 51.1117H77.7257C78.2659 51.1117 78.7036 51.5496 78.7036 52.0896C78.7036 52.6297 78.2659 53.0676 77.7257 53.0676Z" fill="#4582EC"/>
<path d="M83.5849 61.7725H62.7675C62.2272 61.7725 61.7896 61.3346 61.7896 60.7946C61.7896 60.2545 62.2272 59.8167 62.7675 59.8167H83.585C84.1253 59.8167 84.563 60.2545 84.563 60.7946C84.563 61.3346 84.1251 61.7725 83.5849 61.7725Z" fill="#4582EC"/>
<path d="M83.5849 65.246H62.7675C62.2272 65.246 61.7896 64.8081 61.7896 64.2681C61.7896 63.7281 62.2272 63.2902 62.7675 63.2902H83.585C84.1253 63.2902 84.563 63.7281 84.563 64.2681C84.563 64.8081 84.1251 65.246 83.5849 65.246Z" fill="#4582EC"/>
<path d="M60.2899 68.2485H39.7099C38.8985 68.2485 38.2407 67.5907 38.2407 66.7794V51.2438C38.2407 50.4325 38.8985 49.7747 39.7099 49.7747H60.2899C61.1013 49.7747 61.7591 50.4325 61.7591 51.2438V66.7794C61.7591 67.5907 61.1013 68.2485 60.2899 68.2485Z" fill="white"/>
<path d="M90.1554 14.9224H85.7712C85.3483 14.9224 84.9735 15.1944 84.8427 15.5966L83.2772 20.4028C83.1812 20.6976 82.9083 20.8956 82.5983 20.8956H63.7542C63.444 20.8956 63.1714 20.6976 63.0751 20.4028L61.9265 16.8755H80.3919C80.9313 16.8755 81.3685 16.4382 81.3685 15.8989C81.3685 15.3597 80.9313 14.9224 80.3919 14.9224H56.197C53.7261 14.9224 51.7157 16.9327 51.7157 19.4038V48.7981H39.7103C38.3616 48.7981 37.2646 49.8952 37.2646 51.2438V66.7794C37.2646 68.128 38.3616 69.2251 39.7103 69.2251H46.3317V80.596C46.3317 81.9901 45.1976 83.1241 43.8036 83.1241H9.84522C8.45107 83.1241 7.31689 81.99 7.31689 80.596V19.4038C7.31689 18.0097 8.45107 16.8755 9.84522 16.8755H13.5204L14.8661 21.0075C15.2247 22.1089 16.244 22.8487 17.4021 22.8487H36.2462C37.4044 22.8487 38.4235 22.1089 38.7821 21.0075L40.1278 16.8755H43.803C45.1972 16.8755 46.3312 18.0097 46.3312 19.4038V44.3956C46.3312 44.9349 46.7685 45.3722 47.3077 45.3722C47.847 45.3722 48.2843 44.9349 48.2843 44.3956V19.4038C48.2843 16.9327 46.2739 14.9224 43.803 14.9224H9.84522C7.37412 14.9224 5.36377 16.9327 5.36377 19.4038V80.5962C5.36377 83.0671 7.37412 85.0774 9.84522 85.0774H43.8034C46.2743 85.0774 48.2847 83.0671 48.2847 80.5962V69.2253H51.7155V80.5962C51.7155 83.0671 53.7259 85.0774 56.1968 85.0774H90.155C92.6261 85.0774 94.6364 83.0671 94.6364 80.5962V19.4038C94.6368 16.9327 92.6265 14.9224 90.1554 14.9224ZM36.9253 20.4026C36.8294 20.6974 36.5565 20.8954 36.2464 20.8954H17.4022C17.0923 20.8954 16.8194 20.6974 16.7233 20.4026L15.5745 16.8753H38.0739L36.9253 20.4026ZM39.2177 66.7794V51.2438C39.2177 50.9722 39.4386 50.7513 39.7103 50.7513H60.2905C60.5622 50.7513 60.7829 50.9722 60.7829 51.2438V66.7794C60.7829 67.0511 60.562 67.272 60.2905 67.272H39.7103C39.4386 67.272 39.2177 67.0511 39.2177 66.7794ZM92.6837 80.596C92.6837 81.9901 91.5493 83.1241 90.1554 83.1241H56.197C54.8028 83.1241 53.6688 81.99 53.6688 80.596V69.2251H60.2903C61.6388 69.2251 62.7358 68.128 62.7358 66.7794V51.2438C62.7358 49.8952 61.6388 48.7981 60.2903 48.7981H53.6688V19.4038C53.6688 18.0097 54.803 16.8755 56.197 16.8755H59.8724L61.2181 21.0077C61.5769 22.1089 62.596 22.8487 63.754 22.8487H82.5981C83.7565 22.8487 84.7755 22.1087 85.1339 21.0075L86.4798 16.8755H90.155C91.5491 16.8755 92.6833 18.0097 92.6833 19.4038V80.596H92.6837Z" fill="#4582EC"/>
<path d="M43.2925 56.1333H54.114C54.3538 56.1333 54.5487 56.3282 54.5487 56.5678V57.026C54.2351 56.9581 53.8946 57.0442 53.6507 57.2879C53.2694 57.6694 53.2694 58.2875 53.6509 58.669L54.8349 59.8528C55.0179 60.036 55.2663 60.1387 55.5253 60.1387C55.7843 60.1387 56.0327 60.0358 56.2159 59.8526L57.3997 58.6688C57.781 58.2874 57.781 57.6692 57.3995 57.2877C57.1558 57.044 56.8155 56.9579 56.5019 57.0256V56.5676C56.5019 55.251 55.4308 54.1799 54.114 54.1799H43.2925C42.7532 54.1799 42.3159 54.6172 42.3159 55.1565C42.3159 55.6958 42.753 56.1333 43.2925 56.1333Z" fill="#4582EC"/>
<path d="M56.708 61.8897H45.8868C45.6471 61.8897 45.4522 61.6948 45.4522 61.4551V60.9971C45.5206 61.012 45.5897 61.0211 45.6594 61.0211C45.9092 61.0211 46.1592 60.9258 46.3498 60.7352C46.7313 60.3538 46.7313 59.7356 46.3498 59.3542L45.1661 58.1702C44.9829 57.987 44.7346 57.884 44.4754 57.884C44.2163 57.884 43.968 57.987 43.7848 58.1702L42.601 59.3542C42.2196 59.7356 42.2196 60.3538 42.601 60.7352C42.8448 60.979 43.185 61.0651 43.4987 60.9971V61.4551C43.4987 62.7717 44.5698 63.8428 45.8864 63.8428H56.7078C57.2473 63.8428 57.6844 63.4055 57.6844 62.8663C57.6844 62.327 57.2475 61.8897 56.708 61.8897Z" fill="#4582EC"/>
<path d="M25.6847 79.8179C25.4347 79.8179 25.1849 79.7226 24.9941 79.5317C24.6126 79.1503 24.6126 78.5321 24.9941 78.1507L26.1335 77.0114C26.515 76.6302 27.1333 76.6302 27.5146 77.0114L28.6538 78.1507C29.0353 78.5321 29.0353 79.1505 28.6538 79.5317C28.2724 79.913 27.6542 79.913 27.2728 79.5317L26.824 79.0829L26.3749 79.5317C26.1845 79.7224 25.9345 79.8179 25.6847 79.8179Z" fill="#4582EC"/>
<path d="M74.3153 79.8179C74.0655 79.8179 73.8153 79.7226 73.6247 79.5317L73.1761 79.0831L72.727 79.5319C72.346 79.9132 71.7274 79.9134 71.346 79.5319C70.9647 79.1505 70.9647 78.5323 71.3462 78.1509L72.4856 77.0116C72.6688 76.8284 72.9171 76.7257 73.1761 76.7257C73.435 76.7257 73.6835 76.8286 73.8667 77.0118L75.0059 78.1511C75.3872 78.5325 75.3872 79.1507 75.0058 79.5321C74.8151 79.7224 74.5651 79.8179 74.3153 79.8179Z" fill="#4582EC"/>
<path d="M45.6602 11.519C45.1209 11.519 44.6836 11.0817 44.6836 10.5425C44.6836 9.89678 44.1584 9.37158 43.5127 9.37158C42.9734 9.37158 42.5361 8.93428 42.5361 8.39502C42.5361 7.85576 42.9734 7.41846 43.5127 7.41846C44.1584 7.41846 44.6836 6.89326 44.6836 6.24756C44.6836 5.7083 45.1209 5.271 45.6602 5.271C46.1994 5.271 46.6367 5.7083 46.6367 6.24756C46.6367 6.89326 47.1619 7.41846 47.8076 7.41846C48.3469 7.41846 48.7842 7.85576 48.7842 8.39502C48.7842 8.93428 48.3469 9.37158 47.8076 9.37158C47.1619 9.37158 46.6367 9.89678 46.6367 10.5425C46.6367 11.0817 46.1994 11.519 45.6602 11.519Z" fill="#8FB4F4"/>
<path d="M47.8522 94.7292C47.313 94.7292 46.8757 94.2919 46.8757 93.7527C46.8757 93.107 46.3505 92.5818 45.7046 92.5818C45.1653 92.5818 44.728 92.1445 44.728 91.6052C44.728 91.066 45.1653 90.6287 45.7046 90.6287C46.3503 90.6287 46.8757 90.1035 46.8757 89.4578C46.8757 88.9185 47.313 88.4812 47.8522 88.4812C48.3915 88.4812 48.8288 88.9185 48.8288 89.4578C48.8288 90.1035 49.354 90.6287 49.9997 90.6287C50.5392 90.6287 50.9763 91.066 50.9763 91.6052C50.9763 92.1445 50.5392 92.5818 49.9997 92.5818C49.354 92.5818 48.8288 93.107 48.8288 93.7527C48.8288 94.2919 48.3915 94.7292 47.8522 94.7292Z" fill="#8FB4F4"/>
<path d="M63.9372 92.5815C63.3978 92.5815 62.9606 92.1442 62.9606 91.605C62.9606 90.9593 62.4355 90.4341 61.7896 90.4341C61.2501 90.4341 60.813 89.9968 60.813 89.4575C60.813 88.9183 61.2501 88.481 61.7896 88.481C62.4355 88.481 62.9606 87.9558 62.9606 87.3101C62.9606 86.7708 63.3978 86.3335 63.9372 86.3335C64.4767 86.3335 64.9138 86.7708 64.9138 87.3101C64.9138 87.9558 65.4388 88.481 66.0845 88.481C66.6239 88.481 67.0611 88.9183 67.0611 89.4575C67.0611 89.9968 66.6239 90.4341 66.0845 90.4341C65.4388 90.4341 64.9138 90.9593 64.9138 91.605C64.9138 92.1442 64.4767 92.5815 63.9372 92.5815Z" fill="#8FB4F4"/>
<path d="M74.2553 12.6884C74.0364 12.6884 73.8161 12.6152 73.6338 12.4648L71.2926 10.5308C71.093 10.3658 70.967 10.1283 70.9424 9.87045C70.9178 9.61264 70.9967 9.35561 71.1617 9.1558L73.0957 6.81459C73.4391 6.39897 74.0543 6.33999 74.4705 6.68374L76.8118 8.61772C77.0114 8.78276 77.1374 9.02026 77.162 9.27807C77.1866 9.53588 77.1077 9.79291 76.9426 9.99271L75.0086 12.3339C74.8157 12.5675 74.5368 12.6884 74.2553 12.6884ZM73.2895 9.64701L74.1248 10.3371L74.8151 9.5015L73.9797 8.81147L73.2895 9.64701Z" fill="#8FB4F4"/>
</g>
<defs>
<linearGradient id="paint0_linear_2:1407" x1="11.4581" y1="16.6667" x2="99.8795" y2="69.5825" gradientUnits="userSpaceOnUse">
<stop stop-color="#98BEFF" stop-opacity="0"/>
<stop offset="1" stop-color="#FBFCFF"/>
</linearGradient>
<clipPath id="clip0_2:1407">
<rect width="100" height="100" fill="white"/>
</clipPath>
</defs>
</svg>
