<svg width="115" height="29" viewBox="0 0 115 29" fill="none" xmlns="http://www.w3.org/2000/svg">
<g clip-path="url(#clip0_2:399)">
<path d="M14.1767 0C11.3728 0 8.6319 0.850044 6.30055 2.44264C3.96921 4.03523 2.15214 6.29885 1.07914 8.94724C0.00614256 11.5956 -0.274603 14.5098 0.272408 17.3213C0.819418 20.1329 2.16962 22.7154 4.15226 24.7424C6.13491 26.7694 8.66096 28.1498 11.411 28.709C14.161 29.2683 17.0114 28.9812 19.6019 27.8842C22.1923 26.7872 24.4064 24.9295 25.9642 22.5461C27.5219 20.1626 28.3534 17.3603 28.3534 14.4938C28.3529 10.6499 26.8592 6.96365 24.2006 4.24565C21.5421 1.52764 17.9365 0.000473117 14.1767 0V0ZM14.1767 25.4743C12.0525 25.4743 9.97595 24.8303 8.20971 23.6237C6.44348 22.4172 5.06687 20.7022 4.25397 18.6958C3.44106 16.6894 3.22837 14.4816 3.64278 12.3516C4.0572 10.2216 5.08011 8.26502 6.58217 6.72937C8.08423 5.19372 9.99796 4.14793 12.0814 3.72425C14.1648 3.30056 16.3243 3.51801 18.2868 4.3491C20.2494 5.18019 21.9268 6.58758 23.1069 8.39332C24.2871 10.1991 24.917 12.322 24.917 14.4938C24.9142 17.4051 23.7818 20.1964 21.7682 22.255C19.7546 24.3136 17.0244 25.4714 14.1767 25.4743Z" fill="#F0F1F2"/>
<path d="M12.4575 16.6126C12.9298 17.0459 13.542 17.2855 14.1766 17.2855C14.8111 17.2855 15.4233 17.0459 15.8956 16.6126V12.4017C15.4239 11.9674 14.8115 11.727 14.1766 11.727C13.5417 11.727 12.9293 11.9674 12.4575 12.4017V16.6126ZM14.1766 7.04173C13.2182 7.04167 12.2692 7.23486 11.384 7.61022C10.4988 7.98559 9.69461 8.53577 9.01761 9.22926L11.4435 11.713C12.1681 10.9722 13.1509 10.556 14.1757 10.556C15.2005 10.556 16.1833 10.9722 16.9079 11.713L19.3373 9.22926C18.66 8.53518 17.8553 7.98466 16.9694 7.60926C16.0835 7.23387 15.1338 7.04101 14.1748 7.04173H14.1766ZM16.9114 17.3085C16.5527 17.6755 16.1268 17.9667 15.658 18.1653C15.1892 18.364 14.6867 18.4662 14.1792 18.4662C13.6717 18.4662 13.1692 18.364 12.7004 18.1653C12.2316 17.9667 11.8057 17.6755 11.447 17.3085L9.0211 19.7851C9.6986 20.4784 10.5031 21.0283 11.3886 21.4035C12.2741 21.7788 13.2233 21.9719 14.1818 21.9719C15.1404 21.9719 16.0895 21.7788 16.975 21.4035C17.8605 21.0283 18.665 20.4784 19.3425 19.7851L16.9114 17.3085ZM14.1713 29.0009C14.2323 28.1685 14.018 27.3393 13.5629 26.6463C13.1079 25.9532 12.4383 25.4365 11.6617 25.179H11.6477C9.60297 24.6609 7.75212 23.5402 6.3249 21.9561C4.89769 20.3719 3.95697 18.3942 3.61954 16.2683H10.7402C10.4628 15.7258 10.3179 15.1228 10.3179 14.5107C10.3179 13.8987 10.4628 13.2957 10.7402 12.7532H3.61256C3.88982 10.9805 4.58914 9.30471 5.64893 7.87333C6.70873 6.44195 8.0965 5.29892 9.69004 4.54487C11.2836 3.79083 13.034 3.4489 14.7872 3.5492C16.5404 3.6495 18.2426 4.18895 19.7439 5.12005C20.4618 5.56053 21.3126 5.71715 22.1357 5.56036C22.9587 5.40357 23.6972 4.9442 24.2118 4.26895C22.5647 2.58158 20.5359 1.33563 18.3052 0.641481C16.0745 -0.0526645 13.7108 -0.173567 11.4235 0.289485C9.13614 0.752538 6.99585 1.78525 5.19223 3.29611C3.38861 4.80698 1.97735 6.74935 1.0835 8.95111C0.18965 11.1529 -0.159196 13.5461 0.0678728 15.9186C0.294942 18.2912 1.09092 20.5698 2.38526 22.5527C3.67961 24.5356 5.43238 26.1614 7.48824 27.2862C9.54411 28.411 11.8396 29 14.1713 29.0009Z" fill="#FFBB17"/>
<path d="M36.2799 9.86344V16.1084C35.9048 16.2012 35.5135 16.2012 35.1385 16.1084V9.86344H34.4229C34.3744 9.74304 34.3512 9.61355 34.3549 9.48338C34.3524 9.34926 34.3755 9.21592 34.4229 9.09084H35.1385V8.24687C35.1385 6.96754 35.6621 6.23598 37.0583 6.23598C37.4617 6.23274 37.8637 6.28435 38.2538 6.38943C38.2887 6.5051 38.3075 6.62524 38.3096 6.74629C38.3077 6.86736 38.2889 6.98753 38.2538 7.10315C37.9845 7.0295 37.707 6.99172 37.4283 6.99074C36.5347 6.99074 36.2729 7.38328 36.2729 8.22903V9.09976H38.2538C38.3023 9.22456 38.3261 9.35801 38.3236 9.49231C38.3252 9.62247 38.3015 9.75166 38.2538 9.87236L36.2799 9.86344ZM40.725 10.0062C40.725 10.0062 41.5505 9.0498 43.1684 9.0498C43.2054 9.18266 43.2236 9.32026 43.2225 9.4584C43.223 9.59123 43.2048 9.72343 43.1684 9.85095C42.6887 9.83782 42.2135 9.94828 41.7865 10.1722C41.3595 10.396 40.9945 10.7261 40.725 11.1321V16.1102C40.5393 16.1526 40.3499 16.1759 40.1596 16.1798C39.9651 16.1778 39.7715 16.1544 39.5819 16.1102V9.16043C39.7718 9.11922 39.9655 9.09888 40.1596 9.09976C40.3499 9.10239 40.5395 9.12572 40.725 9.16935V10.0062ZM44.2854 11.2855C44.2854 9.85808 45.0288 9.0498 47.0498 9.0498C49.1145 9.0498 49.7602 9.86522 49.7602 11.2855V12.8914C49.0388 12.9738 48.3132 13.0113 47.5874 13.0038H45.4302V13.9887C45.4302 14.9879 45.8578 15.4518 47.2453 15.4518C48.6886 15.4518 49.556 14.9611 49.556 14.9611C49.6122 15.0839 49.6402 15.2182 49.6381 15.3537C49.6392 15.4851 49.6111 15.615 49.556 15.7337C49.556 15.7337 48.7707 16.2262 47.2453 16.2262C45.0847 16.2262 44.2871 15.4108 44.2871 13.9905L44.2854 11.2855ZM48.6747 12.2276V11.2855C48.6747 10.2863 48.2907 9.8224 47.0516 9.8224C45.8125 9.8224 45.4285 10.2863 45.4285 11.2855V12.2276H48.6747ZM51.2891 11.2855C51.2891 9.85808 52.0308 9.0498 54.0535 9.0498C56.1164 9.0498 56.7639 9.86522 56.7639 11.2855V12.8914C56.042 12.9738 55.3158 13.0114 54.5893 13.0038H52.4305V13.9887C52.4305 14.9879 52.8563 15.4518 54.2455 15.4518C55.6906 15.4518 56.5562 14.9611 56.5562 14.9611C56.6138 15.0835 56.6425 15.2179 56.64 15.3537C56.6411 15.4853 56.6124 15.6153 56.5562 15.7337C56.5562 15.7337 55.7709 16.2262 54.2455 16.2262C52.0866 16.2262 51.2891 15.4108 51.2891 13.9905V11.2855ZM55.6749 12.2258V11.2837C55.6749 10.2845 55.2909 9.82061 54.0518 9.82061C52.8127 9.82061 52.4287 10.2845 52.4287 11.2837V12.2258H55.6749ZM60.5756 15.4054C60.6131 15.5205 60.6319 15.641 60.6314 15.7623C60.6322 15.8772 60.6133 15.9913 60.5756 16.0995C60.3464 16.1852 60.104 16.2281 59.86 16.2262C58.8303 16.2262 58.4463 15.6499 58.4463 14.6507V6.34839C58.8211 6.25319 59.213 6.25319 59.5877 6.34839V14.6453C59.5877 15.1931 59.7518 15.4483 60.2335 15.4483C60.3489 15.4425 60.4637 15.4287 60.5773 15.4072L60.5756 15.4054ZM65.9719 15.5482C65.9719 15.5482 65.1464 16.2226 63.5931 16.2226C62.2178 16.2226 61.6943 15.5339 61.6943 14.3242V14.1136C61.6943 12.9895 62.3924 12.3828 64.1725 12.1866L65.9719 11.9903V11.2052C65.9719 10.2774 65.5879 9.82775 64.4186 9.82775C63.2772 9.82775 62.9055 10.2631 62.9055 11.1767V11.3551C62.7294 11.3987 62.5491 11.4221 62.3679 11.4247C62.1827 11.4227 61.9983 11.3993 61.8182 11.3551V11.1767C61.8182 9.82775 62.4238 9.05337 64.4186 9.05337C66.3855 9.05337 67.1011 9.82775 67.1011 11.2052V16.112C66.9161 16.1556 66.7271 16.1789 66.5373 16.1816C66.3469 16.1803 66.1572 16.157 65.9719 16.112V15.5482ZM64.3628 12.9324C63.2074 13.0573 62.8357 13.4499 62.8357 14.1136V14.3242C62.8357 15.0843 63.1114 15.4483 64.005 15.4483C65.4221 15.4483 65.9719 14.7595 65.9719 14.7595V12.7326L64.3628 12.9324ZM69.9598 9.72605C69.9598 9.72605 70.7713 9.05159 72.2845 9.05159C73.7976 9.05159 74.3491 9.86344 74.3491 11.2837V16.1013C74.1595 16.1455 73.9659 16.1688 73.7714 16.1709C73.5816 16.1684 73.3926 16.145 73.2077 16.1013V11.2837C73.2077 10.2845 72.904 9.82061 71.9162 9.82061C70.4991 9.82061 69.9615 10.5093 69.9615 10.5093V16.1067C69.7758 16.149 69.5863 16.1723 69.3961 16.1762C69.2016 16.1742 69.008 16.1509 68.8184 16.1067V9.16043C69.008 9.11622 69.2016 9.09289 69.3961 9.09084C69.5864 9.09347 69.776 9.1168 69.9615 9.16043L69.9598 9.72605ZM75.9984 11.2855C75.9984 9.85808 76.7279 9.0498 78.6948 9.0498C80.6617 9.0498 81.2952 9.86522 81.2952 11.2855V11.4639C81.124 11.5083 80.9482 11.5316 80.7716 11.5335C80.6002 11.531 80.4298 11.5076 80.2638 11.4639V11.2855C80.2638 10.2863 79.892 9.8224 78.693 9.8224C77.494 9.8224 77.1398 10.2863 77.1398 11.2855V13.9869C77.1398 14.9861 77.5534 15.45 78.885 15.45C80.2638 15.45 81.084 14.9594 81.084 14.9594C81.1416 15.0817 81.1702 15.2162 81.1678 15.3519C81.1689 15.4835 81.1402 15.6136 81.084 15.732C81.084 15.732 80.3423 16.2244 78.885 16.2244C76.7802 16.2244 75.9966 15.409 75.9966 13.9887L75.9984 11.2855Z" fill="#88888C"/>
<path d="M82.7113 11.2838C82.7113 9.85638 83.4548 9.0481 85.4758 9.0481C87.5404 9.0481 88.1861 9.86352 88.1861 11.2838V12.8897C87.4648 12.9721 86.7391 13.0096 86.0133 13.0021H83.8527V13.987C83.8527 14.9862 84.2803 15.4501 85.6677 15.4501C87.1111 15.4501 87.9785 14.9594 87.9785 14.9594C88.0346 15.0822 88.0627 15.2165 88.0605 15.352C88.0616 15.4834 88.0336 15.6133 87.9785 15.732C87.9785 15.732 87.1931 16.2245 85.6677 16.2245C83.5071 16.2245 82.7095 15.4091 82.7095 13.9888L82.7113 11.2838ZM87.0989 12.2259V11.2838C87.0989 10.2846 86.7149 9.82069 85.4758 9.82069C84.2366 9.82069 83.8527 10.2846 83.8527 11.2838V12.2259H87.0989ZM91.0082 9.72434C91.0082 9.72434 91.8198 9.04988 93.3189 9.04988C94.8181 9.04988 95.3556 9.8653 95.3556 11.2856V16.1032C95.1661 16.1474 94.9724 16.1707 94.778 16.1728C94.5882 16.1702 94.3992 16.1469 94.2143 16.1032V11.2856C94.2143 10.2864 93.9106 9.82248 92.9472 9.82248C91.551 9.82248 91.01 10.5112 91.01 10.5112V16.1085C90.8248 16.151 90.636 16.1743 90.4462 16.1781C90.2518 16.1761 90.0581 16.1527 89.8686 16.1085V6.34847C90.058 6.30315 90.2517 6.27922 90.4462 6.2771C90.6361 6.27992 90.8251 6.30385 91.01 6.34847L91.0082 9.72434ZM101.384 15.5465C101.384 15.5465 100.572 16.2209 99.087 16.2209C97.6018 16.2209 97.0363 15.4055 97.0363 13.9852V9.16764C97.2259 9.12344 97.4196 9.10011 97.614 9.09806C97.8038 9.1006 97.9928 9.12392 98.1777 9.16764V13.9852C98.1777 14.9844 98.4814 15.4483 99.443 15.4483C100.839 15.4483 101.384 14.7596 101.384 14.7596V9.16051C101.569 9.11808 101.758 9.09477 101.947 9.09092C102.142 9.09297 102.336 9.1163 102.525 9.16051V16.1085C102.336 16.1527 102.142 16.1761 101.947 16.1781C101.758 16.1756 101.569 16.1522 101.384 16.1085V15.5465ZM105.345 9.72434C105.345 9.72434 106.157 9.04988 107.67 9.04988C109.183 9.04988 109.733 9.8653 109.733 11.2856V16.1032C109.358 16.196 108.967 16.196 108.592 16.1032V11.2856C108.592 10.2864 108.29 9.82248 107.3 9.82248C105.883 9.82248 105.345 10.5112 105.345 10.5112V16.1085C105.16 16.1508 104.971 16.1741 104.782 16.1781C104.587 16.1762 104.394 16.1529 104.204 16.1085V9.16051C104.579 9.0677 104.97 9.0677 105.345 9.16051V9.72434ZM112.993 9.89207V14.21C112.993 15.054 113.281 15.4466 114.176 15.4466C114.434 15.4401 114.689 15.3932 114.932 15.3074C115.007 15.5349 115.007 15.7811 114.932 16.0086C114.57 16.1397 114.189 16.2114 113.805 16.2209C112.395 16.2191 111.871 15.4876 111.871 14.21V9.89207H111.155C111.108 9.77129 111.084 9.64215 111.086 9.51201C111.083 9.37772 111.107 9.24427 111.155 9.11947H111.923L112.033 7.75449C112.348 7.66208 112.682 7.66208 112.997 7.75449V9.11947H114.934C114.982 9.24427 115.006 9.37772 115.004 9.51201C115.005 9.64215 114.981 9.77129 114.934 9.89207H112.993ZM34.3521 19.5272H34.7011L34.7953 19.9126H34.8215C34.9136 19.7661 35.0426 19.6478 35.195 19.57C35.3576 19.4877 35.5372 19.4467 35.7186 19.4505C35.8926 19.437 36.0674 19.464 36.2297 19.5295C36.3921 19.595 36.5377 19.6973 36.6558 19.8288C36.8606 20.0821 36.9629 20.4955 36.9629 21.0688C36.9659 21.3161 36.9312 21.5623 36.86 21.7986C36.7985 21.9997 36.6988 22.1864 36.5668 22.3482C36.442 22.4967 36.2864 22.615 36.1113 22.6943C35.9243 22.7778 35.7219 22.8191 35.5179 22.8157C35.3951 22.8187 35.2723 22.8091 35.1514 22.7871C35.0504 22.7646 34.9521 22.7311 34.8582 22.6872V24.0254H34.3555L34.3521 19.5272ZM35.6209 19.9019C35.4367 19.8941 35.2565 19.9579 35.1165 20.0803C34.9789 20.2209 34.8874 20.4017 34.8547 20.5978V22.1912C34.9322 22.2522 35.0196 22.2987 35.113 22.3285C35.2372 22.3645 35.3661 22.3807 35.4952 22.3767C35.629 22.3833 35.7623 22.3567 35.8839 22.2992C36.0054 22.2418 36.1116 22.1551 36.1933 22.0466C36.3809 21.7602 36.47 21.4181 36.4464 21.0742C36.448 20.9131 36.4334 20.7522 36.4027 20.5942C36.3771 20.4675 36.3292 20.3466 36.2614 20.2374C36.1985 20.1388 36.112 20.0583 36.01 20.0036C35.8908 19.9367 35.7569 19.9017 35.6209 19.9019ZM37.6977 19.7645C37.8701 19.6606 38.0582 19.587 38.2544 19.5468C38.4718 19.4992 38.6936 19.4753 38.9159 19.4755C39.0947 19.4687 39.2729 19.4996 39.4395 19.5665C39.5586 19.6156 39.6629 19.6962 39.7414 19.8002C39.809 19.8948 39.856 20.0031 39.8793 20.1178C39.9027 20.2353 39.9144 20.3548 39.9142 20.4747L39.8967 21.2241C39.8793 21.4685 39.8793 21.6987 39.8793 21.9199L39.8967 22.3696C39.9071 22.5019 39.9305 22.6328 39.9665 22.7603H39.5948L39.4639 22.3107H39.4464C39.4056 22.3751 39.3583 22.4349 39.3051 22.4891C39.2444 22.5504 39.1757 22.6026 39.1009 22.6444C39.0127 22.6922 38.9197 22.7299 38.8234 22.7568C38.7095 22.7876 38.5921 22.8026 38.4743 22.8014C38.3471 22.8026 38.2207 22.7808 38.1009 22.7371C37.9906 22.699 37.889 22.6383 37.8024 22.5587C37.7174 22.4787 37.6496 22.3815 37.6035 22.2732C37.5543 22.1535 37.53 22.0248 37.5319 21.895C37.5261 21.7296 37.5654 21.5659 37.6453 21.4221C37.7225 21.294 37.8323 21.1898 37.963 21.1206C38.116 21.0396 38.2811 20.9853 38.4517 20.96C38.6606 20.9265 38.8719 20.9104 39.0834 20.9118H39.258C39.3164 20.9115 39.3747 20.9157 39.4325 20.9243L39.4499 20.5782C39.4677 20.4014 39.4183 20.2245 39.3121 20.0839C39.1689 19.9717 38.9887 19.9206 38.8094 19.9412C38.7323 19.9413 38.6553 19.9473 38.5791 19.959C38.4945 19.9699 38.4106 19.9854 38.3277 20.0054C38.2449 20.0239 38.1633 20.0477 38.0834 20.0768C38.0126 20.1025 37.9443 20.1347 37.8792 20.1731L37.6977 19.7645ZM38.5878 22.341C38.6944 22.3427 38.8005 22.3264 38.9019 22.2929C38.9869 22.2644 39.0675 22.2236 39.141 22.1715C39.2037 22.1252 39.2595 22.0699 39.3068 22.0074C39.3477 21.9531 39.3807 21.893 39.4046 21.8289V21.2937C39.3452 21.2937 39.2859 21.2937 39.23 21.283H39.0555C38.9284 21.2828 38.8014 21.29 38.675 21.3044C38.563 21.3168 38.4532 21.345 38.3487 21.3882C38.2608 21.4244 38.1829 21.482 38.1218 21.5559C38.0641 21.6317 38.0344 21.7259 38.038 21.8218C38.0361 21.8914 38.0492 21.9605 38.0763 22.0244C38.1035 22.0882 38.144 22.1451 38.1951 22.1912C38.3039 22.2905 38.4454 22.344 38.5913 22.341H38.5878ZM41.1568 20.1C41.2696 19.9165 41.428 19.7669 41.6158 19.6664C41.8131 19.5759 42.028 19.5326 42.2441 19.5397C42.4112 19.5297 42.5783 19.5593 42.7324 19.6261C42.8865 19.693 43.0234 19.7953 43.1324 19.9251C43.3419 20.182 43.4454 20.5615 43.4431 21.0635C43.4431 21.6416 43.3209 22.077 43.0818 22.3732C42.9583 22.5213 42.803 22.6383 42.6281 22.715C42.4531 22.7918 42.2632 22.8262 42.0731 22.8157C41.8743 22.8291 41.6753 22.7915 41.4943 22.7065C41.3133 22.6214 41.1559 22.4915 41.0364 22.3285C40.806 22.002 40.6873 21.4899 40.6873 20.7941C40.6848 20.4785 40.7029 20.1632 40.7414 19.8502C40.768 19.6239 40.8207 19.4017 40.8985 19.1882C40.9558 19.0303 41.041 18.8846 41.1498 18.7582C41.2449 18.6537 41.3579 18.5678 41.4832 18.5048C41.6111 18.4435 41.7468 18.4008 41.8863 18.3781C42.0329 18.3543 42.19 18.3329 42.3575 18.3139C42.5292 18.2991 42.6999 18.2747 42.8689 18.2407C42.9801 18.2191 43.0833 18.1666 43.1673 18.0891L43.2249 18.553C43.1835 18.5915 43.1371 18.6239 43.087 18.6493C43.0317 18.6781 42.9731 18.6996 42.9125 18.7136C42.8284 18.7333 42.7433 18.7487 42.6577 18.76C42.5582 18.7742 42.4483 18.7832 42.3087 18.7921C42.149 18.8014 41.9903 18.8235 41.834 18.8581C41.7034 18.8879 41.583 18.9525 41.4849 19.0455C41.3761 19.1532 41.2962 19.2878 41.2528 19.4362C41.1867 19.6546 41.1474 19.8806 41.1359 20.1089L41.1568 20.1ZM41.2126 21.1402C41.2124 21.2981 41.2294 21.4555 41.2633 21.6095C41.293 21.7486 41.3449 21.8818 41.4168 22.0038C41.4846 22.117 41.5806 22.2097 41.695 22.2724C41.8094 22.3352 41.9381 22.3656 42.0678 22.3607C42.1928 22.369 42.3179 22.3442 42.4307 22.2885C42.5436 22.2329 42.6404 22.1483 42.7118 22.0431C42.8695 21.7571 42.9423 21.4303 42.9212 21.1027C42.9227 20.9517 42.908 20.8009 42.8776 20.6531C42.8527 20.5268 42.806 20.4059 42.7397 20.2962C42.6805 20.1995 42.5983 20.1197 42.5006 20.0643C42.3929 20.0076 42.2727 19.9799 42.1516 19.984C42.0181 19.9707 41.8835 19.9903 41.7589 20.0412C41.6344 20.0921 41.5237 20.1728 41.436 20.2766C41.2694 20.5309 41.1908 20.8349 41.2126 21.1402ZM44.0574 21.1331C44.0574 20.5883 44.1738 20.1719 44.4065 19.8841C44.5331 19.7371 44.6909 19.6216 44.8679 19.5465C45.0448 19.4714 45.2362 19.4385 45.4274 19.4505C45.6376 19.4451 45.8465 19.4858 46.04 19.57C46.2089 19.6449 46.357 19.7614 46.4711 19.9091C46.5896 20.0682 46.6751 20.2503 46.7224 20.4443C46.7788 20.6699 46.8064 20.902 46.8044 21.1349C46.8044 21.6785 46.6881 22.0948 46.4554 22.3839C46.329 22.5311 46.1712 22.6468 45.9942 22.722C45.8172 22.7972 45.6257 22.8298 45.4344 22.8174C45.2244 22.8222 45.0158 22.7821 44.8218 22.6997C44.6536 22.6236 44.5062 22.5066 44.3925 22.3589C44.2736 22.2 44.1881 22.0178 44.1412 21.8236C44.084 21.5981 44.0558 21.366 44.0574 21.1331ZM44.581 21.1331C44.5805 21.2908 44.5963 21.4481 44.6281 21.6023C44.6553 21.7406 44.7048 21.8733 44.7747 21.9949C44.8415 22.1045 44.9323 22.1967 45.04 22.2643C45.1597 22.335 45.2962 22.3703 45.4344 22.366C46.0051 22.366 46.2896 21.9592 46.2896 21.1349C46.2903 20.9754 46.2745 20.8163 46.2425 20.6602C46.2155 20.5216 46.1653 20.3888 46.0941 20.2677C46.0293 20.158 45.9387 20.0666 45.8306 20.0018C45.7099 19.9324 45.5729 19.8978 45.4344 19.9019C44.8643 19.8983 44.5792 20.3087 44.5792 21.1331H44.581ZM49.4991 19.9858H48.5183V22.7479H48.0156V19.984H47.0348V19.5344H49.4991V19.9858ZM49.9441 19.7645C50.1166 19.6609 50.3048 19.5874 50.5009 19.5468C50.7189 19.4991 50.9412 19.4752 51.1641 19.4755C51.3429 19.4684 51.5212 19.4994 51.6877 19.5665C51.8077 19.6175 51.912 19.7008 51.9896 19.8073C52.0579 19.9015 52.105 20.01 52.1275 20.125C52.1509 20.2424 52.1626 20.362 52.1624 20.4818L52.1449 21.2312C52.1275 21.4757 52.1275 21.7058 52.1275 21.9271L52.1449 22.3767C52.1561 22.5089 52.1795 22.6398 52.2147 22.7675H51.843L51.7121 22.3036H51.6807C51.6399 22.368 51.5925 22.4278 51.5393 22.482C51.4787 22.5432 51.4099 22.5955 51.3351 22.6372C51.247 22.6851 51.1539 22.7227 51.0576 22.7496C50.9409 22.7813 50.8205 22.7963 50.6998 22.7942C50.5726 22.7954 50.4462 22.7737 50.3264 22.73C50.2161 22.6918 50.1145 22.6311 50.0279 22.5516C49.9429 22.472 49.8756 22.3746 49.8307 22.2661C49.7802 22.1468 49.7552 22.0178 49.7574 21.8878C49.7516 21.7225 49.7909 21.5588 49.8708 21.415C49.948 21.2869 50.0578 21.1827 50.1885 21.1134C50.3421 21.0325 50.5078 20.9782 50.6789 20.9529C50.8873 20.9193 51.098 20.9032 51.3089 20.9047H51.4835C51.5419 20.9043 51.6002 20.9085 51.658 20.9172C51.6706 20.8022 51.677 20.6867 51.6772 20.571C51.6957 20.3942 51.6463 20.217 51.5393 20.0768C51.3961 19.9646 51.216 19.9134 51.0367 19.934C50.9601 19.9341 50.8837 19.9401 50.808 19.9519C50.7235 19.9625 50.6396 19.9779 50.5567 19.9983C50.4733 20.0167 50.3911 20.0406 50.3106 20.0696C50.2399 20.0953 50.1715 20.1276 50.1065 20.166L49.9441 19.7645ZM50.8342 22.341C50.9408 22.3429 51.047 22.3266 51.1484 22.2929C51.2334 22.2644 51.3139 22.2236 51.3875 22.1715C51.4531 22.1258 51.5119 22.0705 51.562 22.0074C51.6017 21.9526 51.634 21.8926 51.658 21.8289V21.2937C51.6004 21.2937 51.5411 21.2937 51.4835 21.283H51.3089C51.1818 21.2828 51.0548 21.29 50.9285 21.3044C50.8165 21.317 50.7067 21.3453 50.6021 21.3882C50.5145 21.424 50.4371 21.4817 50.377 21.5559C50.3179 21.6311 50.2875 21.7255 50.2915 21.8218C50.2895 21.8914 50.3026 21.9605 50.3298 22.0244C50.3569 22.0882 50.3975 22.1451 50.4485 22.1912C50.5547 22.288 50.692 22.3413 50.8342 22.341ZM54.789 19.5344L55.2497 19.5022L55.8501 19.4844C56.2655 19.4844 56.5621 19.5498 56.7402 19.6807C56.8308 19.7481 56.9032 19.8381 56.9505 19.942C56.9979 20.0459 57.0185 20.1605 57.0107 20.2748C57.0096 20.4308 56.9647 20.5831 56.8815 20.7138C56.782 20.8686 56.6315 20.9818 56.4574 21.0332V21.0581C56.6574 21.0788 56.8433 21.1726 56.981 21.3222C57.1082 21.5159 57.1583 21.7519 57.121 21.9821C57.0837 22.2122 56.9618 22.4191 56.7803 22.5605C56.4547 22.7318 56.0898 22.8095 55.7244 22.7853C55.5499 22.7853 55.3858 22.7853 55.2358 22.7675L54.7907 22.7318L54.789 19.5344ZM55.9059 20.8833C55.9809 20.8836 56.0554 20.8703 56.1258 20.844C56.1944 20.8197 56.2587 20.7842 56.3161 20.7387C56.3714 20.6954 56.4187 20.6422 56.4557 20.5817C56.4899 20.5235 56.508 20.4569 56.508 20.389C56.5153 20.3214 56.5053 20.2529 56.479 20.1904C56.4527 20.1279 56.411 20.0733 56.358 20.0322C56.1948 19.9533 56.0144 19.9189 55.8344 19.9322H55.5202L55.2968 19.9447V20.8761L55.9059 20.8833ZM55.2899 22.3107C55.3684 22.3107 55.4469 22.3285 55.5255 22.3285H55.7977C56.0133 22.3431 56.2289 22.3014 56.4243 22.2072C56.4927 22.1637 56.548 22.1016 56.5841 22.0279C56.6201 21.9542 56.6355 21.8718 56.6285 21.7897C56.63 21.7174 56.615 21.6457 56.5847 21.5804C56.5544 21.515 56.5096 21.4578 56.4539 21.4132C56.2704 21.2985 56.0555 21.2478 55.8414 21.2687H55.2881L55.2899 22.3107ZM61.4558 19.984H60.4785V22.7461H59.9759V19.984H58.9898V19.5344H61.4506L61.4558 19.984ZM61.9567 19.5326L62.4175 19.5005L63.0178 19.4826C63.4332 19.4826 63.7299 19.548 63.9079 19.6789C63.9983 19.7466 64.0705 19.8366 64.1178 19.9404C64.1651 20.0443 64.186 20.1587 64.1784 20.273C64.1765 20.4288 64.1317 20.5809 64.0493 20.712C63.9497 20.8668 63.7993 20.9801 63.6252 21.0314V21.0563C63.825 21.0775 64.0108 21.1712 64.1488 21.3204C64.276 21.5141 64.326 21.7501 64.2887 21.9803C64.2514 22.2104 64.1296 22.4173 63.9481 22.5587C63.6225 22.73 63.2576 22.8077 62.8922 22.7835C62.7177 22.7835 62.5536 22.7835 62.4035 22.7657L61.9567 22.73V19.5326ZM63.0737 20.8815C63.1487 20.8818 63.2231 20.8685 63.2936 20.8422C63.3622 20.818 63.4264 20.7824 63.4838 20.737C63.5392 20.6936 63.5865 20.6404 63.6234 20.5799C63.6576 20.5217 63.6758 20.4551 63.6758 20.3872C63.683 20.3196 63.673 20.2511 63.6467 20.1886C63.6204 20.1261 63.5787 20.0716 63.5257 20.0304C63.3625 19.9515 63.1822 19.9171 63.0021 19.9305H62.688L62.4646 19.943V20.8761L63.0737 20.8815ZM62.4576 22.3089C62.5361 22.3089 62.6147 22.3268 62.6932 22.3268H62.9655C63.181 22.3411 63.3966 22.2994 63.592 22.2054C63.6603 22.1618 63.7155 22.0997 63.7515 22.026C63.7876 21.9524 63.803 21.87 63.7962 21.7879C63.7973 21.7157 63.7822 21.6441 63.7519 21.5789C63.7216 21.5136 63.6771 21.4563 63.6217 21.4114C63.438 21.2972 63.2232 21.2465 63.0091 21.2669H62.4559L62.4576 22.3089ZM64.9114 21.1313C64.9114 20.5865 65.0278 20.1702 65.2605 19.8823C65.3869 19.735 65.5447 19.6193 65.7217 19.5442C65.8987 19.469 66.0902 19.4363 66.2815 19.4487C66.4916 19.4437 66.7005 19.4844 66.8941 19.5683C67.0621 19.6437 67.2095 19.7601 67.3234 19.9073C67.4419 20.0664 67.5274 20.2485 67.5747 20.4426C67.632 20.668 67.6596 20.9002 67.6567 21.1331C67.6567 21.6767 67.5404 22.093 67.3077 22.3821C67.181 22.529 67.0232 22.6445 66.8463 22.7196C66.6693 22.7948 66.4779 22.8276 66.2867 22.8157C66.0767 22.8207 65.868 22.7806 65.6741 22.6979C65.5051 22.6224 65.3571 22.5053 65.243 22.3571C65.1242 22.1982 65.0386 22.016 64.9917 21.8218C64.9357 21.5962 64.9087 21.3641 64.9114 21.1313ZM65.435 21.1313C65.4345 21.289 65.4503 21.4463 65.4821 21.6006C65.5091 21.7392 65.5593 21.872 65.6305 21.9931C65.6961 22.1031 65.7865 22.1954 65.894 22.2625C66.0142 22.3335 66.1514 22.3687 66.2902 22.3642C66.8591 22.3642 67.1454 21.9574 67.1454 21.1331C67.1461 20.9736 67.1303 20.8145 67.0982 20.6585C67.0711 20.5202 67.0215 20.3875 66.9516 20.2659C66.8859 20.157 66.7955 20.0658 66.6881 20.0001C66.5672 19.931 66.4304 19.8965 66.2919 19.9001C65.7218 19.8966 65.4368 20.3069 65.4368 21.1313H65.435ZM70.7493 22.482C70.6075 22.5932 70.4464 22.6761 70.2746 22.7264C70.0778 22.7875 69.873 22.8176 69.6673 22.8157C69.4544 22.8205 69.2429 22.7804 69.0459 22.6979C68.8762 22.6229 68.7274 22.5057 68.6131 22.3571C68.4946 22.198 68.4091 22.0159 68.3618 21.8218C68.304 21.5953 68.2764 21.3618 68.2798 21.1277C68.2798 20.5805 68.3961 20.1642 68.6288 19.8787C68.7567 19.7325 68.9153 19.6179 69.0928 19.5434C69.2702 19.4689 69.4618 19.4366 69.6533 19.4487C69.7971 19.4489 69.9405 19.4651 70.0809 19.4969C70.2279 19.5282 70.3651 19.5963 70.4802 19.695C70.5953 19.7937 70.6848 19.9199 70.7406 20.0625C70.8185 20.2701 70.8547 20.4916 70.847 20.7138C70.8461 20.871 70.8332 21.0279 70.8087 21.183H68.8016C68.7996 21.3519 68.8184 21.5203 68.8575 21.6844C68.8898 21.8186 68.9493 21.9444 69.032 22.0538C69.115 22.156 69.2218 22.2351 69.3426 22.2839C69.492 22.3413 69.6509 22.3686 69.8104 22.3642C69.9562 22.364 70.1008 22.338 70.238 22.2875C70.3558 22.2512 70.4652 22.1905 70.5591 22.1091L70.7493 22.482ZM68.7196 18.6601C68.7159 18.5728 68.746 18.4875 68.8034 18.4227C68.8643 18.3654 68.944 18.3336 69.0268 18.3336C69.1095 18.3336 69.1893 18.3654 69.2501 18.4227C69.2792 18.4544 69.3017 18.4918 69.3164 18.5325C69.3311 18.5733 69.3377 18.6167 69.3357 18.6601C69.3372 18.7015 69.3304 18.7429 69.3157 18.7815C69.301 18.8202 69.2787 18.8554 69.2501 18.8849C69.1898 18.9434 69.1099 18.976 69.0268 18.976C68.9436 18.976 68.8637 18.9434 68.8034 18.8849C68.7753 18.8548 68.7534 18.8192 68.739 18.7803C68.7246 18.7413 68.718 18.6999 68.7196 18.6583V18.6601ZM69.6673 19.9091C69.4521 19.8985 69.2408 19.9697 69.0739 20.1089C68.9036 20.2926 68.8081 20.5356 68.8068 20.7887H70.3654C70.3912 20.5467 70.329 20.3035 70.1908 20.1053C70.123 20.0347 70.0412 19.9798 69.9509 19.9441C69.8606 19.9084 69.7639 19.8928 69.6673 19.8983V19.9091ZM69.9256 18.6601C69.9236 18.6167 69.9301 18.5733 69.9448 18.5325C69.9595 18.4918 69.982 18.4544 70.0111 18.4227C70.0398 18.3928 70.0744 18.3693 70.1126 18.3539C70.1508 18.3386 70.1917 18.3316 70.2327 18.3335C70.2751 18.3309 70.3176 18.3375 70.3573 18.3529C70.397 18.3682 70.433 18.3921 70.4631 18.4227C70.5205 18.4875 70.5506 18.5728 70.5469 18.6601C70.5486 18.7025 70.5417 18.7448 70.5265 18.7843C70.5112 18.8238 70.4881 18.8596 70.4585 18.8894C70.4289 18.9191 70.3935 18.9422 70.3546 18.9571C70.3157 18.972 70.2742 18.9784 70.2327 18.9759C70.1916 18.9776 70.1506 18.9703 70.1124 18.9547C70.0742 18.939 70.0396 18.9152 70.0111 18.8849C69.9823 18.8552 69.9599 18.8197 69.9452 18.7807C69.9304 18.7417 69.9238 18.7 69.9256 18.6583V18.6601ZM74.2433 20.8297L74.2817 20.2195H74.2503L74.0234 20.7138L73.2642 21.9735H73.0897L72.2974 20.7138L72.0809 20.2195H72.0565L72.1089 20.8226V22.7371H71.6429V19.5254H72.1403L73.0129 20.9654L73.1874 21.3365H73.1997L73.3881 20.9511L74.2119 19.5236H74.7145V22.7354H74.2259L74.2433 20.8297ZM78.7914 22.7639C78.7192 22.7887 78.6441 22.8037 78.5681 22.8085H78.3586C78.1917 22.8163 78.0254 22.783 77.8736 22.7117C77.7218 22.6403 77.5889 22.5328 77.486 22.3981C77.2818 22.1234 77.1788 21.7023 77.1788 21.1259C77.1788 20.5496 77.2923 20.1624 77.5174 19.8769C77.6388 19.7353 77.7903 19.624 77.9604 19.5516C78.1304 19.4792 78.3144 19.4477 78.4982 19.4594C78.5995 19.4579 78.7007 19.4669 78.8002 19.4862V18.2265H79.2766V19.4933L79.4773 19.4683C79.5349 19.4648 79.5925 19.4683 79.6519 19.4683C79.8248 19.4555 79.9983 19.482 80.1601 19.5458C80.3218 19.6097 80.4677 19.7093 80.5873 19.8377C80.7967 20.0839 80.9015 20.4919 80.9015 21.0617C80.9046 21.3078 80.8759 21.5532 80.8159 21.7915C80.7688 21.9893 80.6846 22.1759 80.5681 22.341C80.464 22.4868 80.3276 22.6054 80.1702 22.6872C80.0008 22.7715 79.814 22.8131 79.6257 22.8085H79.4599C79.4005 22.804 79.3419 22.792 79.2854 22.7728V24.0218H78.8089L78.7914 22.7639ZM78.4825 22.3892C78.5331 22.3919 78.5838 22.3919 78.6344 22.3892C78.689 22.3846 78.7432 22.3763 78.7967 22.3642V19.9198C78.7443 19.9198 78.6989 19.9055 78.6571 19.9019C78.6036 19.8988 78.55 19.8988 78.4965 19.9019C78.3794 19.8969 78.2629 19.9215 78.1572 19.9735C78.0516 20.0254 77.9601 20.1032 77.8909 20.1999C77.7256 20.481 77.65 20.8078 77.6745 21.1349C77.6733 21.3032 77.6891 21.4712 77.7216 21.6362C77.7482 21.7775 77.7977 21.9132 77.8682 22.0377C77.9303 22.146 78.0179 22.2368 78.123 22.3018C78.2339 22.3625 78.3586 22.392 78.4843 22.3874L78.4825 22.3892ZM79.5471 19.8912H79.4075C79.3578 19.8953 79.3086 19.9049 79.2609 19.9198V22.3607C79.3075 22.3701 79.3548 22.3755 79.4023 22.3767H79.5768C79.6986 22.3819 79.8194 22.3529 79.9262 22.2928C80.033 22.2328 80.1216 22.1439 80.1824 22.0359C80.3357 21.7329 80.4063 21.3933 80.3866 21.0528C80.4022 20.7554 80.3383 20.4593 80.2016 20.1963C80.129 20.0899 80.0293 20.0058 79.9134 19.953C79.7974 19.9002 79.6696 19.8807 79.5436 19.8966L79.5471 19.8912ZM81.4739 21.1313C81.4739 20.5865 81.5902 20.1702 81.8229 19.8823C81.9496 19.7353 82.1074 19.6199 82.2844 19.5447C82.4613 19.4696 82.6527 19.4367 82.8439 19.4487C83.0541 19.4433 83.263 19.4841 83.4565 19.5683C83.6254 19.6432 83.7735 19.7596 83.8876 19.9073C84.0061 20.0664 84.0916 20.2485 84.1389 20.4426C84.1953 20.6681 84.2229 20.9002 84.2209 21.1331C84.2209 21.6767 84.1046 22.093 83.8719 22.3821C83.7455 22.5294 83.5877 22.645 83.4107 22.7202C83.2337 22.7954 83.0422 22.828 82.8509 22.8157C82.6409 22.8204 82.4323 22.7803 82.2383 22.6979C82.0699 22.6223 81.9224 22.5052 81.809 22.3571C81.6901 22.1982 81.6046 22.016 81.5577 21.8218C81.4996 21.5965 81.4714 21.3643 81.4739 21.1313ZM81.9975 21.1313C81.997 21.289 82.0128 21.4463 82.0446 21.6006C82.0718 21.7388 82.1213 21.8715 82.1912 21.9931C82.2578 22.1023 82.3479 22.1944 82.4547 22.2625C82.5751 22.3332 82.7122 22.3684 82.8509 22.3642C83.4216 22.3642 83.7061 21.9574 83.7061 21.1331C83.7068 20.9736 83.691 20.8145 83.659 20.6585C83.632 20.5198 83.5818 20.387 83.5106 20.2659C83.442 20.1515 83.3446 20.058 83.2285 19.9952C83.1125 19.9324 82.9821 19.9027 82.8509 19.9091C82.2808 19.8995 81.9957 20.3075 81.9957 21.1331L81.9975 21.1313ZM85.0168 19.5254H85.3658L85.4601 19.9108H85.4862C85.5783 19.7644 85.7073 19.646 85.8597 19.5683C86.0223 19.4859 86.2019 19.4449 86.3833 19.4487C86.5573 19.4352 86.7321 19.4622 86.8944 19.5277C87.0568 19.5932 87.2024 19.6956 87.3205 19.827C87.5253 20.0803 87.6277 20.4937 87.6277 21.0671C87.6307 21.3143 87.5959 21.5605 87.5247 21.7968C87.4632 21.9979 87.3635 22.1846 87.2315 22.3464C87.1067 22.495 86.9511 22.6132 86.776 22.6925C86.589 22.776 86.3866 22.8174 86.1826 22.8139C86.0598 22.8169 85.937 22.8074 85.8161 22.7853C85.7151 22.7629 85.6168 22.7294 85.5229 22.6854V24.0236H85.0203L85.0168 19.5254ZM86.2856 19.9001C86.1014 19.8923 85.9212 19.9561 85.7812 20.0786C85.6436 20.2192 85.5521 20.4 85.5194 20.596V22.1894C85.5966 22.2508 85.6842 22.2973 85.7777 22.3268C85.9019 22.3627 86.0308 22.3789 86.1599 22.3749C86.2922 22.3801 86.4238 22.3528 86.5438 22.2954C86.6637 22.238 86.7684 22.1521 86.8493 22.0448C87.0369 21.7584 87.1259 21.4163 87.1023 21.0724C87.104 20.9113 87.0894 20.7505 87.0587 20.5924C87.0331 20.4657 86.9852 20.3448 86.9173 20.2356C86.8545 20.137 86.768 20.0565 86.666 20.0018C86.5494 19.9364 86.4187 19.9014 86.2856 19.9001ZM91.01 20.828L91.0484 20.2177H91.0169L90.7901 20.712L90.0309 21.9717H89.8563L89.0658 20.712L88.8563 20.2177H88.8336L88.886 20.8208V22.7354H88.4218V19.5236H88.9174L89.79 20.9636L89.9646 21.3347H89.9768L90.1653 20.9493L90.9855 19.5219H91.4882V22.7336H90.9995L91.01 20.828ZM92.4184 19.761C92.5902 19.6574 92.7778 19.5838 92.9734 19.5433C93.1914 19.4957 93.4137 19.4718 93.6366 19.4719C93.8154 19.4651 93.9936 19.4961 94.1601 19.5629C94.2793 19.612 94.3835 19.6927 94.4621 19.7966C94.5297 19.8912 94.5767 19.9995 94.5999 20.1142C94.6234 20.2317 94.6351 20.3513 94.6349 20.4711L94.6174 21.2205C94.6 21.465 94.5999 21.6951 94.5999 21.9164L94.6174 22.366C94.6278 22.4983 94.6512 22.6293 94.6872 22.7568H94.3155L94.1828 22.3071H94.1514C94.1118 22.3719 94.0649 22.4318 94.0118 22.4856C93.9511 22.5468 93.8824 22.599 93.8076 22.6408C93.7194 22.6886 93.6264 22.7263 93.5301 22.7532C93.4162 22.784 93.2988 22.799 93.1811 22.7978C93.0538 22.799 92.9274 22.7773 92.8076 22.7336C92.6973 22.6954 92.5958 22.6347 92.5091 22.5552C92.4241 22.4752 92.3564 22.3779 92.3102 22.2697C92.261 22.15 92.2367 22.0212 92.2386 21.8914C92.2323 21.726 92.2716 21.5622 92.3521 21.4186C92.4286 21.2905 92.5378 21.1863 92.6679 21.117C92.8217 21.0363 92.9874 20.982 93.1584 20.9564C93.3673 20.9229 93.5786 20.9068 93.7902 20.9083H93.9647C94.0231 20.9079 94.0814 20.9121 94.1392 20.9207L94.1567 20.5746C94.1744 20.3979 94.1251 20.2209 94.0188 20.0803C93.8756 19.9681 93.6954 19.917 93.5162 19.9376C93.439 19.9378 93.362 19.9437 93.2858 19.9554C93.1975 19.9591 93.1095 19.968 93.0222 19.9822C92.9394 20.0007 92.8578 20.0245 92.7779 20.0536C92.7068 20.0786 92.6384 20.1109 92.5737 20.1499L92.4184 19.761ZM93.3085 22.3375C93.4151 22.3391 93.5212 22.3228 93.6226 22.2893C93.7075 22.2605 93.7879 22.2196 93.8617 22.168C93.9244 22.1216 93.9802 22.0664 94.0275 22.0038C94.0677 21.9491 94.1006 21.8891 94.1252 21.8254V21.2901C94.0659 21.2901 94.0066 21.2901 93.9507 21.2794H93.7762C93.6491 21.2792 93.5221 21.2864 93.3957 21.3008C93.2837 21.3132 93.1738 21.3414 93.0694 21.3847C92.9815 21.4208 92.9036 21.4784 92.8425 21.5524C92.7847 21.6281 92.7551 21.7223 92.7587 21.8182C92.7568 21.8878 92.7699 21.957 92.797 22.0208C92.8242 22.0846 92.8647 22.1416 92.9158 22.1876C93.0236 22.2862 93.1638 22.3397 93.3085 22.3375ZM97.5843 19.9822H96.6035V22.7443H96.1009V19.984H95.1165V19.5344H97.5773L97.5843 19.9822ZM100.272 22.4802C100.13 22.5914 99.9691 22.6743 99.7973 22.7247C99.601 22.7856 99.3968 22.8157 99.1917 22.8139C98.9783 22.8189 98.7662 22.7788 98.5687 22.6961C98.3989 22.6211 98.2501 22.5039 98.1358 22.3553C98.0173 22.1962 97.9318 22.0141 97.8845 21.82C97.8276 21.5933 97.8 21.36 97.8025 21.1259C97.8025 20.5788 97.9217 20.1624 98.1603 19.8769C98.2882 19.7309 98.4468 19.6163 98.6243 19.5418C98.8017 19.4673 98.9933 19.4349 99.1847 19.4469C99.3285 19.4471 99.4719 19.4632 99.6123 19.4951C99.7594 19.5265 99.8965 19.5945 100.012 19.6932C100.127 19.7919 100.216 19.9181 100.272 20.0607C100.351 20.2681 100.387 20.4897 100.378 20.712C100.378 20.8692 100.365 21.0261 100.34 21.1812H98.3243C98.3223 21.3501 98.3411 21.5186 98.3802 21.6826C98.4125 21.8168 98.472 21.9426 98.5547 22.052C98.6377 22.1542 98.7445 22.2333 98.8653 22.2822C99.0147 22.3395 99.1736 22.3668 99.3331 22.3624C99.4789 22.3623 99.6235 22.3364 99.7607 22.2857C99.8785 22.2494 99.9879 22.1887 100.082 22.1073L100.272 22.4802ZM99.19 19.8983C98.9742 19.8874 98.7622 19.9586 98.5948 20.0982C98.4246 20.2819 98.3291 20.5249 98.3278 20.778H99.8863C99.9121 20.536 99.85 20.2928 99.7118 20.0946C99.6434 20.0258 99.5616 19.9725 99.4716 19.9384C99.3817 19.9043 99.2857 19.89 99.19 19.8966V19.8983Z" fill="#88888C"/>
</g>
<defs>
<clipPath id="clip0_2:399">
<rect width="115" height="29" fill="white"/>
</clipPath>
</defs>
</svg>
