<svg width="86" height="43" viewBox="0 0 86 43" fill="none" xmlns="http://www.w3.org/2000/svg">
<path d="M34.148 32.672C34.228 33.128 34.412 33.48 34.7 33.728C34.996 33.976 35.392 34.1 35.888 34.1C36.552 34.1 37.04 33.84 37.352 33.32C37.672 32.8 37.824 31.924 37.808 30.692C37.64 31.052 37.36 31.336 36.968 31.544C36.576 31.744 36.14 31.844 35.66 31.844C35.124 31.844 34.644 31.736 34.22 31.52C33.804 31.296 33.476 30.972 33.236 30.548C32.996 30.124 32.876 29.612 32.876 29.012C32.876 28.156 33.124 27.468 33.62 26.948C34.116 26.42 34.82 26.156 35.732 26.156C36.852 26.156 37.636 26.52 38.084 27.248C38.54 27.976 38.768 29.06 38.768 30.5C38.768 31.508 38.676 32.34 38.492 32.996C38.316 33.652 38.012 34.152 37.58 34.496C37.156 34.84 36.572 35.012 35.828 35.012C35.012 35.012 34.376 34.792 33.92 34.352C33.464 33.912 33.204 33.352 33.14 32.672H34.148ZM35.84 30.92C36.376 30.92 36.816 30.756 37.16 30.428C37.504 30.092 37.676 29.64 37.676 29.072C37.676 28.472 37.508 27.988 37.172 27.62C36.836 27.252 36.364 27.068 35.756 27.068C35.196 27.068 34.748 27.244 34.412 27.596C34.084 27.948 33.92 28.412 33.92 28.988C33.92 29.572 34.084 30.04 34.412 30.392C34.74 30.744 35.216 30.92 35.84 30.92ZM40.8306 35.072C40.6226 35.072 40.4466 35 40.3026 34.856C40.1586 34.712 40.0866 34.536 40.0866 34.328C40.0866 34.12 40.1586 33.944 40.3026 33.8C40.4466 33.656 40.6226 33.584 40.8306 33.584C41.0306 33.584 41.1986 33.656 41.3346 33.8C41.4786 33.944 41.5506 34.12 41.5506 34.328C41.5506 34.536 41.4786 34.712 41.3346 34.856C41.1986 35 41.0306 35.072 40.8306 35.072ZM44.4061 30.488C43.9581 30.312 43.6141 30.056 43.3741 29.72C43.1341 29.384 43.0141 28.976 43.0141 28.496C43.0141 28.064 43.1221 27.676 43.3381 27.332C43.5541 26.98 43.8741 26.704 44.2981 26.504C44.7301 26.296 45.2501 26.192 45.8581 26.192C46.4661 26.192 46.9821 26.296 47.4061 26.504C47.8381 26.704 48.1621 26.98 48.3781 27.332C48.6021 27.676 48.7141 28.064 48.7141 28.496C48.7141 28.96 48.5901 29.368 48.3421 29.72C48.0941 30.064 47.7541 30.32 47.3221 30.488C47.8181 30.64 48.2101 30.908 48.4981 31.292C48.7941 31.668 48.9421 32.124 48.9421 32.66C48.9421 33.18 48.8141 33.636 48.5581 34.028C48.3021 34.412 47.9381 34.712 47.4661 34.928C47.0021 35.136 46.4661 35.24 45.8581 35.24C45.2501 35.24 44.7141 35.136 44.2501 34.928C43.7941 34.712 43.4381 34.412 43.1821 34.028C42.9261 33.636 42.7981 33.18 42.7981 32.66C42.7981 32.124 42.9421 31.664 43.2301 31.28C43.5181 30.896 43.9101 30.632 44.4061 30.488ZM47.6581 28.628C47.6581 28.14 47.4981 27.764 47.1781 27.5C46.8581 27.236 46.4181 27.104 45.8581 27.104C45.3061 27.104 44.8701 27.236 44.5501 27.5C44.2301 27.764 44.0701 28.144 44.0701 28.64C44.0701 29.088 44.2341 29.448 44.5621 29.72C44.8981 29.992 45.3301 30.128 45.8581 30.128C46.3941 30.128 46.8261 29.992 47.1541 29.72C47.4901 29.44 47.6581 29.076 47.6581 28.628ZM45.8581 30.968C45.2661 30.968 44.7821 31.108 44.4061 31.388C44.0301 31.66 43.8421 32.072 43.8421 32.624C43.8421 33.136 44.0221 33.548 44.3821 33.86C44.7501 34.172 45.2421 34.328 45.8581 34.328C46.4741 34.328 46.9621 34.172 47.3221 33.86C47.6821 33.548 47.8621 33.136 47.8621 32.624C47.8621 32.088 47.6781 31.68 47.3101 31.4C46.9421 31.112 46.4581 30.968 45.8581 30.968ZM55.2284 28.388C55.0524 27.5 54.5044 27.056 53.5844 27.056C52.8724 27.056 52.3404 27.332 51.9884 27.884C51.6364 28.428 51.4644 29.328 51.4724 30.584C51.6564 30.168 51.9604 29.844 52.3844 29.612C52.8164 29.372 53.2964 29.252 53.8244 29.252C54.6484 29.252 55.3044 29.508 55.7924 30.02C56.2884 30.532 56.5364 31.24 56.5364 32.144C56.5364 32.688 56.4284 33.176 56.2124 33.608C56.0044 34.04 55.6844 34.384 55.2524 34.64C54.8284 34.896 54.3124 35.024 53.7044 35.024C52.8804 35.024 52.2364 34.84 51.7724 34.472C51.3084 34.104 50.9844 33.596 50.8004 32.948C50.6164 32.3 50.5244 31.5 50.5244 30.548C50.5244 27.612 51.5484 26.144 53.5964 26.144C54.3804 26.144 54.9964 26.356 55.4444 26.78C55.8924 27.204 56.1564 27.74 56.2364 28.388H55.2284ZM53.5964 30.176C53.2524 30.176 52.9284 30.248 52.6244 30.392C52.3204 30.528 52.0724 30.74 51.8804 31.028C51.6964 31.308 51.6044 31.652 51.6044 32.06C51.6044 32.668 51.7804 33.164 52.1324 33.548C52.4844 33.924 52.9884 34.112 53.6444 34.112C54.2044 34.112 54.6484 33.94 54.9764 33.596C55.3124 33.244 55.4804 32.772 55.4804 32.18C55.4804 31.556 55.3204 31.068 55.0004 30.716C54.6804 30.356 54.2124 30.176 53.5964 30.176ZM62.2696 23.696L58.9816 37.04H57.9016L61.1776 23.696H62.2696ZM63.4287 27.32V26.324H65.6847V35H64.5807V27.32H63.4287ZM67.5604 30.572C67.5604 29.196 67.7844 28.124 68.2324 27.356C68.6804 26.58 69.4644 26.192 70.5844 26.192C71.6964 26.192 72.4764 26.58 72.9244 27.356C73.3724 28.124 73.5964 29.196 73.5964 30.572C73.5964 31.972 73.3724 33.06 72.9244 33.836C72.4764 34.612 71.6964 35 70.5844 35C69.4644 35 68.6804 34.612 68.2324 33.836C67.7844 33.06 67.5604 31.972 67.5604 30.572ZM72.5164 30.572C72.5164 29.876 72.4684 29.288 72.3724 28.808C72.2844 28.32 72.0964 27.928 71.8084 27.632C71.5284 27.336 71.1204 27.188 70.5844 27.188C70.0404 27.188 69.6244 27.336 69.3364 27.632C69.0564 27.928 68.8684 28.32 68.7724 28.808C68.6844 29.288 68.6404 29.876 68.6404 30.572C68.6404 31.292 68.6844 31.896 68.7724 32.384C68.8684 32.872 69.0564 33.264 69.3364 33.56C69.6244 33.856 70.0404 34.004 70.5844 34.004C71.1204 34.004 71.5284 33.856 71.8084 33.56C72.0964 33.264 72.2844 32.872 72.3724 32.384C72.4684 31.896 72.5164 31.292 72.5164 30.572Z" fill="#99A3A9"/>
<path d="M13.2613 22.7759C13.5346 22.1189 14.4654 22.1189 14.7387 22.7759L16.4574 26.9083C16.5726 27.1852 16.8331 27.3745 17.1321 27.3985L21.5933 27.7561C22.3026 27.813 22.5902 28.6982 22.0498 29.1611L18.6509 32.0727C18.423 32.2679 18.3235 32.5741 18.3931 32.8659L19.4316 37.2192C19.5967 37.9114 18.8437 38.4585 18.2364 38.0876L14.417 35.7547C14.161 35.5983 13.839 35.5983 13.583 35.7547L9.76361 38.0876C9.15633 38.4585 8.40333 37.9114 8.56844 37.2192L9.60687 32.8659C9.67648 32.5741 9.57698 32.2679 9.34915 32.0727L5.9502 29.1611C5.40977 28.6982 5.69739 27.813 6.40671 27.7561L10.8679 27.3985C11.1669 27.3745 11.4274 27.1852 11.5426 26.9083L13.2613 22.7759Z" fill="#FFBB17"/>
<path d="M4.97 12.67H2.19L1.73 14H0.26L2.77 7.01H4.4L6.91 14H5.43L4.97 12.67ZM4.59 11.55L3.58 8.63L2.57 11.55H4.59ZM14.1182 7.02L11.5582 14H9.8582L7.2982 7.02H8.7982L10.7182 12.57L12.6282 7.02H14.1182ZM16.3576 8.15V9.9H18.7076V11.01H16.3576V12.86H19.0076V14H14.9576V7.01H19.0076V8.15H16.3576ZM23.8798 14L22.3398 11.28H21.6798V14H20.2798V7.02H22.8998C23.4398 7.02 23.8998 7.11667 24.2798 7.31C24.6598 7.49667 24.9432 7.75333 25.1298 8.08C25.3232 8.4 25.4198 8.76 25.4198 9.16C25.4198 9.62 25.2865 10.0367 25.0198 10.41C24.7532 10.7767 24.3565 11.03 23.8298 11.17L25.4998 14H23.8798ZM21.6798 10.23H22.8498C23.2298 10.23 23.5132 10.14 23.6998 9.96C23.8865 9.77333 23.9798 9.51667 23.9798 9.19C23.9798 8.87 23.8865 8.62333 23.6998 8.45C23.5132 8.27 23.2298 8.18 22.8498 8.18H21.6798V10.23ZM30.9661 12.67H28.1861L27.7261 14H26.2561L28.7661 7.01H30.3961L32.9061 14H31.4261L30.9661 12.67ZM30.5861 11.55L29.5761 8.63L28.5661 11.55H30.5861ZM38.7043 9.12C38.5443 8.82667 38.3243 8.60333 38.0443 8.45C37.7643 8.29667 37.4376 8.22 37.0643 8.22C36.651 8.22 36.2843 8.31333 35.9643 8.5C35.6443 8.68667 35.3943 8.95333 35.2143 9.3C35.0343 9.64667 34.9443 10.0467 34.9443 10.5C34.9443 10.9667 35.0343 11.3733 35.2143 11.72C35.401 12.0667 35.6576 12.3333 35.9843 12.52C36.311 12.7067 36.691 12.8 37.1243 12.8C37.6576 12.8 38.0943 12.66 38.4343 12.38C38.7743 12.0933 38.9976 11.6967 39.1043 11.19H36.7043V10.12H40.4843V11.34C40.391 11.8267 40.191 12.2767 39.8843 12.69C39.5776 13.1033 39.181 13.4367 38.6943 13.69C38.2143 13.9367 37.6743 14.06 37.0743 14.06C36.401 14.06 35.791 13.91 35.2443 13.61C34.7043 13.3033 34.2776 12.88 33.9643 12.34C33.6576 11.8 33.5043 11.1867 33.5043 10.5C33.5043 9.81333 33.6576 9.2 33.9643 8.66C34.2776 8.11333 34.7043 7.69 35.2443 7.39C35.791 7.08333 36.3976 6.93 37.0643 6.93C37.851 6.93 38.5343 7.12333 39.1143 7.51C39.6943 7.89 40.0943 8.42667 40.3143 9.12H38.7043ZM42.9201 8.15V9.9H45.2701V11.01H42.9201V12.86H45.5701V14H41.5201V7.01H45.5701V8.15H42.9201ZM52.8252 14L51.2852 11.28H50.6252V14H49.2252V7.02H51.8452C52.3852 7.02 52.8452 7.11667 53.2252 7.31C53.6052 7.49667 53.8885 7.75333 54.0752 8.08C54.2685 8.4 54.3652 8.76 54.3652 9.16C54.3652 9.62 54.2318 10.0367 53.9652 10.41C53.6985 10.7767 53.3018 11.03 52.7752 11.17L54.4452 14H52.8252ZM50.6252 10.23H51.7952C52.1752 10.23 52.4585 10.14 52.6452 9.96C52.8318 9.77333 52.9252 9.51667 52.9252 9.19C52.9252 8.87 52.8318 8.62333 52.6452 8.45C52.4585 8.27 52.1752 8.18 51.7952 8.18H50.6252V10.23ZM59.9114 12.67H57.1314L56.6714 14H55.2014L57.7114 7.01H59.3414L61.8514 14H60.3714L59.9114 12.67ZM59.5314 11.55L58.5214 8.63L57.5114 11.55H59.5314ZM67.5396 7.02V8.15H65.6796V14H64.2796V8.15H62.4196V7.02H67.5396ZM69.9611 7.02V14H68.5611V7.02H69.9611ZM77.3143 14H75.9143L72.7443 9.21V14H71.3443V7.01H72.7443L75.9143 11.81V7.01H77.3143V14ZM83.5578 9.12C83.3978 8.82667 83.1778 8.60333 82.8978 8.45C82.6178 8.29667 82.2911 8.22 81.9178 8.22C81.5045 8.22 81.1378 8.31333 80.8178 8.5C80.4978 8.68667 80.2478 8.95333 80.0678 9.3C79.8878 9.64667 79.7978 10.0467 79.7978 10.5C79.7978 10.9667 79.8878 11.3733 80.0678 11.72C80.2545 12.0667 80.5111 12.3333 80.8378 12.52C81.1645 12.7067 81.5445 12.8 81.9778 12.8C82.5111 12.8 82.9478 12.66 83.2878 12.38C83.6278 12.0933 83.8511 11.6967 83.9578 11.19H81.5578V10.12H85.3378V11.34C85.2445 11.8267 85.0445 12.2767 84.7378 12.69C84.4311 13.1033 84.0345 13.4367 83.5478 13.69C83.0678 13.9367 82.5278 14.06 81.9278 14.06C81.2545 14.06 80.6445 13.91 80.0978 13.61C79.5578 13.3033 79.1311 12.88 78.8178 12.34C78.5111 11.8 78.3578 11.1867 78.3578 10.5C78.3578 9.81333 78.5111 9.2 78.8178 8.66C79.1311 8.11333 79.5578 7.69 80.0978 7.39C80.6445 7.08333 81.2511 6.93 81.9178 6.93C82.7045 6.93 83.3878 7.12333 83.9678 7.51C84.5478 7.89 84.9478 8.42667 85.1678 9.12H83.5578Z" fill="#2F2F2F"/>
</svg>
