<svg width="122" height="38" viewBox="0 0 122 38" fill="none" xmlns="http://www.w3.org/2000/svg">
<path d="M13 5H0V13.5L6.5 18.5L13 13V5Z" fill="#1CAF9D"/>
<path d="M27.006 15L24.85 11.192H23.926V15H21.966V5.228H25.634C26.39 5.228 27.034 5.36333 27.566 5.634C28.098 5.89533 28.4947 6.25467 28.756 6.712C29.0267 7.16 29.162 7.664 29.162 8.224C29.162 8.868 28.9753 9.45133 28.602 9.974C28.2287 10.4873 27.6733 10.842 26.936 11.038L29.274 15H27.006ZM23.926 9.722H25.564C26.096 9.722 26.4927 9.596 26.754 9.344C27.0153 9.08267 27.146 8.72333 27.146 8.266C27.146 7.818 27.0153 7.47267 26.754 7.23C26.4927 6.978 26.096 6.852 25.564 6.852H23.926V9.722ZM32.8948 5.228V15H30.9348V5.228H32.8948ZM38.2052 15.098C37.5239 15.098 36.9079 14.9813 36.3572 14.748C35.8159 14.5147 35.3866 14.1787 35.0692 13.74C34.7519 13.3013 34.5886 12.7833 34.5792 12.186H36.6792C36.7072 12.5873 36.8472 12.9047 37.0992 13.138C37.3606 13.3713 37.7152 13.488 38.1632 13.488C38.6206 13.488 38.9799 13.3807 39.2412 13.166C39.5026 12.942 39.6332 12.6527 39.6332 12.298C39.6332 12.0087 39.5446 11.7707 39.3672 11.584C39.1899 11.3973 38.9659 11.2527 38.6952 11.15C38.4339 11.038 38.0699 10.9167 37.6032 10.786C36.9686 10.5993 36.4506 10.4173 36.0492 10.24C35.6572 10.0533 35.3166 9.778 35.0272 9.414C34.7472 9.04067 34.6072 8.546 34.6072 7.93C34.6072 7.35133 34.7519 6.84733 35.0412 6.418C35.3306 5.98867 35.7366 5.662 36.2592 5.438C36.7819 5.20467 37.3792 5.088 38.0512 5.088C39.0592 5.088 39.8759 5.33533 40.5012 5.83C41.1359 6.31533 41.4859 6.99667 41.5512 7.874H39.3952C39.3766 7.538 39.2319 7.26267 38.9612 7.048C38.6999 6.824 38.3499 6.712 37.9112 6.712C37.5286 6.712 37.2206 6.81 36.9872 7.006C36.7632 7.202 36.6512 7.48667 36.6512 7.86C36.6512 8.12133 36.7352 8.34067 36.9032 8.518C37.0806 8.686 37.2952 8.826 37.5472 8.938C37.8086 9.04067 38.1726 9.162 38.6392 9.302C39.2739 9.48867 39.7919 9.67533 40.1932 9.862C40.5946 10.0487 40.9399 10.3287 41.2292 10.702C41.5186 11.0753 41.6632 11.5653 41.6632 12.172C41.6632 12.6947 41.5279 13.18 41.2572 13.628C40.9866 14.076 40.5899 14.4353 40.0672 14.706C39.5446 14.9673 38.9239 15.098 38.2052 15.098ZM45.3225 5.228V15H43.3625V5.228H45.3225ZM55.617 15H53.657L49.219 8.294V15H47.259V5.214H49.219L53.657 11.934V5.214H55.617V15ZM64.3579 8.168C64.1339 7.75733 63.8259 7.44467 63.4339 7.23C63.0419 7.01533 62.5846 6.908 62.0619 6.908C61.4832 6.908 60.9699 7.03867 60.5219 7.3C60.0739 7.56133 59.7239 7.93467 59.4719 8.42C59.2199 8.90533 59.0939 9.46533 59.0939 10.1C59.0939 10.7533 59.2199 11.3227 59.4719 11.808C59.7332 12.2933 60.0926 12.6667 60.5499 12.928C61.0072 13.1893 61.5392 13.32 62.1459 13.32C62.8926 13.32 63.5039 13.124 63.9799 12.732C64.4559 12.3307 64.7686 11.7753 64.9179 11.066H61.5579V9.568H66.8499V11.276C66.7192 11.9573 66.4392 12.5873 66.0099 13.166C65.5806 13.7447 65.0252 14.2113 64.3439 14.566C63.6719 14.9113 62.9159 15.084 62.0759 15.084C61.1332 15.084 60.2792 14.874 59.5139 14.454C58.7579 14.0247 58.1606 13.432 57.7219 12.676C57.2926 11.92 57.0779 11.0613 57.0779 10.1C57.0779 9.13867 57.2926 8.28 57.7219 7.524C58.1606 6.75867 58.7579 6.166 59.5139 5.746C60.2792 5.31667 61.1286 5.102 62.0619 5.102C63.1632 5.102 64.1199 5.37267 64.9319 5.914C65.7439 6.446 66.3039 7.19733 66.6119 8.168H64.3579ZM78.2859 5.228V6.81H75.6819V15H73.7219V6.81H71.1179V5.228H78.2859ZM85.708 13.138H81.816L81.172 15H79.114L82.628 5.214H84.91L88.424 15H86.352L85.708 13.138ZM85.176 11.57L83.762 7.482L82.348 11.57H85.176ZM91.6975 13.446H94.9175V15H89.7375V5.228H91.6975V13.446ZM98.1233 6.81V9.26H101.413V10.814H98.1233V13.404H101.833V15H96.1633V5.214H101.833V6.81H98.1233ZM111.972 15H110.012L105.574 8.294V15H103.614V5.214H105.574L110.012 11.934V5.214H111.972V15ZM120.559 5.228V6.81H117.955V15H115.995V6.81H113.391V5.228H120.559Z" fill="#2F2F2F"/>
<path d="M25.2715 35H24.1816V27.7754L21.9961 28.5781V27.5938L25.1016 26.4277H25.2715V35ZM33.7969 31.3613C33.7969 32.6309 33.5801 33.5742 33.1465 34.1914C32.7129 34.8086 32.0352 35.1172 31.1133 35.1172C30.2031 35.1172 29.5293 34.8164 29.0918 34.2148C28.6543 33.6094 28.4277 32.707 28.4121 31.5078V30.0605C28.4121 28.8066 28.6289 27.875 29.0625 27.2656C29.4961 26.6562 30.1758 26.3516 31.1016 26.3516C32.0195 26.3516 32.6953 26.6465 33.1289 27.2363C33.5625 27.8223 33.7852 28.7285 33.7969 29.9551V31.3613ZM32.7129 29.8789C32.7129 28.9609 32.584 28.293 32.3262 27.875C32.0684 27.4531 31.6602 27.2422 31.1016 27.2422C30.5469 27.2422 30.1426 27.4512 29.8887 27.8691C29.6348 28.2871 29.5039 28.9297 29.4961 29.7969V31.5312C29.4961 32.4531 29.6289 33.1348 29.8945 33.5762C30.1641 34.0137 30.5703 34.2324 31.1133 34.2324C31.6484 34.2324 32.0449 34.0254 32.3027 33.6113C32.5645 33.1973 32.7012 32.5449 32.7129 31.6543V29.8789ZM40.5352 31.3613C40.5352 32.6309 40.3184 33.5742 39.8848 34.1914C39.4512 34.8086 38.7734 35.1172 37.8516 35.1172C36.9414 35.1172 36.2676 34.8164 35.8301 34.2148C35.3926 33.6094 35.166 32.707 35.1504 31.5078V30.0605C35.1504 28.8066 35.3672 27.875 35.8008 27.2656C36.2344 26.6562 36.9141 26.3516 37.8398 26.3516C38.7578 26.3516 39.4336 26.6465 39.8672 27.2363C40.3008 27.8223 40.5234 28.7285 40.5352 29.9551V31.3613ZM39.4512 29.8789C39.4512 28.9609 39.3223 28.293 39.0645 27.875C38.8066 27.4531 38.3984 27.2422 37.8398 27.2422C37.2852 27.2422 36.8809 27.4512 36.627 27.8691C36.373 28.2871 36.2422 28.9297 36.2344 29.7969V31.5312C36.2344 32.4531 36.3672 33.1348 36.6328 33.5762C36.9023 34.0137 37.3086 34.2324 37.8516 34.2324C38.3867 34.2324 38.7832 34.0254 39.041 33.6113C39.3027 33.1973 39.4395 32.5449 39.4512 31.6543V29.8789ZM41.8301 28.1094C41.8301 27.5977 41.9922 27.1758 42.3164 26.8438C42.6445 26.5117 43.0645 26.3457 43.5762 26.3457C44.0957 26.3457 44.5156 26.5137 44.8359 26.8496C45.1602 27.1816 45.3223 27.6133 45.3223 28.1445V28.5605C45.3223 29.0762 45.1582 29.498 44.8301 29.8262C44.5059 30.1504 44.0918 30.3125 43.5879 30.3125C43.0801 30.3125 42.6602 30.1504 42.3281 29.8262C41.9961 29.498 41.8301 29.0625 41.8301 28.5195V28.1094ZM42.6387 28.5605C42.6387 28.8652 42.7246 29.1172 42.8965 29.3164C43.0684 29.5117 43.2988 29.6094 43.5879 29.6094C43.8652 29.6094 44.0879 29.5137 44.2559 29.3223C44.4277 29.1309 44.5137 28.8691 44.5137 28.5371V28.1094C44.5137 27.8047 44.4297 27.5527 44.2617 27.3535C44.0938 27.1543 43.8652 27.0547 43.5762 27.0547C43.2871 27.0547 43.0586 27.1543 42.8906 27.3535C42.7227 27.5527 42.6387 27.8125 42.6387 28.1328V28.5605ZM45.9844 32.9082C45.9844 32.3965 46.1465 31.9766 46.4707 31.6484C46.7988 31.3164 47.2188 31.1504 47.7305 31.1504C48.2422 31.1504 48.6621 31.3145 48.9902 31.6426C49.3184 31.9707 49.4824 32.4062 49.4824 32.9492V33.3652C49.4824 33.877 49.3184 34.2988 48.9902 34.6309C48.666 34.959 48.25 35.123 47.7422 35.123C47.2344 35.123 46.8145 34.9609 46.4824 34.6367C46.1504 34.3086 45.9844 33.873 45.9844 33.3301V32.9082ZM46.793 33.3652C46.793 33.6738 46.8789 33.9277 47.0508 34.127C47.2227 34.3223 47.4531 34.4199 47.7422 34.4199C48.0234 34.4199 48.248 34.3242 48.416 34.1328C48.584 33.9375 48.668 33.6738 48.668 33.3418V32.9082C48.668 32.5996 48.582 32.3477 48.4102 32.1523C48.2422 31.957 48.0156 31.8594 47.7305 31.8594C47.4531 31.8594 47.2266 31.957 47.0508 32.1523C46.8789 32.3438 46.793 32.6035 46.793 32.9316V33.3652ZM43.834 34.3555L43.2188 33.9688L47.3848 27.3008L48 27.6875L43.834 34.3555ZM57.5449 26.4688H58.6758V32.5098C58.6758 33.3262 58.4297 33.9648 57.9375 34.4258C57.4492 34.8867 56.7969 35.1172 55.9805 35.1172C55.1328 35.1172 54.4727 34.9004 54 34.4668C53.5273 34.0332 53.291 33.4258 53.291 32.6445H54.416C54.416 33.1328 54.5488 33.5137 54.8145 33.7871C55.084 34.0605 55.4727 34.1973 55.9805 34.1973C56.4453 34.1973 56.8203 34.0508 57.1055 33.7578C57.3945 33.4648 57.541 33.0547 57.5449 32.5273V26.4688ZM60.1348 31.7715C60.1348 31.1504 60.2559 30.5918 60.498 30.0957C60.7441 29.5996 61.084 29.2168 61.5176 28.9473C61.9551 28.6777 62.4531 28.543 63.0117 28.543C63.875 28.543 64.5723 28.8418 65.1035 29.4395C65.6387 30.0371 65.9062 30.832 65.9062 31.8242V31.9004C65.9062 32.5176 65.7871 33.0723 65.5488 33.5645C65.3145 34.0527 64.9766 34.4336 64.5352 34.707C64.0977 34.9805 63.5938 35.1172 63.0234 35.1172C62.1641 35.1172 61.4668 34.8184 60.9316 34.2207C60.4004 33.623 60.1348 32.832 60.1348 31.8477V31.7715ZM61.2246 31.9004C61.2246 32.6035 61.3867 33.168 61.7109 33.5938C62.0391 34.0195 62.4766 34.2324 63.0234 34.2324C63.5742 34.2324 64.0117 34.0176 64.3359 33.5879C64.6602 33.1543 64.8223 32.5488 64.8223 31.7715C64.8223 31.0762 64.6562 30.5137 64.3242 30.084C63.9961 29.6504 63.5586 29.4336 63.0117 29.4336C62.4766 29.4336 62.0449 29.6465 61.7168 30.0723C61.3887 30.498 61.2246 31.1074 61.2246 31.9004ZM72.6328 31.9004C72.6328 32.8691 72.4102 33.6484 71.9648 34.2383C71.5195 34.8242 70.9219 35.1172 70.1719 35.1172C69.3711 35.1172 68.752 34.834 68.3145 34.2676L68.2617 35H67.2656V26H68.3496V29.3574C68.7871 28.8145 69.3906 28.543 70.1602 28.543C70.9297 28.543 71.5332 28.834 71.9707 29.416C72.4121 29.998 72.6328 30.7949 72.6328 31.8066V31.9004ZM71.5488 31.7773C71.5488 31.0391 71.4062 30.4688 71.1211 30.0664C70.8359 29.6641 70.4258 29.4629 69.8906 29.4629C69.1758 29.4629 68.6621 29.7949 68.3496 30.459V33.2012C68.6816 33.8652 69.1992 34.1973 69.9023 34.1973C70.4219 34.1973 70.8262 33.9961 71.1152 33.5938C71.4043 33.1914 71.5488 32.5859 71.5488 31.7773ZM79.6641 31.1973C78.6992 30.9199 77.9961 30.5801 77.5547 30.1777C77.1172 29.7715 76.8984 29.2715 76.8984 28.6777C76.8984 28.0059 77.166 27.4512 77.7012 27.0137C78.2402 26.5723 78.9395 26.3516 79.7988 26.3516C80.3848 26.3516 80.9062 26.4648 81.3633 26.6914C81.8242 26.918 82.1797 27.2305 82.4297 27.6289C82.6836 28.0273 82.8105 28.4629 82.8105 28.9355H81.6797C81.6797 28.4199 81.5156 28.0156 81.1875 27.7227C80.8594 27.4258 80.3965 27.2773 79.7988 27.2773C79.2441 27.2773 78.8105 27.4004 78.498 27.6465C78.1895 27.8887 78.0352 28.2266 78.0352 28.6602C78.0352 29.0078 78.1816 29.3027 78.4746 29.5449C78.7715 29.7832 79.2734 30.002 79.9805 30.2012C80.6914 30.4004 81.2461 30.6211 81.6445 30.8633C82.0469 31.1016 82.3438 31.3809 82.5352 31.7012C82.7305 32.0215 82.8281 32.3984 82.8281 32.832C82.8281 33.5234 82.5586 34.0781 82.0195 34.4961C81.4805 34.9102 80.7598 35.1172 79.8574 35.1172C79.2715 35.1172 78.7246 35.0059 78.2168 34.7832C77.709 34.5566 77.3164 34.248 77.0391 33.8574C76.7656 33.4668 76.6289 33.0234 76.6289 32.5273H77.7598C77.7598 33.043 77.9492 33.4512 78.3281 33.752C78.7109 34.0488 79.2207 34.1973 79.8574 34.1973C80.4512 34.1973 80.9062 34.0762 81.2227 33.834C81.5391 33.5918 81.6973 33.2617 81.6973 32.8438C81.6973 32.4258 81.5508 32.1035 81.2578 31.877C80.9648 31.6465 80.4336 31.4199 79.6641 31.1973ZM88.0195 34.373C87.5977 34.8691 86.9785 35.1172 86.1621 35.1172C85.4863 35.1172 84.9707 34.9219 84.6152 34.5312C84.2637 34.1367 84.0859 33.5547 84.082 32.7852V28.6602H85.166V32.7559C85.166 33.7168 85.5566 34.1973 86.3379 34.1973C87.166 34.1973 87.7168 33.8887 87.9902 33.2715V28.6602H89.0742V35H88.043L88.0195 34.373ZM93.2695 34.2324C93.6562 34.2324 93.9941 34.1152 94.2832 33.8809C94.5723 33.6465 94.7324 33.3535 94.7637 33.002H95.7891C95.7695 33.3652 95.6445 33.7109 95.4141 34.0391C95.1836 34.3672 94.875 34.6289 94.4883 34.8242C94.1055 35.0195 93.6992 35.1172 93.2695 35.1172C92.4062 35.1172 91.7188 34.8301 91.207 34.2559C90.6992 33.6777 90.4453 32.8887 90.4453 31.8887V31.707C90.4453 31.0898 90.5586 30.541 90.7852 30.0605C91.0117 29.5801 91.3359 29.207 91.7578 28.9414C92.1836 28.6758 92.6855 28.543 93.2637 28.543C93.9746 28.543 94.5645 28.7559 95.0332 29.1816C95.5059 29.6074 95.7578 30.1602 95.7891 30.8398H94.7637C94.7324 30.4297 94.5762 30.0938 94.2949 29.832C94.0176 29.5664 93.6738 29.4336 93.2637 29.4336C92.7129 29.4336 92.2852 29.6328 91.9805 30.0312C91.6797 30.4258 91.5293 30.998 91.5293 31.748V31.9531C91.5293 32.6836 91.6797 33.2461 91.9805 33.6406C92.2812 34.0352 92.7109 34.2324 93.2695 34.2324ZM99.5508 34.2324C99.9375 34.2324 100.275 34.1152 100.564 33.8809C100.854 33.6465 101.014 33.3535 101.045 33.002H102.07C102.051 33.3652 101.926 33.7109 101.695 34.0391C101.465 34.3672 101.156 34.6289 100.77 34.8242C100.387 35.0195 99.9805 35.1172 99.5508 35.1172C98.6875 35.1172 98 34.8301 97.4883 34.2559C96.9805 33.6777 96.7266 32.8887 96.7266 31.8887V31.707C96.7266 31.0898 96.8398 30.541 97.0664 30.0605C97.293 29.5801 97.6172 29.207 98.0391 28.9414C98.4648 28.6758 98.9668 28.543 99.5449 28.543C100.256 28.543 100.846 28.7559 101.314 29.1816C101.787 29.6074 102.039 30.1602 102.07 30.8398H101.045C101.014 30.4297 100.857 30.0938 100.576 29.832C100.299 29.5664 99.9551 29.4336 99.5449 29.4336C98.9941 29.4336 98.5664 29.6328 98.2617 30.0312C97.9609 30.4258 97.8105 30.998 97.8105 31.748V31.9531C97.8105 32.6836 97.9609 33.2461 98.2617 33.6406C98.5625 34.0352 98.9922 34.2324 99.5508 34.2324ZM105.92 35.1172C105.061 35.1172 104.361 34.8359 103.822 34.2734C103.283 33.707 103.014 32.9512 103.014 32.0059V31.8066C103.014 31.1777 103.133 30.6172 103.371 30.125C103.613 29.6289 103.949 29.2422 104.379 28.9648C104.812 28.6836 105.281 28.543 105.785 28.543C106.609 28.543 107.25 28.8145 107.707 29.3574C108.164 29.9004 108.393 30.6777 108.393 31.6895V32.1406H104.098C104.113 32.7656 104.295 33.2715 104.643 33.6582C104.994 34.041 105.439 34.2324 105.979 34.2324C106.361 34.2324 106.686 34.1543 106.951 33.998C107.217 33.8418 107.449 33.6348 107.648 33.377L108.311 33.8926C107.779 34.709 106.982 35.1172 105.92 35.1172ZM105.785 29.4336C105.348 29.4336 104.98 29.5938 104.684 29.9141C104.387 30.2305 104.203 30.6758 104.133 31.25H107.309V31.168C107.277 30.6172 107.129 30.1914 106.863 29.8906C106.598 29.5859 106.238 29.4336 105.785 29.4336ZM113.344 33.3184C113.344 33.0254 113.232 32.7988 113.01 32.6387C112.791 32.4746 112.406 32.334 111.855 32.2168C111.309 32.0996 110.873 31.959 110.549 31.7949C110.229 31.6309 109.99 31.4355 109.834 31.209C109.682 30.9824 109.605 30.7129 109.605 30.4004C109.605 29.8809 109.824 29.4414 110.262 29.082C110.703 28.7227 111.266 28.543 111.949 28.543C112.668 28.543 113.25 28.7285 113.695 29.0996C114.145 29.4707 114.369 29.9453 114.369 30.5234H113.279C113.279 30.2266 113.152 29.9707 112.898 29.7559C112.648 29.541 112.332 29.4336 111.949 29.4336C111.555 29.4336 111.246 29.5195 111.023 29.6914C110.801 29.8633 110.689 30.0879 110.689 30.3652C110.689 30.627 110.793 30.8242 111 30.957C111.207 31.0898 111.58 31.2168 112.119 31.3379C112.662 31.459 113.102 31.6035 113.438 31.7715C113.773 31.9395 114.021 32.1426 114.182 32.3809C114.346 32.6152 114.428 32.9023 114.428 33.2422C114.428 33.8086 114.201 34.2637 113.748 34.6074C113.295 34.9473 112.707 35.1172 111.984 35.1172C111.477 35.1172 111.027 35.0273 110.637 34.8477C110.246 34.668 109.939 34.418 109.717 34.0977C109.498 33.7734 109.389 33.4238 109.389 33.0488H110.473C110.492 33.4121 110.637 33.7012 110.906 33.916C111.18 34.127 111.539 34.2324 111.984 34.2324C112.395 34.2324 112.723 34.1504 112.969 33.9863C113.219 33.8184 113.344 33.5957 113.344 33.3184ZM119.531 33.3184C119.531 33.0254 119.42 32.7988 119.197 32.6387C118.979 32.4746 118.594 32.334 118.043 32.2168C117.496 32.0996 117.061 31.959 116.736 31.7949C116.416 31.6309 116.178 31.4355 116.021 31.209C115.869 30.9824 115.793 30.7129 115.793 30.4004C115.793 29.8809 116.012 29.4414 116.449 29.082C116.891 28.7227 117.453 28.543 118.137 28.543C118.855 28.543 119.438 28.7285 119.883 29.0996C120.332 29.4707 120.557 29.9453 120.557 30.5234H119.467C119.467 30.2266 119.34 29.9707 119.086 29.7559C118.836 29.541 118.52 29.4336 118.137 29.4336C117.742 29.4336 117.434 29.5195 117.211 29.6914C116.988 29.8633 116.877 30.0879 116.877 30.3652C116.877 30.627 116.98 30.8242 117.188 30.957C117.395 31.0898 117.768 31.2168 118.307 31.3379C118.85 31.459 119.289 31.6035 119.625 31.7715C119.961 31.9395 120.209 32.1426 120.369 32.3809C120.533 32.6152 120.615 32.9023 120.615 33.2422C120.615 33.8086 120.389 34.2637 119.936 34.6074C119.482 34.9473 118.895 35.1172 118.172 35.1172C117.664 35.1172 117.215 35.0273 116.824 34.8477C116.434 34.668 116.127 34.418 115.904 34.0977C115.686 33.7734 115.576 33.4238 115.576 33.0488H116.66C116.68 33.4121 116.824 33.7012 117.094 33.916C117.367 34.127 117.727 34.2324 118.172 34.2324C118.582 34.2324 118.91 34.1504 119.156 33.9863C119.406 33.8184 119.531 33.5957 119.531 33.3184Z" fill="#99A3A9"/>
</svg>
