<svg width="48" height="48" viewBox="0 0 48 48" fill="none" xmlns="http://www.w3.org/2000/svg">
<g clip-path="url(#clip0_2:3484)">
<path d="M16.7524 8.37682C18.7615 3.43911 23.6216 -0.0347071 29.2893 0.000261629C36.5196 0.0447929 42.4644 5.87689 42.6399 13.1052C42.7265 16.6714 41.4232 19.9322 39.2336 22.3849C37.4881 24.3401 36.6121 26.9153 36.7004 29.535C36.7121 29.8832 36.7139 30.2339 36.7053 30.5869C36.4743 40.0931 28.3534 48.0057 18.8443 48C8.98808 47.9941 0.999928 40.0022 0.999928 30.1446C0.999928 22.919 5.29218 16.6964 11.4659 13.8862C13.8721 12.7909 15.756 10.8256 16.7524 8.37682Z" fill="url(#paint0_linear_2:3484)"/>
<path opacity="0.11" d="M39.861 24.2659H39.9967C40.4681 24.2659 40.8922 23.9522 41.0038 23.4941C41.1701 22.8122 40.6583 22.2034 40.0043 22.2034H39.861L42.4149 19.6832C43.0116 19.0944 42.5947 18.0784 41.7565 18.0784H36.1617C35.9173 18.0784 35.6828 18.1747 35.5087 18.3463L31.6 22.2034H29.1597V7.10962C29.1597 6.02231 28.2783 5.14087 27.191 5.14087H7.87848C6.79117 5.14087 5.90973 6.02231 5.90973 7.10962V44.7971C5.90973 45.8844 6.79117 46.7659 7.87848 46.7659H27.191C28.2783 46.7659 29.1597 45.8844 29.1597 44.7971V24.2659H31.6L35.5087 28.1229C35.6826 28.2947 35.9173 28.3909 36.1617 28.3909H41.7565C42.5947 28.3909 43.0116 27.3748 42.4149 26.7861L39.861 24.2659Z" fill="#4582EC"/>
<path d="M31.1285 5.14087V42.8284C31.1285 43.9157 30.247 44.7971 29.1597 44.7971H9.84724C8.75992 44.7971 7.87849 43.9157 7.87849 42.8284V5.14087C7.87849 4.05356 8.75992 3.17212 9.84724 3.17212H29.1597C30.2471 3.17212 31.1285 4.05356 31.1285 5.14087Z" fill="white"/>
<path d="M31.1285 8.23462V5.14087C31.1285 4.05356 30.247 3.17212 29.1597 3.17212H9.84724C8.75992 3.17212 7.87849 4.05356 7.87849 5.14087V8.23462H31.1285Z" fill="#8FB4F4"/>
<path d="M11.1884 6.33499C11.4778 6.33499 11.7124 6.10036 11.7124 5.81093C11.7124 5.5215 11.4778 5.28687 11.1884 5.28687C10.8989 5.28687 10.6643 5.5215 10.6643 5.81093C10.6643 6.10036 10.8989 6.33499 11.1884 6.33499Z" fill="white"/>
<path d="M13.0549 6.33499C13.3443 6.33499 13.5789 6.10036 13.5789 5.81093C13.5789 5.5215 13.3443 5.28687 13.0549 5.28687C12.7655 5.28687 12.5308 5.5215 12.5308 5.81093C12.5308 6.10036 12.7655 6.33499 13.0549 6.33499Z" fill="white"/>
<path d="M14.9216 6.33499C15.2111 6.33499 15.4457 6.10036 15.4457 5.81093C15.4457 5.5215 15.2111 5.28687 14.9216 5.28687C14.6322 5.28687 14.3976 5.5215 14.3976 5.81093C14.3976 6.10036 14.6322 6.33499 14.9216 6.33499Z" fill="white"/>
<path d="M13.1573 33.3596H12.1887C11.9634 33.3596 11.7563 33.2088 11.7121 32.9879C11.6517 32.6866 11.8805 32.4221 12.1711 32.4221H13.1397C13.365 32.4221 13.5721 32.573 13.6163 32.7938C13.6768 33.0952 13.4481 33.3596 13.1573 33.3596Z" fill="#4582EC"/>
<path d="M25.316 39.3596H10.8785C10.6196 39.3596 10.4097 39.1498 10.4097 38.8909V34.6721C10.4097 34.4133 10.6196 34.2034 10.8785 34.2034H25.316C25.5748 34.2034 25.7847 34.4133 25.7847 34.6721V38.8909C25.7847 39.1498 25.5749 39.3596 25.316 39.3596Z" fill="#8FB4F4"/>
<path d="M41.6424 20.5159H33.3771L37.5706 16.3777C37.7447 16.2059 37.9795 16.1096 38.2241 16.1096H43.8229C44.6611 16.1096 45.078 17.1257 44.4814 17.7144L41.6424 20.5159Z" fill="#8FB4F4"/>
<path d="M36.5234 20.585C36.4024 20.585 36.2814 20.5384 36.1898 20.4455C36.0079 20.2613 36.0098 19.9645 36.1942 19.7826L38.397 17.6088C38.5812 17.4271 38.8781 17.4289 39.0598 17.6132C39.2417 17.7974 39.2397 18.0942 39.0554 18.2761L36.8526 20.4499C36.7613 20.54 36.6422 20.585 36.5234 20.585Z" fill="#4582EC"/>
<path d="M39.0734 20.585C38.9524 20.585 38.8315 20.5384 38.7398 20.4455C38.5579 20.2613 38.5599 19.9645 38.7442 19.7826L40.947 17.6088C41.1312 17.4271 41.4282 17.4289 41.6099 17.6132C41.7917 17.7974 41.7898 18.0942 41.6054 18.2761L39.4026 20.4499C39.3115 20.54 39.1924 20.585 39.0734 20.585Z" fill="#4582EC"/>
<path d="M43.8405 26.3284H38.2239C37.9792 26.3284 37.7438 26.2326 37.5698 26.0604L34.6549 23.1846L33.3756 21.9221H41.642L42.9212 23.1846L44.4944 24.7365C45.0863 25.3208 44.6723 26.3284 43.8405 26.3284Z" fill="#8FB4F4"/>
<path d="M38.7261 24.9657C38.6072 24.9657 38.4882 24.9208 38.3969 24.8306L36.194 22.6568C36.0097 22.4751 36.0078 22.1783 36.1896 21.9939C36.3714 21.8095 36.6684 21.8077 36.8524 21.9895L39.0553 24.1633C39.2396 24.3451 39.2416 24.6419 39.0597 24.8262C38.9681 24.9192 38.8471 24.9657 38.7261 24.9657Z" fill="#4582EC"/>
<path d="M41.2763 24.9657C41.1573 24.9657 41.0384 24.9208 40.947 24.8306L38.7442 22.6568C38.5599 22.4751 38.5579 22.1783 38.7398 21.9939C38.9216 21.8095 39.2185 21.8077 39.4026 21.9895L41.6054 24.1633C41.7898 24.3451 41.7917 24.6419 41.6099 24.8262C41.5183 24.9192 41.3973 24.9657 41.2763 24.9657Z" fill="#4582EC"/>
<path d="M19.7536 30.6981C24.7806 30.6981 28.8559 26.4546 28.8559 21.2199C28.8559 15.9852 24.7806 11.7417 19.7536 11.7417C14.7265 11.7417 10.6513 15.9852 10.6513 21.2199C10.6513 26.4546 14.7265 30.6981 19.7536 30.6981Z" fill="#8FB4F4"/>
<path d="M19.7537 27.3231C22.8 27.3231 25.2695 24.5906 25.2695 21.2199C25.2695 17.8492 22.8 15.1167 19.7537 15.1167C16.7074 15.1167 14.2379 17.8492 14.2379 21.2199C14.2379 24.5906 16.7074 27.3231 19.7537 27.3231Z" fill="white"/>
<path d="M19.7539 23.9481C18.8432 23.9481 17.8246 22.7814 17.8246 21.2199C17.8246 19.6584 18.8432 18.4917 19.7539 18.4917C20.6645 18.4917 21.683 19.6584 21.683 21.2199C21.683 22.7814 20.6645 23.9481 19.7539 23.9481Z" fill="#8FB4F4"/>
<path d="M42.0156 22.2971H19.7847V20.2346H41.9855C42.4591 20.2346 42.8865 20.5507 42.9941 21.012C43.1526 21.6917 42.6533 22.2971 42.0156 22.2971Z" fill="white"/>
<path d="M21.5949 36.5471H12.1888C11.9635 36.5471 11.7565 36.3963 11.7122 36.1754C11.6518 35.8741 11.8806 35.6096 12.1712 35.6096H21.5773C21.8026 35.6096 22.0097 35.7605 22.054 35.9813C22.1143 36.2827 21.8856 36.5471 21.5949 36.5471Z" fill="#4582EC"/>
<path d="M21.5949 38.2346H12.1888C11.9635 38.2346 11.7565 38.0838 11.7122 37.8629C11.6518 37.5616 11.8806 37.2971 12.1712 37.2971H21.5773C21.8026 37.2971 22.0097 37.448 22.054 37.6688C22.1143 37.9702 21.8856 38.2346 21.5949 38.2346Z" fill="#4582EC"/>
<path d="M19.5475 42.1254C19.423 42.1254 19.3037 42.0759 19.2157 41.9878L18.6692 41.4403C18.4863 41.2571 18.4866 40.9603 18.6697 40.7774C18.8529 40.5946 19.1498 40.5948 19.3326 40.7779L19.5474 40.9931L19.7623 40.7779C19.9452 40.5948 20.242 40.5945 20.4252 40.7774C20.6084 40.9603 20.6087 41.2571 20.4258 41.4403L19.8792 41.9878C19.7914 42.0759 19.6721 42.1254 19.5475 42.1254Z" fill="#4582EC"/>
<path d="M25.1777 36.3596H24.6972C24.107 36.3596 23.6285 35.8811 23.6285 35.2909V33.8659C23.6285 33.2756 24.107 32.7971 24.6972 32.7971H25.1847C25.775 32.7971 26.2535 33.2756 26.2535 33.8659V35.2987C26.2536 35.8837 25.771 36.3596 25.1777 36.3596ZM24.566 33.8659V35.2909C24.566 35.3633 24.6248 35.4221 24.6972 35.4221H25.1847C25.2572 35.4221 25.316 35.3633 25.316 35.2909V33.8659C25.316 33.7934 25.2572 33.7346 25.1847 33.7346H24.6972C24.6248 33.7346 24.566 33.7934 24.566 33.8659Z" fill="#4582EC"/>
<path d="M27.2848 36.0732V33.7347H27.1158C27.0686 33.7347 27.0239 33.7145 26.9913 33.6806C26.6026 33.2772 26.8819 32.7972 27.2734 32.7972H28.0572C28.1484 32.7972 28.2223 32.8712 28.2223 32.9623V35.9175C28.2223 36.3086 27.7433 36.5878 27.3403 36.2008C27.3055 36.1673 27.2848 36.1213 27.2848 36.0732Z" fill="#4582EC"/>
<path d="M19.316 16.2397V11.0983C19.316 10.873 19.4668 10.6659 19.6877 10.6216C19.989 10.5611 20.2535 10.79 20.2535 11.0806V16.2574C20.2535 16.548 19.989 16.7769 19.6877 16.7165C19.4668 16.6721 19.316 16.465 19.316 16.2397Z" fill="#4582EC"/>
<path d="M19.316 31.3413V26.1998C19.316 25.9746 19.4668 25.7675 19.6877 25.7231C19.989 25.6627 20.2535 25.8916 20.2535 26.1821V31.359C20.2535 31.6495 19.989 31.8785 19.6877 31.818C19.4668 31.7737 19.316 31.5666 19.316 31.3413Z" fill="#4582EC"/>
<path d="M25.691 17.6966V17.4038C25.691 17.1784 25.8419 16.9713 26.063 16.927C26.3643 16.8668 26.6285 17.0957 26.6285 17.3861V17.7143C26.6285 18.0047 26.3643 18.2335 26.063 18.1733C25.842 18.1291 25.691 17.922 25.691 17.6966Z" fill="#4582EC"/>
<path d="M23.6285 15.1574V14.8646C23.6285 14.6392 23.7794 14.4321 24.0005 14.3878C24.3018 14.3277 24.566 14.5565 24.566 14.8469V15.1751C24.566 15.4655 24.3018 15.6944 24.0005 15.6342C23.7795 15.5899 23.6285 15.3828 23.6285 15.1574Z" fill="#4582EC"/>
<path d="M25.691 25.0013V24.7084C25.691 24.4831 25.8419 24.276 26.063 24.2317C26.3643 24.1715 26.6285 24.4004 26.6285 24.6908V25.0189C26.6285 25.3094 26.3643 25.5382 26.063 25.478C25.842 25.4338 25.691 25.2267 25.691 25.0013Z" fill="#4582EC"/>
<path d="M23.6285 27.5404V27.2475C23.6285 27.0221 23.7794 26.815 24.0005 26.7708C24.3018 26.7106 24.566 26.9393 24.566 27.2299V27.558C24.566 27.8484 24.3018 28.0773 24.0005 28.0171C23.7795 27.9728 23.6285 27.7657 23.6285 27.5404Z" fill="#4582EC"/>
<path d="M12.8472 17.6965V17.4038C12.8472 17.1785 12.9981 16.9715 13.2189 16.9271C13.5203 16.8666 13.7847 17.0956 13.7847 17.3861V17.7142C13.7847 18.0048 13.5203 18.2337 13.2189 18.1732C12.9981 18.1289 12.8472 17.9218 12.8472 17.6965Z" fill="#4582EC"/>
<path d="M14.9097 15.1573V14.8646C14.9097 14.6394 15.0606 14.4323 15.2814 14.3879C15.5828 14.3275 15.8472 14.5564 15.8472 14.8469V15.1751C15.8472 15.4656 15.5828 15.6945 15.2814 15.634C15.0606 15.5897 14.9097 15.3826 14.9097 15.1573Z" fill="#4582EC"/>
<path d="M12.8472 25.0012V24.7085C12.8472 24.4832 12.9981 24.2761 13.2189 24.2318C13.5203 24.1713 13.7847 24.4003 13.7847 24.6908V25.0189C13.7847 25.3095 13.5203 25.5384 13.2189 25.4779C12.9981 25.4336 12.8472 25.2265 12.8472 25.0012Z" fill="#4582EC"/>
<path d="M14.9097 27.5404V27.2477C14.9097 27.0224 15.0606 26.8153 15.2814 26.771C15.5828 26.7105 15.8472 26.9395 15.8472 27.23V27.5581C15.8472 27.8486 15.5828 28.0776 15.2814 28.0171C15.0606 27.9728 14.9097 27.7657 14.9097 27.5404Z" fill="#4582EC"/>
<path d="M41.6345 34.4846H41.3474V34.1976C41.3474 33.9722 41.1965 33.7651 40.9754 33.7209C40.6741 33.6607 40.4099 33.8894 40.4099 34.18V34.4846H40.1229C39.8976 34.4846 39.6905 34.6355 39.6462 34.8564C39.5859 35.1577 39.8146 35.4221 40.1052 35.4221H40.4099V35.7092C40.4099 35.9346 40.5609 36.1417 40.7819 36.1859C41.0832 36.2462 41.3474 36.0174 41.3474 35.7268V35.4221H41.6521C41.9427 35.4221 42.1715 35.1577 42.1111 34.8564C42.0669 34.6355 41.8598 34.4846 41.6345 34.4846Z" fill="#8FB4F4"/>
<path d="M34.5095 3.26589H34.2224V2.97883C34.2224 2.75345 34.0715 2.54626 33.8504 2.50211C33.5491 2.44192 33.2849 2.67067 33.2849 2.9612V3.26589H32.9979C32.7726 3.26589 32.5655 3.41673 32.5212 3.63761C32.4609 3.93892 32.6896 4.20339 32.9802 4.20339H33.2849V4.49045C33.2849 4.71583 33.4359 4.92292 33.6569 4.96717C33.9582 5.02736 34.2224 4.79851 34.2224 4.50808V4.20339H34.5271C34.8177 4.20339 35.0465 3.93892 34.9861 3.63761C34.9419 3.41673 34.7348 3.26589 34.5095 3.26589Z" fill="#8FB4F4"/>
<path d="M4.69667 39.1721H4.4097V38.8852C4.4097 38.6599 4.25886 38.4528 4.03798 38.4084C3.73667 38.348 3.4722 38.5769 3.4722 38.8674V39.1721H3.18523C2.95995 39.1721 2.75286 39.323 2.70851 39.5438C2.64805 39.8451 2.87698 40.1096 3.16751 40.1096H3.4722V40.3966C3.4722 40.6219 3.62305 40.829 3.84392 40.8733C4.14523 40.9338 4.4097 40.7048 4.4097 40.4143V40.1096H4.71439C5.00492 40.1096 5.23386 39.8451 5.17339 39.5438C5.12914 39.323 4.92205 39.1721 4.69667 39.1721Z" fill="#8FB4F4"/>
<path d="M36.645 33.1375C36.5083 33.1375 36.3709 33.1168 36.2368 33.0751C35.8876 32.9665 35.6017 32.7285 35.4315 32.4048C35.2614 32.0811 35.2275 31.7105 35.336 31.3613C35.5603 30.6406 36.3285 30.2365 37.0499 30.4607C37.399 30.5693 37.6849 30.8073 37.8551 31.131C38.0251 31.4547 38.0591 31.8253 37.9505 32.1744C37.842 32.5236 37.6039 32.8096 37.2802 32.9798C37.081 33.0844 36.864 33.1375 36.645 33.1375ZM36.6437 31.3363C36.4597 31.3363 36.2889 31.455 36.2314 31.6398C36.1972 31.7498 36.2079 31.8666 36.2614 31.9686C36.3151 32.0706 36.4052 32.1457 36.5153 32.1799C36.6253 32.214 36.7421 32.2035 36.8442 32.1498C36.9463 32.0962 37.0213 32.0061 37.0555 31.896C37.0897 31.7859 37.079 31.6691 37.0255 31.5671C36.9719 31.4651 36.8817 31.3901 36.7717 31.3559C36.729 31.3426 36.6859 31.3363 36.6437 31.3363Z" fill="#8FB4F4"/>
<path d="M4.67369 37.181C4.53934 37.181 4.40284 37.161 4.26803 37.1191C3.91881 37.0105 3.63287 36.7725 3.46272 36.4488C3.29266 36.1251 3.25872 35.7545 3.36728 35.4054C3.47584 35.0562 3.71387 34.7702 4.03759 34.6001C4.36141 34.4301 4.7319 34.396 5.08103 34.5047C5.43025 34.6133 5.71628 34.8513 5.88634 35.175C6.0565 35.4987 6.09034 35.8692 5.98178 36.2184C5.79962 36.8044 5.25737 37.181 4.67369 37.181ZM4.67481 35.3803C4.49078 35.3803 4.31997 35.499 4.2625 35.6837C4.22828 35.7938 4.23897 35.9106 4.29259 36.0126C4.34622 36.1146 4.43641 36.1897 4.54647 36.2239C4.77334 36.2942 5.01587 36.1672 5.08665 35.9399C5.12087 35.8299 5.11019 35.7131 5.05656 35.611C5.00294 35.509 4.91275 35.4339 4.80269 35.3997C4.76022 35.3866 4.71719 35.3803 4.67481 35.3803ZM5.53422 36.0784H5.53515H5.53422Z" fill="#8FB4F4"/>
<path d="M42.8375 22.4344C43.2229 22.1677 43.4763 21.7229 43.4763 21.2198C43.4763 20.7166 43.2229 20.2719 42.8375 20.0052L44.8788 17.9909C45.2929 17.5823 45.4129 16.9942 45.1921 16.456C44.9713 15.9178 44.4727 15.5835 43.8911 15.5835H38.2309C37.8588 15.5835 37.508 15.7274 37.2431 15.9888L33.4388 19.7429H31.6391V5.13623C31.6391 3.79223 30.5457 2.69873 29.2016 2.69873H9.92323C8.57923 2.69873 7.48573 3.79223 7.48573 5.13623V35.2766C7.48573 35.5354 7.69564 35.7453 7.95448 35.7453C8.21333 35.7453 8.42323 35.5354 8.42323 35.2766V8.7187H30.7017V19.7429H20.2373V18.4915C20.2373 18.2326 20.0274 18.0227 19.7686 18.0227C19.5097 18.0227 19.2998 18.2326 19.2998 18.4915V23.9479C19.2998 24.2068 19.5097 24.4167 19.7686 24.4167C20.0274 24.4167 20.2373 24.2068 20.2373 23.9479V20.6804H41.9994C42.2968 20.6804 42.5388 20.9223 42.5388 21.2197C42.5388 21.5171 42.2968 21.759 41.9994 21.759H22.3661C22.1073 21.759 21.8974 21.9689 21.8974 22.2278C21.8974 22.4866 22.1073 22.6965 22.3661 22.6965H30.7017V42.8636C30.7017 43.6906 30.0288 44.3636 29.2017 44.3636H9.92323C9.09617 44.3636 8.42323 43.6906 8.42323 42.8636V37.9108C8.42323 37.6519 8.21333 37.442 7.95448 37.442C7.69564 37.442 7.48573 37.6519 7.48573 37.9108V42.8636C7.48573 44.2076 8.57923 45.3011 9.92323 45.3011H29.2017C30.5458 45.3011 31.6392 44.2076 31.6392 42.8636V22.6966H33.4388L37.2431 26.4507C37.508 26.712 37.8589 26.8559 38.2309 26.8559H43.8911C44.4727 26.8559 44.9712 26.5217 45.1921 25.9835C45.413 25.4453 45.2929 24.8573 44.8788 24.4486L42.8375 22.4344ZM8.42323 7.7812V5.13623C8.42323 4.30917 9.09617 3.63623 9.92323 3.63623H29.2017C30.0288 3.63623 30.7017 4.30917 30.7017 5.13623V7.7812H8.42323ZM37.9015 16.6562C37.9897 16.569 38.1067 16.5211 38.2309 16.5211H43.8911C44.1828 16.5211 44.2968 16.7437 44.3247 16.8119C44.3527 16.8802 44.428 17.1187 44.2204 17.3236L41.7686 19.743H34.7735L37.9015 16.6562ZM44.3247 25.6277C44.2968 25.696 44.1828 25.9185 43.8911 25.9185H38.2309C38.1068 25.9185 37.9899 25.8705 37.9015 25.7834L34.7735 22.6967H41.7684L44.2203 25.1161C44.4279 25.321 44.3527 25.5594 44.3247 25.6277Z" fill="#4582EC"/>
</g>
<defs>
<linearGradient id="paint0_linear_2:3484" x1="40.3222" y1="8" x2="-2.12006" y2="33.3996" gradientUnits="userSpaceOnUse">
<stop stop-color="#98BEFF" stop-opacity="0"/>
<stop offset="1" stop-color="#FBFCFF"/>
</linearGradient>
<clipPath id="clip0_2:3484">
<rect width="48" height="48" fill="white"/>
</clipPath>
</defs>
</svg>
