<svg width="48" height="48" viewBox="0 0 48 48" fill="none" xmlns="http://www.w3.org/2000/svg">
<g clip-path="url(#clip0_2:3025)">
<path d="M9.34166 3.58424C-3.34534 14.7909 12.982 25.6538 11.4269 37.8994C10.7355 43.3436 12.932 48.5482 20.118 47.9535C28.8755 47.2286 25.6965 38.8401 27.5305 33.2556C30.6861 23.6461 50.0989 25.8905 42.0519 11.0885C36.9164 1.64249 18.0737 -4.12905 9.34166 3.58424Z" fill="url(#paint0_linear_2:3025)"/>
<path opacity="0.1" d="M32.2148 12.9904C31.9812 12.9904 31.7527 13.0774 31.531 13.2421L21.2315 17.0315V16.4799C21.2315 13.9117 19.1496 11.8298 16.5814 11.8298H14.583C14.6393 11.5602 14.6693 11.281 14.6693 10.9946C14.6693 8.75097 12.8505 6.93213 10.6069 6.93213C8.36325 6.93213 6.5444 8.75097 6.5444 10.9946C6.5444 11.6872 6.71812 12.3391 7.02375 12.9096C6.00243 13.7627 5.35237 15.0452 5.35237 16.4798C5.35237 19.048 7.43428 21.1299 10.0025 21.1299H10.0922L4.93265 23.0283C3.8264 23.4352 3.09131 24.489 3.09131 25.6678V30.0318C3.09131 31.2105 3.8264 32.2642 4.93265 32.6713L6.5444 33.2643V38.1209C6.5444 39.38 7.30115 40.4924 8.47228 40.9548L17.0661 44.3479C17.4279 44.4908 17.8075 44.5611 18.1853 44.5611C18.7879 44.5611 19.3857 44.3822 19.8987 44.0331C20.7335 43.4652 21.2318 42.5235 21.2318 41.5139V38.6681C21.2318 38.6681 31.9813 42.7091 32.2149 42.7091C34.269 42.7091 35.9341 36.0563 35.9341 27.8497C35.9341 19.6432 34.2689 12.9904 32.2148 12.9904ZM18.888 41.514C18.888 41.8498 18.6728 42.0324 18.5803 42.0953C18.4879 42.1582 18.239 42.2912 17.9266 42.168L9.3329 38.7749C9.06262 38.6682 8.88797 38.4115 8.88797 38.1209V34.1267L18.888 37.8059V41.514Z" fill="#4582EC"/>
<path d="M25.1377 8.45679C24.8789 8.45679 24.669 8.24688 24.669 7.98804C24.669 7.67782 24.4166 7.42554 24.1064 7.42554C23.8475 7.42554 23.6376 7.21563 23.6376 6.95679C23.6376 6.69794 23.8475 6.48804 24.1064 6.48804C24.4166 6.48804 24.669 6.23576 24.669 5.92554C24.669 5.66669 24.8789 5.45679 25.1377 5.45679C25.3966 5.45679 25.6065 5.66669 25.6065 5.92554C25.6065 6.23576 25.8588 6.48804 26.1689 6.48804C26.4277 6.48804 26.6376 6.69794 26.6376 6.95679C26.6376 7.21563 26.4277 7.42554 26.1689 7.42554C25.8588 7.42554 25.6065 7.67782 25.6065 7.98804C25.6065 8.24697 25.3966 8.45679 25.1377 8.45679Z" fill="#8FB4F4"/>
<path d="M38.4611 41.9592C38.2022 41.9592 37.9923 41.7493 37.9923 41.4905C37.9923 41.1803 37.74 40.928 37.4298 40.928C37.171 40.928 36.9611 40.7181 36.9611 40.4592C36.9611 40.2004 37.171 39.9905 37.4298 39.9905C37.74 39.9905 37.9923 39.7382 37.9923 39.428C37.9923 39.1691 38.2022 38.9592 38.4611 38.9592C38.7199 38.9592 38.9298 39.1691 38.9298 39.428C38.9298 39.7382 39.1821 39.9905 39.4923 39.9905C39.7512 39.9905 39.9611 40.2004 39.9611 40.4592C39.9611 40.7181 39.7512 40.928 39.4923 40.928C39.1821 40.928 38.9298 41.1803 38.9298 41.4905C38.9298 41.7494 38.7199 41.9592 38.4611 41.9592Z" fill="#8FB4F4"/>
<path d="M21.2976 5.96997C21.0388 5.96997 20.8289 5.76006 20.8289 5.50122C20.8289 5.191 20.5766 4.93872 20.2664 4.93872C20.0075 4.93872 19.7976 4.72881 19.7976 4.46997C19.7976 4.21113 20.0075 4.00122 20.2664 4.00122C20.5766 4.00122 20.8289 3.74894 20.8289 3.43872C20.8289 3.17988 21.0388 2.96997 21.2976 2.96997C21.5565 2.96997 21.7664 3.17988 21.7664 3.43872C21.7664 3.74894 22.0186 4.00122 22.3289 4.00122C22.5877 4.00122 22.7976 4.21113 22.7976 4.46997C22.7976 4.72881 22.5877 4.93872 22.3289 4.93872C22.0186 4.93872 21.7664 5.191 21.7664 5.50122C21.7664 5.76006 21.5565 5.96997 21.2976 5.96997Z" fill="#8FB4F4"/>
<path d="M36.3983 9.70034C36.2783 9.70034 36.1584 9.65459 36.0668 9.56309L35.0355 8.53184C34.8525 8.34875 34.8525 8.05194 35.0355 7.86894L36.0668 6.83769C36.2499 6.65469 36.5466 6.65469 36.7297 6.83769L37.7609 7.86894C37.944 8.05203 37.944 8.34884 37.7609 8.53184L36.7297 9.56309C36.6382 9.65459 36.5183 9.70034 36.3983 9.70034ZM36.0299 8.20034L36.3983 8.56869L36.7666 8.20034L36.3983 7.832L36.0299 8.20034Z" fill="#8FB4F4"/>
<path d="M8.48121 44.3605C8.36121 44.3605 8.2413 44.3148 8.14971 44.2233L7.11846 43.192C6.93537 43.0089 6.93537 42.7121 7.11846 42.5291L8.14971 41.4978C8.3328 41.3148 8.62952 41.3148 8.81261 41.4978L9.84386 42.5291C10.027 42.7122 10.027 43.009 9.84386 43.192L8.81261 44.2233C8.72111 44.3147 8.60112 44.3605 8.48121 44.3605ZM8.11287 42.8605L8.48121 43.2289L8.84955 42.8605L8.48121 42.4922L8.11287 42.8605Z" fill="#8FB4F4"/>
<path d="M8.88803 29.2703V35.871C8.88803 36.1616 9.06269 36.4183 9.33297 36.525L17.9267 39.9181C18.239 40.0414 18.4878 39.9085 18.5804 39.8455C18.6729 39.7825 18.8881 39.5999 18.8881 39.2641V33.7077H21.2318V39.2641C21.2318 40.2737 20.7334 41.2154 19.8987 41.7834C19.3857 42.1324 18.7878 42.3114 18.1853 42.3114C17.8075 42.3114 17.4279 42.241 17.066 42.0981L8.47225 38.705C7.30112 38.2425 6.54437 37.1302 6.54437 35.871V29.2703H8.88803Z" fill="white"/>
<path d="M3.09106 23.4179V27.7819C3.09106 28.9607 3.82616 30.0144 4.93241 30.4214L32.2148 40.4592V10.7405L4.9325 20.7784C3.82616 21.1854 3.09106 22.2392 3.09106 23.4179Z" fill="white"/>
<path d="M20.009 29.7201L10.0715 26.0639C9.45952 25.8387 8.8103 26.2916 8.8103 26.9437V28.6161C8.8103 29.009 9.05537 29.3603 9.42408 29.496L19.3616 33.1522C19.9736 33.3774 20.6228 32.9245 20.6228 32.2724V30.5999C20.6228 30.207 20.3777 29.8558 20.009 29.7201Z" fill="#8FB4F4"/>
<path d="M12.4975 17.9946V33.2046L4.9328 30.4212C3.82655 30.0143 3.09155 28.9606 3.09155 27.7821V23.4181C3.09155 22.2387 3.82655 21.1849 4.9328 20.7781L7.44999 19.8518L12.4975 17.9946Z" fill="#8FB4F4"/>
<path d="M3.09155 23.6357H5.0454C5.30424 23.6357 5.51415 23.8456 5.51415 24.1045C5.51415 24.3633 5.30424 24.5732 5.0454 24.5732H3.09155V23.6357Z" fill="#4582EC"/>
<path d="M3.09155 25.1309H5.0454C5.30424 25.1309 5.51415 25.3408 5.51415 25.5996C5.51415 25.8585 5.30424 26.0684 5.0454 26.0684H3.09155V25.1309Z" fill="#4582EC"/>
<path d="M3.09155 26.626H5.0454C5.30424 26.626 5.51415 26.8359 5.51415 27.0947C5.51415 27.3536 5.30424 27.5635 5.0454 27.5635H3.09155V26.626Z" fill="#4582EC"/>
<path d="M32.2148 40.4592C34.2689 40.4592 35.934 33.8065 35.934 25.5999C35.934 17.3932 34.2689 10.7405 32.2148 10.7405C30.1608 10.7405 28.4957 17.3932 28.4957 25.5999C28.4957 33.8065 30.1608 40.4592 32.2148 40.4592Z" fill="white"/>
<path d="M32.1675 25.6C32.1675 27.5894 30.586 29.2103 28.6107 29.2703C28.5357 28.0966 28.4963 26.8666 28.4963 25.6C28.4963 24.3334 28.5357 23.1034 28.6107 21.9297C30.586 21.9897 32.1675 23.6106 32.1675 25.6Z" fill="#8FB4F4"/>
<path d="M20.7626 18.88H10.0022C7.43402 18.88 5.35211 16.7981 5.35211 14.2299C5.35211 11.6617 7.43402 9.57983 10.0022 9.57983H16.5812C19.1494 9.57983 21.2313 11.6617 21.2313 14.2299V18.4113C21.2313 18.6701 21.0215 18.88 20.7626 18.88Z" fill="white"/>
<path d="M17.9371 14.886H9.35712C9.09818 14.886 8.88837 14.6761 8.88837 14.4172C8.88837 14.1584 9.09818 13.9485 9.35712 13.9485H17.9371C18.1961 13.9485 18.4059 14.1584 18.4059 14.4172C18.4059 14.6762 18.196 14.886 17.9371 14.886Z" fill="#4582EC"/>
<path d="M17.9371 16.635H9.35712C9.09818 16.635 8.88837 16.4251 8.88837 16.1663C8.88837 15.9074 9.09818 15.6975 9.35712 15.6975H17.9371C18.1961 15.6975 18.4059 15.9074 18.4059 16.1663C18.4059 16.4251 18.196 16.635 17.9371 16.635Z" fill="#4582EC"/>
<path d="M13.4767 11.617C15.063 10.0308 15.063 7.45896 13.4767 5.87271C11.8905 4.28645 9.31865 4.28645 7.7324 5.87271C6.14614 7.45896 6.14614 10.0308 7.7324 11.617C9.31865 13.2033 11.8905 13.2033 13.4767 11.617Z" fill="white"/>
<path d="M12.1641 8.20029C12.1641 7.34145 11.4654 6.64282 10.6066 6.64282C9.74789 6.64282 9.04907 7.34145 9.04907 8.20029C9.04907 8.62385 9.21951 9.00795 9.49485 9.28901C9.2196 9.57007 9.04907 9.95417 9.04907 10.3777C9.04907 10.6366 9.25898 10.8465 9.51782 10.8465C9.77667 10.8465 9.98657 10.6366 9.98657 10.3777C9.98657 10.0359 10.2647 9.75776 10.6065 9.75776C10.9484 9.75776 11.2265 10.0359 11.2265 10.3777C11.2265 10.6366 11.4364 10.8465 11.6953 10.8465C11.9541 10.8465 12.164 10.6366 12.164 10.3777C12.164 9.95417 11.9936 9.57007 11.7182 9.28901C11.9937 9.00795 12.1641 8.62385 12.1641 8.20029ZM10.6065 7.58032C10.9484 7.58032 11.2265 7.85848 11.2265 8.20029C11.2265 8.5422 10.9484 8.82026 10.6065 8.82026C10.2647 8.82026 9.98657 8.5421 9.98657 8.20029C9.98657 7.85848 10.2647 7.58032 10.6065 7.58032Z" fill="#4582EC"/>
<path d="M12.4975 26.956V30.6264L9.42436 29.4957C9.05499 29.3598 8.8103 29.0092 8.8103 28.6164V26.9439C8.8103 26.2914 9.45999 25.8385 10.0712 26.0635L12.4975 26.956Z" fill="white"/>
<g opacity="0.15">
<g opacity="0.15">
<path opacity="0.15" d="M41.2519 30.059C41.2169 30.059 41.1815 30.0551 41.1462 30.0469L38.3554 29.4018C38.1032 29.3435 37.9459 29.0918 38.0042 28.8395C38.0625 28.5873 38.3143 28.4304 38.5665 28.4883L40.9837 29.0471L41.2241 28.5176C41.3144 28.3186 41.5302 28.2084 41.7445 28.2522L45.0022 28.9154C45.2559 28.9671 45.4196 29.2146 45.368 29.4683C45.3163 29.722 45.069 29.8858 44.8151 29.8341L41.9233 29.2453L41.6786 29.784C41.6013 29.9543 41.4325 30.059 41.2519 30.059Z" fill="#2626BC"/>
</g>
<g opacity="0.15">
<g opacity="0.15">
<path opacity="0.15" d="M38.4614 26.1625C38.3052 26.1625 38.1523 26.0844 38.0634 25.942C37.9262 25.7225 37.9931 25.4332 38.2126 25.2962L40.3168 23.9821L40.1126 23.4378C40.0358 23.2332 40.1106 23.0027 40.2927 22.8821L43.0653 21.0475C43.2813 20.9048 43.5721 20.9639 43.7149 21.1798C43.8578 21.3957 43.7985 21.6865 43.5826 21.8294L41.1215 23.458L41.3293 24.0119C41.4077 24.2208 41.328 24.456 41.1387 24.5742L38.7091 26.0915C38.6321 26.1396 38.5463 26.1625 38.4614 26.1625Z" fill="#2626BC"/>
</g>
<g opacity="0.15">
<path opacity="0.15" d="M43.3237 37.3319C43.2348 37.3319 43.145 37.3066 43.0654 37.254L40.2929 35.4194C40.1107 35.2988 40.0359 35.0683 40.1127 34.8637L40.317 34.3194L38.2127 33.0053C37.9932 32.8682 37.9263 32.579 38.0635 32.3595C38.2006 32.1399 38.4898 32.073 38.7093 32.2102L41.139 33.7275C41.3281 33.8456 41.4079 34.0809 41.3295 34.2897L41.1217 34.8435L43.5828 36.4721C43.7987 36.615 43.858 36.9058 43.7151 37.1217C43.6248 37.2581 43.4757 37.3319 43.3237 37.3319Z" fill="#2626BC"/>
</g>
</g>
</g>
<path d="M4.7706 30.8611L6.07578 31.3413V35.8704C6.07578 37.3235 6.94878 38.6071 8.29991 39.1404L16.8943 42.5343C17.3079 42.6972 17.7422 42.7797 18.1855 42.7797C18.8926 42.7797 19.5761 42.5692 20.1619 42.1707C21.1251 41.5156 21.7002 40.4291 21.7002 39.2641V37.0899L27.259 39.1351C27.3124 39.1548 27.367 39.1641 27.4208 39.1641C27.6117 39.1641 27.791 39.0466 27.8608 38.8571C27.9502 38.6141 27.8257 38.3447 27.5827 38.2553L5.09431 29.9814C4.1765 29.6437 3.55981 28.7597 3.55981 27.7818V23.4178C3.55981 22.4398 4.1765 21.556 5.09431 21.2183L10.1748 19.349C10.175 19.3489 10.1751 19.3488 10.1753 19.3488H15.8126C16.0714 19.3488 16.2813 19.1389 16.2813 18.8801C16.2813 18.6212 16.0714 18.4113 15.8126 18.4113H10.0023C7.69672 18.4113 5.82097 16.5356 5.82097 14.2299C5.82097 13.1361 6.24435 12.1403 6.93453 11.3945C7.75841 12.5331 9.09706 13.2759 10.6067 13.2759C12.6521 13.2759 14.3844 11.9134 14.9458 10.0486H16.5813C18.8869 10.0486 20.7627 11.9244 20.7627 14.23V18.4114H18.9683C18.7094 18.4114 18.4995 18.6213 18.4995 18.8802C18.4995 19.139 18.7094 19.3489 18.9683 19.3489H20.7627C21.2796 19.3489 21.7002 18.9283 21.7002 18.4114V15.1087L30.1822 11.9879C29.7924 12.7402 29.441 13.7375 29.1303 14.979C28.4188 17.8217 28.027 21.5937 28.027 25.6001C28.027 29.6065 28.4188 33.3783 29.1303 36.221C29.9121 39.3444 30.9499 40.9281 32.2149 40.9281C33.4799 40.9281 34.5177 39.3444 35.2994 36.221C36.0109 33.3783 36.4028 29.6064 36.4028 25.6001C36.4028 21.5937 36.0109 17.8218 35.2994 14.979C34.5232 11.8776 33.4944 10.2951 32.2414 10.273C32.2381 10.2728 32.2348 10.2727 32.2316 10.2726C32.2259 10.2725 32.2204 10.2719 32.2149 10.2719C31.8923 10.2719 31.5846 10.3755 31.2921 10.5807L21.6973 14.111C21.6335 11.3435 19.364 9.11131 16.5814 9.11131H15.122C15.1318 8.99028 15.1381 8.86831 15.1381 8.74484C15.1381 6.24631 13.1054 4.21362 10.6068 4.21362C8.10828 4.21362 6.0756 6.24631 6.0756 8.74484C6.0756 9.38609 6.21031 9.99631 6.45163 10.5497C5.48619 11.481 4.88356 12.7859 4.88356 14.2302C4.88356 16.4472 6.30069 18.3389 8.27638 19.0488L4.7706 20.3386C3.48566 20.8114 2.62231 22.0489 2.62231 23.418V27.782C2.62231 29.1509 3.48566 30.3884 4.7706 30.8611ZM20.7627 39.2642C20.7627 40.1185 20.341 40.9152 19.6347 41.3957C19.205 41.6879 18.7039 41.8423 18.1855 41.8423C17.8603 41.8423 17.5415 41.7817 17.2382 41.6623L8.64416 38.2686C7.65341 37.8776 7.01328 36.9363 7.01328 35.8706V31.6864L8.41953 32.2038V35.8706C8.41953 36.3548 8.71025 36.7827 9.16053 36.961L17.754 40.3535C17.894 40.409 18.0408 40.4363 18.1866 40.4363C18.4181 40.4363 18.6472 40.3676 18.8428 40.2338C19.1644 40.0162 19.3564 39.6538 19.3564 39.2643V36.2277L20.7627 36.7452V39.2642ZM9.35703 32.5486L18.4189 35.8827V39.2642C18.4189 39.3671 18.3638 39.4259 18.3156 39.4585C18.2694 39.49 18.1946 39.5196 18.0988 39.4816L9.50516 36.089C9.41375 36.0528 9.35703 35.9691 9.35703 35.8705V32.5486ZM35.4653 25.5998C35.4653 34.5157 33.5721 39.9903 32.2149 39.9903C30.8576 39.9903 28.9645 34.5157 28.9645 25.5998C28.9645 17.6864 30.4558 12.4845 31.7401 11.4146L32.2846 11.2142C33.6359 11.3967 35.4653 16.8355 35.4653 25.5998ZM10.6067 5.15075C12.5883 5.15075 14.2005 6.76287 14.2005 8.74447C14.2005 10.7261 12.5884 12.3382 10.6067 12.3382C8.62513 12.3382 7.013 10.7261 7.013 8.74447C7.013 6.76297 8.62513 5.15075 10.6067 5.15075Z" fill="#4582EC"/>
<path d="M38.3554 27.1518L41.1462 27.7969C41.1815 27.805 41.2169 27.809 41.2519 27.809C41.4324 27.809 41.6013 27.7041 41.6785 27.534L41.9232 26.9953L44.8151 27.584C45.0689 27.6358 45.3163 27.4718 45.368 27.2182C45.4196 26.9645 45.2558 26.717 45.0022 26.6654L41.7443 26.0022C41.5301 25.9584 41.3144 26.0687 41.224 26.2677L40.9836 26.797L38.5665 26.2384C38.3144 26.1801 38.0625 26.3374 38.0042 26.5895C37.9459 26.8416 38.1031 27.0935 38.3554 27.1518Z" fill="#4582EC"/>
<path d="M38.4616 23.9125C38.5463 23.9125 38.6322 23.8895 38.7093 23.8413L41.1389 22.3241C41.3281 22.2059 41.4078 21.9707 41.3295 21.7618L41.1216 21.2079L43.5827 19.5794C43.7986 19.4365 43.8579 19.1457 43.715 18.9298C43.5721 18.714 43.2813 18.6548 43.0654 18.7975L40.2929 20.6321C40.1107 20.7527 40.0359 20.9832 40.1127 21.1878L40.317 21.7321L38.2127 23.0462C37.9932 23.1832 37.9263 23.4724 38.0635 23.692C38.1524 23.8343 38.3052 23.9125 38.4616 23.9125Z" fill="#4582EC"/>
<path d="M40.2929 33.1694L43.0654 35.004C43.145 35.0567 43.2348 35.0819 43.3237 35.0819C43.4757 35.0819 43.6248 35.008 43.715 34.8718C43.8579 34.6559 43.7986 34.3651 43.5827 34.2222L41.1216 32.5936L41.3295 32.0397C41.4078 31.8308 41.3281 31.5956 41.1389 31.4774L38.7093 29.9602C38.4897 29.823 38.2006 29.8898 38.0635 30.1094C37.9263 30.329 37.9932 30.6182 38.2127 30.7553L40.317 32.0693L40.1127 32.6137C40.0359 32.8183 40.1107 33.0487 40.2929 33.1694Z" fill="#4582EC"/>
</g>
<defs>
<linearGradient id="paint0_linear_2:3025" x1="3.96567" y1="12.4977" x2="48.7919" y2="20.6416" gradientUnits="userSpaceOnUse">
<stop stop-color="#9CC0FF" stop-opacity="0"/>
<stop offset="1" stop-color="#EDF3FE"/>
</linearGradient>
<clipPath id="clip0_2:3025">
<rect width="48" height="48" fill="white"/>
</clipPath>
</defs>
</svg>
