<svg width="48" height="48" viewBox="0 0 48 48" fill="none" xmlns="http://www.w3.org/2000/svg">
<g clip-path="url(#clip0_2:3435)">
<path d="M34.2022 5.17633C27.7242 2.6418 18.7537 3.60471 13.7963 8.1304C10.2961 11.3259 13.0052 12.2366 15.3916 18.0838C17.1187 22.3157 0 21.7332 0 29.3802C0 38.2208 12.3985 36.545 16.9996 37.5569C24.0342 39.1042 30.1711 44.8921 37.6872 44.1291C44.2305 43.4648 46.725 38.3302 47.6349 32.4439C49.3301 21.4774 45.1666 9.46633 34.2022 5.17633Z" fill="url(#paint0_linear_2:3435)"/>
<path opacity="0.11" d="M43.5894 17.578H37.406V15.5952C37.406 14.5157 36.5308 13.6405 35.4513 13.6405H10.9685V12.6093C10.9685 12.0915 10.5488 11.6718 10.031 11.6718H2.71851C2.20072 11.6718 1.78101 12.0915 1.78101 12.6093V19.9218C1.78101 20.4395 2.20072 20.8593 2.71851 20.8593H8.34351V33.703H6.41947C5.77354 33.703 5.24985 34.2267 5.24985 34.8726V35.9553C5.24985 37.0928 6.16335 38.0155 7.29163 38.0155H38.4586C39.5866 38.0155 40.4998 37.0928 40.4998 35.9553V34.8726C40.4998 34.2267 39.9762 33.703 39.3302 33.703H37.4061V26.7655H43.5936C44.1114 26.7655 44.5311 26.3458 44.5311 25.828V18.5161C44.5311 17.998 44.1095 17.578 43.5894 17.578Z" fill="#4582EC"/>
<path d="M39.0936 13.9096V33.5151C39.0936 33.7742 38.8833 33.9843 38.6241 33.9843H10.0311V13.9096C10.0311 12.8285 10.9071 11.953 11.9879 11.953H37.137C38.2176 11.953 39.0936 12.8285 39.0936 13.9096Z" fill="white"/>
<path d="M27.7728 23.9941C27.641 23.9941 27.5098 23.9388 27.4172 23.831L24.5882 20.5407L21.7592 23.831C21.5905 24.0274 21.2944 24.0495 21.0982 23.8808C20.9019 23.712 20.8796 23.4161 21.0484 23.2198L24.2328 19.5162C24.3218 19.4127 24.4516 19.353 24.5882 19.353C24.7248 19.353 24.8546 19.4127 24.9436 19.5162L28.128 23.2198C28.2969 23.4161 28.2746 23.712 28.0782 23.8808C27.9898 23.9568 27.881 23.9941 27.7728 23.9941Z" fill="#4582EC"/>
<path d="M31.8932 20.9973C32.1826 20.9973 32.4173 20.7627 32.4173 20.4733C32.4173 20.1838 32.1826 19.9492 31.8932 19.9492C31.6038 19.9492 31.3691 20.1838 31.3691 20.4733C31.3691 20.7627 31.6038 20.9973 31.8932 20.9973Z" fill="#4582EC"/>
<path d="M33.4785 20.9973C33.7679 20.9973 34.0026 20.7627 34.0026 20.4733C34.0026 20.1838 33.7679 19.9492 33.4785 19.9492C33.1891 19.9492 32.9544 20.1838 32.9544 20.4733C32.9544 20.7627 33.1891 20.9973 33.4785 20.9973Z" fill="#4582EC"/>
<path d="M35.0641 20.9973C35.3535 20.9973 35.5882 20.7627 35.5882 20.4733C35.5882 20.1838 35.3535 19.9492 35.0641 19.9492C34.7747 19.9492 34.54 20.1838 34.54 20.4733C34.54 20.7627 34.7747 20.9973 35.0641 20.9973Z" fill="#4582EC"/>
<path d="M31.8932 22.6065C32.1826 22.6065 32.4173 22.3718 32.4173 22.0824C32.4173 21.793 32.1826 21.5583 31.8932 21.5583C31.6038 21.5583 31.3691 21.793 31.3691 22.0824C31.3691 22.3718 31.6038 22.6065 31.8932 22.6065Z" fill="#4582EC"/>
<path d="M33.4785 22.6065C33.7679 22.6065 34.0026 22.3718 34.0026 22.0824C34.0026 21.793 33.7679 21.5583 33.4785 21.5583C33.1891 21.5583 32.9544 21.793 32.9544 22.0824C32.9544 22.3718 33.1891 22.6065 33.4785 22.6065Z" fill="#4582EC"/>
<path d="M35.0641 22.6065C35.3535 22.6065 35.5882 22.3718 35.5882 22.0824C35.5882 21.793 35.3535 21.5583 35.0641 21.5583C34.7747 21.5583 34.54 21.793 34.54 22.0824C34.54 22.3718 34.7747 22.6065 35.0641 22.6065Z" fill="#4582EC"/>
<path d="M39.0936 29.6718V33.5155C39.0936 33.7743 38.8838 33.9843 38.6249 33.9843H10.0311V29.6718H39.0936Z" fill="#8FB4F4"/>
<path d="M42.1874 33.2079V34.2751C42.1874 35.4085 41.2686 36.328 40.1339 36.328H8.99088C7.85613 36.328 6.93738 35.4085 6.93738 34.2751V33.1851C6.93738 32.5392 7.46107 32.0155 8.107 32.0155H18.1451C18.3198 32.0155 18.48 32.1126 18.5608 32.2676L19.1776 33.451C19.2583 33.6059 19.4185 33.7031 19.5933 33.7031H29.5315C29.7063 33.7031 29.8665 33.6059 29.9473 33.451L30.5641 32.2677C30.6448 32.1128 30.805 32.0156 30.9797 32.0156H41.0175C41.6635 32.0155 42.1874 32.5494 42.1874 33.2079Z" fill="white"/>
<path d="M38.6249 33.703H34.5936C34.3347 33.703 34.1249 33.4931 34.1249 33.2343V32.0155H39.0936V33.2343C39.0936 33.4932 38.8837 33.703 38.6249 33.703Z" fill="white"/>
<path d="M14.6279 33.703H10.5936C10.3348 33.703 10.1249 33.4931 10.1249 33.2343V32.0155H15.0936V33.2373C15.0937 33.4945 14.8851 33.703 14.6279 33.703Z" fill="white"/>
<path d="M10.0311 15.5272V13.9078C10.0311 12.8283 10.9063 11.9531 11.9858 11.9531H14.9061V15.5725C14.9061 17.0441 13.5809 18.2089 12.0498 17.956C10.8755 17.7622 10.0311 16.7173 10.0311 15.5272Z" fill="white"/>
<path d="M14.9061 15.5271V11.953H19.7811V15.5724C19.7811 17.044 18.4559 18.2087 16.9248 17.9559C15.7505 17.7621 14.9061 16.7173 14.9061 15.5271Z" fill="#8FB4F4"/>
<path d="M19.6874 15.5271V11.953H24.5624V15.5724C24.5623 17.044 23.2372 18.2087 21.7061 17.956C20.5319 17.7622 19.6874 16.7173 19.6874 15.5271Z" fill="white"/>
<path d="M26.9999 17.9906C25.6536 17.9906 24.5624 16.9079 24.5624 15.5724V11.953H29.4374V15.5724C29.4373 16.9079 28.346 17.9906 26.9999 17.9906Z" fill="#8FB4F4"/>
<path d="M31.8749 17.9906C30.5286 17.9906 29.4374 16.9079 29.4374 15.5724V11.953H34.3124V15.5724C34.3123 16.9079 33.2209 17.9906 31.8749 17.9906Z" fill="white"/>
<path d="M36.656 17.9906C35.3098 17.9906 34.2185 16.9079 34.2185 15.5724V11.953H37.1388C38.2184 11.953 39.0935 12.8282 39.0935 13.9077V15.5724C39.0936 16.9079 38.0023 17.9906 36.656 17.9906Z" fill="#8FB4F4"/>
<path d="M11.7186 19.1717H4.40613C3.88835 19.1717 3.46863 18.752 3.46863 18.2342V10.9218C3.46863 10.404 3.88835 9.98425 4.40613 9.98425H11.7186C12.2364 9.98425 12.6561 10.404 12.6561 10.9218V18.2342C12.6561 18.752 12.2364 19.1717 11.7186 19.1717Z" fill="#8FB4F4"/>
<path d="M45.2811 25.078H37.9686C37.4508 25.078 37.0311 24.6583 37.0311 24.1405V16.828C37.0311 16.3102 37.4508 15.8905 37.9686 15.8905H45.2811C45.7989 15.8905 46.2186 16.3102 46.2186 16.828V24.1405C46.2186 24.6583 45.7989 25.078 45.2811 25.078Z" fill="white"/>
<path d="M29.3421 27.5155H19.8749C19.616 27.5155 19.4061 27.3056 19.4061 27.0468V23.2968C19.4061 23.0379 19.616 22.828 19.8749 22.828H29.3436C29.6026 22.828 29.8124 23.0379 29.8124 23.2968V27.0459C29.8123 27.3053 29.6018 27.5155 29.3421 27.5155Z" fill="#8FB4F4"/>
<path d="M20.9061 26.578H21.4686C21.7276 26.578 21.9374 26.3681 21.9374 26.1093V24.328C21.9374 24.0691 21.7276 23.8593 21.4686 23.8593H20.9061C20.6473 23.8593 20.4374 24.0692 20.4374 24.328V26.1093C20.4374 26.3682 20.6473 26.578 20.9061 26.578Z" fill="white"/>
<path d="M23.1532 26.578H23.7186C23.9776 26.578 24.1874 26.3681 24.1874 26.1093V24.328C24.1874 24.0691 23.9776 23.8593 23.7186 23.8593H23.1561C22.8973 23.8593 22.6874 24.0692 22.6874 24.328V26.1013C22.6874 26.3646 22.896 26.578 23.1532 26.578Z" fill="white"/>
<path d="M25.4061 26.578H25.9686C26.2276 26.578 26.4374 26.3681 26.4374 26.1093V24.328C26.4374 24.0691 26.2276 23.8593 25.9686 23.8593H25.4061C25.1473 23.8593 24.9374 24.0692 24.9374 24.328V26.1093C24.9374 26.3682 25.1472 26.578 25.4061 26.578Z" fill="white"/>
<path d="M27.7499 26.578H28.3124C28.5713 26.578 28.7811 26.3681 28.7811 26.1093V24.328C28.7811 24.0691 28.5713 23.8593 28.3124 23.8593H27.7499C27.491 23.8593 27.2811 24.0692 27.2811 24.328V26.1093C27.2811 26.3682 27.4909 26.578 27.7499 26.578Z" fill="white"/>
<path d="M14.2745 23.2968H13.0027C12.7774 23.2968 12.5703 23.1459 12.526 22.925C12.4657 22.6237 12.6944 22.3593 12.985 22.3593H14.2568C14.4821 22.3593 14.6892 22.5101 14.7335 22.731C14.7938 23.0323 14.5651 23.2968 14.2745 23.2968Z" fill="#4582EC"/>
<path d="M16.8648 25.828H13.0027C12.7774 25.828 12.5703 25.6772 12.526 25.4563C12.4657 25.155 12.6944 24.8905 12.985 24.8905H16.8471C17.0724 24.8905 17.2795 25.0413 17.3238 25.2622C17.3841 25.5635 17.1554 25.828 16.8648 25.828Z" fill="#4582EC"/>
<path d="M16.8648 27.328H13.0027C12.7774 27.328 12.5703 27.1772 12.526 26.9563C12.4657 26.655 12.6944 26.3905 12.985 26.3905H16.8471C17.0724 26.3905 17.2795 26.5413 17.3238 26.7622C17.3841 27.0635 17.1554 27.328 16.8648 27.328Z" fill="#4582EC"/>
<path d="M8.67619 14.1092H8.53107V13.1717H9.12394C9.34932 13.1717 9.55641 13.0207 9.60057 12.7997C9.66076 12.4984 9.4321 12.2342 9.14148 12.2342H8.53107V12.0191C8.53107 11.7934 8.37957 11.5857 8.15804 11.5423C7.8571 11.4835 7.59357 11.7098 7.59357 11.9973V12.2342H7.47798C6.75526 12.2342 6.11879 12.7616 6.03798 13.48C5.94273 14.327 6.61229 15.0467 7.44826 15.0467H7.59348V15.9842H7.0006C6.77523 15.9842 6.56813 16.1352 6.52398 16.3562C6.46379 16.6575 6.69245 16.9217 6.98307 16.9217H7.59348V17.137C7.59348 17.3627 7.74498 17.5705 7.96651 17.6138C8.26744 17.6727 8.53098 17.4463 8.53098 17.1588V16.9218H8.64648C9.36919 16.9218 10.0057 16.3944 10.0866 15.6762C10.1819 14.8292 9.51235 14.1092 8.67619 14.1092ZM7.49982 14.1157C7.20854 14.1157 6.99235 13.8995 6.99235 13.6337C6.99235 13.3679 7.20854 13.1517 7.47423 13.1718H7.68732V14.1093H7.49982V14.1157ZM8.6476 15.9842H8.53107V15.0467H8.67226C8.94507 15.0467 9.16416 15.2808 9.13913 15.5586C9.11701 15.8045 8.89444 15.9842 8.6476 15.9842Z" fill="#4582EC"/>
<path d="M25.4012 31.1718H23.7929C23.5675 31.1718 23.3604 31.3227 23.3163 31.5438C23.2561 31.8451 23.4847 32.1093 23.7754 32.1093H25.3836C25.609 32.1093 25.8161 31.9582 25.8603 31.7373C25.9205 31.4359 25.6917 31.1718 25.4012 31.1718Z" fill="#4582EC"/>
<path d="M45.2748 15.4218H39.5624V13.9169V13.9072C39.5624 12.569 38.4776 11.4843 37.1394 11.4843H37.1371H13.1249V10.9218C13.1249 10.1451 12.4953 9.5155 11.7186 9.5155H4.40613C3.6295 9.5155 2.99988 10.1451 2.99988 10.9218V18.2343C2.99988 19.0109 3.6295 19.6405 4.40613 19.6405H9.65613V27.0364C9.65613 27.2618 9.80716 27.4689 10.0281 27.5131C10.3294 27.5733 10.5936 27.3446 10.5936 27.054V19.6405H11.787C12.509 19.6405 13.1049 19.0908 13.1828 18.3865C13.928 18.2168 14.5572 17.7588 14.9579 17.142C15.4731 17.9338 16.3634 18.4585 17.3739 18.4585C18.3843 18.4585 19.2747 17.9336 19.7899 17.1418C20.3052 17.9337 21.1954 18.4585 22.2061 18.4585C23.2165 18.4585 24.1068 17.9336 24.6221 17.1418C25.1373 17.9337 26.0277 18.4585 27.0382 18.4585C28.0487 18.4585 28.939 17.9336 29.4543 17.1418C29.9695 17.9337 30.8597 18.4585 31.8703 18.4585C32.8809 18.4585 33.7711 17.9336 34.2864 17.1418C34.7778 17.8969 35.6101 18.4091 36.5626 18.4549V24.1405C36.5626 24.9171 37.1922 25.5468 37.9688 25.5468H38.6251V29.203H10.0327L10.0307 29.2028C9.77313 29.1771 9.56238 29.3679 9.56238 29.6268V31.5468H8.1071C7.20222 31.5468 6.46863 32.2803 6.46863 33.1852V34.2752C6.46863 35.6678 7.59757 36.7968 8.99022 36.7968H40.1345C41.5272 36.7968 42.6561 35.6678 42.6561 34.2752V33.1851C42.6561 32.2803 41.9226 31.5468 41.0178 31.5468H39.5624V25.5468H45.2811C46.0578 25.5468 46.6874 24.9171 46.6874 24.1405V16.8288C46.6875 16.053 46.0538 15.4218 45.2748 15.4218ZM37.9683 31.5468C37.743 31.5468 37.5359 31.6977 37.4917 31.9188C37.4315 32.2201 37.6602 32.4843 37.9508 32.4843H38.6249V33.2343H34.5936V32.4843H35.3498C35.5752 32.4843 35.7823 32.3332 35.8264 32.1123C35.8866 31.8109 35.658 31.5468 35.3673 31.5468H31.1149C30.7682 31.5468 30.4497 31.7382 30.2869 32.0445L29.6549 33.2343H19.5213L18.8892 32.0444C18.7265 31.7382 18.4081 31.5468 18.0613 31.5468H10.4999V30.1405H38.6249V31.5468H37.9683ZM14.6253 33.2343H10.5936V32.4843H14.6249L14.6253 33.2343ZM41.7186 33.1883V34.2752C41.7186 35.15 41.0094 35.8593 40.1345 35.8593H8.99032C8.11544 35.8593 7.40613 35.1499 7.40613 34.2751V33.1851C7.40613 32.798 7.71991 32.4843 8.107 32.4843H9.65613V33.2343C9.65613 33.752 10.0758 34.1718 10.5936 34.1718H14.6249C15.1427 34.1718 15.5624 33.752 15.5624 33.2343V32.4843H18.1819L18.797 33.6646C18.9603 33.9774 19.2774 34.1718 19.6249 34.1718H29.5653C29.9129 34.1718 30.23 33.9774 30.3933 33.6644L31.0083 32.4843H33.6562V33.2343C33.6562 33.752 34.0759 34.1718 34.5937 34.1718H38.6249C39.1427 34.1718 39.5624 33.752 39.5624 33.2343V32.4843H41.0177C41.4041 32.4843 41.7186 32.8002 41.7186 33.1883ZM11.7186 18.703H4.40613C4.14728 18.703 3.93738 18.4931 3.93738 18.2343V10.9218C3.93738 10.6629 4.14728 10.453 4.40613 10.453H11.7186C11.9775 10.453 12.1874 10.6629 12.1874 10.9218V18.2343C12.1874 18.4932 11.9775 18.703 11.7186 18.703ZM13.1249 17.4089V12.4218H14.4374V15.5723C14.4374 16.4108 13.8953 17.1387 13.1249 17.4089ZM15.3749 15.5297V12.4218H19.3124V15.5723C19.3124 16.7791 18.1992 17.7333 16.9365 17.4811C16.0189 17.2979 15.3749 16.4653 15.3749 15.5297ZM22.1249 17.5218C21.0393 17.5218 20.156 16.6473 20.156 15.5723V12.4218H24.0935V15.5723C24.0936 16.6473 23.2105 17.5218 22.1249 17.5218ZM27 17.5218C25.9143 17.5218 25.0311 16.6473 25.0311 15.5723V12.4218H28.9686V15.5723C28.9686 16.6473 28.0855 17.5218 27 17.5218ZM31.8748 17.5218C30.7893 17.5218 29.906 16.6473 29.906 15.5723V12.4218H33.8435V15.5723C33.8436 16.6473 32.9605 17.5218 31.8748 17.5218ZM34.7811 15.5871V12.4218H37.1388C37.9595 12.4218 38.6249 13.0871 38.6249 13.9078V15.4218H37.9686C37.192 15.4218 36.5624 16.0514 36.5624 16.828V17.5295C35.5685 17.4572 34.7811 16.6148 34.7811 15.5871ZM45.2811 24.6093H37.9686C37.7098 24.6093 37.4999 24.3993 37.4999 24.1405V16.828C37.4999 16.5692 37.7098 16.3593 37.9686 16.3593H45.2811C45.5401 16.3593 45.7499 16.5692 45.7499 16.828V24.1405C45.7499 24.3994 45.54 24.6093 45.2811 24.6093Z" fill="#4582EC"/>
<path d="M39.9904 20.0839C39.3177 20.0839 38.7705 19.5367 38.7705 18.8641C38.7705 18.1915 39.3177 17.6443 39.9904 17.6443C40.6629 17.6443 41.2101 18.1915 41.2101 18.8641C41.21 19.5368 40.6628 20.0839 39.9904 20.0839ZM39.9904 18.5819C39.8346 18.5819 39.708 18.7085 39.708 18.8642C39.708 19.0199 39.8346 19.1465 39.9904 19.1465C40.146 19.1465 40.2726 19.0199 40.2726 18.8642C40.2725 18.7085 40.146 18.5819 39.9904 18.5819Z" fill="#4582EC"/>
<path d="M43.2086 23.3024C42.5361 23.3024 41.9889 22.7551 41.9889 22.0826C41.9889 21.41 42.5361 20.8628 43.2086 20.8628C43.8812 20.8628 44.4284 21.41 44.4284 22.0826C44.4284 22.7551 43.8811 23.3024 43.2086 23.3024ZM43.2086 21.8003C43.053 21.8003 42.9264 21.9269 42.9264 22.0826C42.9264 22.2382 43.053 22.3649 43.2086 22.3649C43.3643 22.3649 43.4909 22.2382 43.4909 22.0826C43.4909 21.9269 43.3643 21.8003 43.2086 21.8003Z" fill="#4582EC"/>
<path d="M40.2687 22.2727C40.1487 22.2727 40.0287 22.227 39.9372 22.1354C39.7542 21.9524 39.7542 21.6555 39.9372 21.4725L42.5985 18.8113C42.7814 18.6282 43.0784 18.6282 43.2613 18.8113C43.4444 18.9943 43.4444 19.2911 43.2613 19.4741L40.6001 22.1354C40.5087 22.227 40.3887 22.2727 40.2687 22.2727Z" fill="#4582EC"/>
<path d="M43.666 8.86693C43.3154 8.86693 42.9648 8.73352 42.698 8.46652C42.1642 7.9328 42.1642 7.0643 42.698 6.53059C43.2316 5.99687 44.1001 5.99677 44.634 6.53049C45.1679 7.0643 45.1679 7.9328 44.634 8.46652V8.46661C44.3671 8.73343 44.0165 8.86693 43.666 8.86693ZM44.3026 8.10924H44.3036H44.3026ZM43.666 7.0673C43.5555 7.0673 43.445 7.1094 43.3608 7.19349C43.1926 7.36177 43.1926 7.63552 43.3608 7.8038C43.5291 7.9719 43.803 7.97199 43.9712 7.80371C44.1394 7.63552 44.1394 7.36177 43.9712 7.19349C43.8871 7.1094 43.7764 7.0673 43.666 7.0673Z" fill="#8FB4F4"/>
<path d="M39.2505 41.6869C38.8998 41.6869 38.5493 41.5535 38.2825 41.2865C37.7487 40.7528 37.7487 39.8843 38.2825 39.3505C38.816 38.8168 39.6846 38.8167 40.2185 39.3504C40.7523 39.8843 40.7523 40.7528 40.2185 41.2865V41.2866C39.9516 41.5534 39.601 41.6869 39.2505 41.6869ZM39.8756 40.9217H39.8765H39.8756ZM39.2389 39.8873C39.1284 39.8873 39.018 39.9293 38.9338 40.0134C38.7656 40.1817 38.7656 40.4555 38.9338 40.6238C39.1021 40.7918 39.3759 40.7919 39.5442 40.6237C39.7124 40.4555 39.7124 40.1817 39.5442 40.0134C39.46 39.9293 39.3495 39.8873 39.2389 39.8873Z" fill="#8FB4F4"/>
<path d="M16.4692 41.9488C16.1186 41.9488 15.7681 41.8154 15.5013 41.5484C14.9674 41.0147 14.9674 40.1461 15.5013 39.6124C16.0348 39.0787 16.9034 39.0786 17.4373 39.6123C17.9711 40.1461 17.9711 41.0147 17.4373 41.5484V41.5485C17.1705 41.8153 16.8197 41.9488 16.4692 41.9488ZM17.0699 41.2029H17.0708H17.0699ZM16.4332 40.1491C16.3227 40.1491 16.2122 40.1912 16.1281 40.2753C15.9599 40.4436 15.9599 40.7174 16.1281 40.8857C16.2963 41.0538 16.5702 41.0539 16.7385 40.8856C16.9067 40.7173 16.9067 40.4436 16.7385 40.2753C16.6543 40.1912 16.5437 40.1491 16.4332 40.1491Z" fill="#8FB4F4"/>
<path d="M8.53724 5.29677H8.25008V5.00962C8.25008 4.78424 8.09905 4.57715 7.87808 4.53299C7.57677 4.4728 7.31258 4.70155 7.31258 4.99209V5.29677H7.02543C6.80005 5.29677 6.59296 5.44781 6.5488 5.66877C6.48862 5.97009 6.71727 6.23427 7.0079 6.23427H7.31258V6.52143C7.31258 6.74681 7.46362 6.9539 7.68458 6.99806C7.9859 7.05824 8.25008 6.82959 8.25008 6.53896V6.23427H8.55477C8.8453 6.23427 9.07405 5.97009 9.01386 5.66877C8.96971 5.44781 8.76252 5.29677 8.53724 5.29677Z" fill="#8FB4F4"/>
<path d="M43.6935 37.5468H43.4063V37.2596C43.4063 37.0342 43.2553 36.8271 43.0343 36.783C42.733 36.7228 42.4688 36.9516 42.4688 37.2421V37.5468H42.1817C41.9563 37.5468 41.7492 37.6977 41.7051 37.9188C41.6449 38.2201 41.8735 38.4843 42.1641 38.4843H42.4688V38.7714C42.4688 38.9968 42.6199 39.2039 42.8408 39.248C43.1421 39.3082 43.4063 39.0796 43.4063 38.789V38.4843H43.711C44.0015 38.4843 44.2303 38.2201 44.1701 37.9188C44.126 37.6978 43.9188 37.5468 43.6935 37.5468Z" fill="#8FB4F4"/>
</g>
<defs>
<linearGradient id="paint0_linear_2:3435" x1="-0.623181" y1="14.3198" x2="52.0111" y2="28.1233" gradientUnits="userSpaceOnUse">
<stop stop-color="#92B9FE" stop-opacity="0"/>
<stop offset="1" stop-color="#EDF3FE"/>
</linearGradient>
<clipPath id="clip0_2:3435">
<rect width="48" height="48" fill="white"/>
</clipPath>
</defs>
</svg>
