<svg width="48" height="48" viewBox="0 0 48 48" fill="none" xmlns="http://www.w3.org/2000/svg">
<g clip-path="url(#clip0_2:3139)">
<path d="M38.2714 14.4619C36.0498 13.5961 34.173 12.0161 33.0251 9.92623C31.0948 6.41182 27.3598 4.02954 23.0669 4.02954C18.6109 4.02954 14.7563 6.59614 12.8971 10.3313C11.7585 12.6189 9.82083 14.4151 7.45121 15.3714C3.94974 16.7846 1.0103 20.0143 0.0774896 25.0635C-0.0248854 25.6175 -0.0263854 26.1872 0.0759896 26.7412C1.52424 34.5761 7.8009 38.032 13.5136 37.1156C16.7129 36.6024 19.9516 37.6696 22.323 39.8777C27.1449 44.3675 34.8746 45.7752 42.3782 40.9624C43.2573 40.3985 44.4367 39.2154 45.0001 38.3359C51.4656 28.2419 46.6762 17.7378 38.2714 14.4619Z" fill="url(#paint0_linear_2:3139)"/>
<path opacity="0.1" d="M42.7501 9.42944V33.2654C42.7501 34.0416 42.1201 34.6716 41.3439 34.6716H6.65636C5.88011 34.6716 5.25011 34.0416 5.25011 33.2654V9.42944C5.25011 8.65319 5.88011 8.02319 6.65636 8.02319H41.3438C42.1201 8.02319 42.7501 8.65319 42.7501 9.42944Z" fill="#4582EC"/>
<path d="M29.3166 43.454H18.6834L20.0692 37.96L20.8098 35.0254H27.1902L27.9308 37.96L29.3166 43.454Z" fill="white"/>
<path d="M42.7501 11.3955V35.2314C42.7501 36.0077 42.1201 36.6377 41.3439 36.6377H6.65636C5.88011 36.6377 5.25011 36.0077 5.25011 35.2314V11.3955C5.25011 10.6193 5.88011 9.98926 6.65636 9.98926H41.3438C42.1201 9.98926 42.7501 10.6193 42.7501 11.3955Z" fill="white"/>
<path d="M42.7499 24.4321V35.2312C42.7499 36.0078 42.1203 36.6374 41.3437 36.6374H25.8955V24.7134C25.8955 24.558 26.0214 24.4321 26.1768 24.4321H42.7499Z" fill="white"/>
<path d="M42.7501 14.5055V11.3958C42.7501 10.6191 42.1205 9.9895 41.3439 9.9895H6.65636C5.87974 9.9895 5.25011 10.6191 5.25011 11.3958V14.5055H42.7501Z" fill="white"/>
<path d="M5.25011 31.9136V35.2314C5.25011 36.008 5.87974 36.6376 6.65636 36.6376H41.3438C42.1204 36.6376 42.75 36.008 42.75 35.2314V31.9136H5.25011Z" fill="white"/>
<path d="M8.82027 12.7231C9.07912 12.7231 9.28902 12.5132 9.28902 12.2543V12.2407C9.28902 11.9819 9.07912 11.772 8.82027 11.772C8.56143 11.772 8.35152 11.9819 8.35152 12.2407V12.2543C8.35152 12.5132 8.56143 12.7231 8.82027 12.7231Z" fill="#4582EC"/>
<path d="M10.6318 12.7231C10.8907 12.7231 11.1006 12.5132 11.1006 12.2543V12.2407C11.1006 11.9819 10.8907 11.772 10.6318 11.772C10.373 11.772 10.1631 11.9819 10.1631 12.2407V12.2543C10.1631 12.5132 10.373 12.7231 10.6318 12.7231Z" fill="#4582EC"/>
<path d="M12.4437 12.7231C12.7025 12.7231 12.9124 12.5132 12.9124 12.2543V12.2407C12.9124 11.9819 12.7025 11.772 12.4437 11.772C12.1848 11.772 11.9749 11.9819 11.9749 12.2407V12.2543C11.9749 12.5132 12.1848 12.7231 12.4437 12.7231Z" fill="#4582EC"/>
<path d="M5.71886 14.9743H42.75C43.0089 14.9743 43.2188 14.7644 43.2188 14.5055V11.3958C43.2188 10.3619 42.3776 9.52075 41.3438 9.52075H6.65636C5.62249 9.52075 4.78136 10.3619 4.78136 11.3958V35.2314C4.78136 36.2653 5.62249 37.1064 6.65636 37.1064H27.2321L28.7154 42.9846H19.2849L20.2604 39.1185C20.3237 38.8675 20.1716 38.6126 19.9206 38.5493C19.6697 38.4858 19.4147 38.6381 19.3514 38.8892L18.318 42.9846H16.8813C16.6225 42.9846 16.4126 43.1945 16.4126 43.4534C16.4126 43.7122 16.6225 43.9221 16.8813 43.9221H18.6832H29.3171H31.119C31.3779 43.9221 31.5878 43.7122 31.5878 43.4534C31.5878 43.1945 31.3779 42.9846 31.119 42.9846H29.6823L28.199 37.1064H41.3439C42.3777 37.1064 43.2189 36.2653 43.2189 35.2314V17.0875C43.2189 16.8287 43.009 16.6188 42.7501 16.6188C42.4913 16.6188 42.2814 16.8287 42.2814 17.0875V31.4449H5.71886V14.9743ZM6.65636 10.4583H41.3438C41.8607 10.4583 42.2813 10.8788 42.2813 11.3958V14.0368H5.71886V11.3958C5.71886 10.8788 6.13943 10.4583 6.65636 10.4583ZM42.2814 32.3823V35.2314C42.2814 35.7483 41.8608 36.1689 41.3439 36.1689H6.65636C6.13943 36.1689 5.71886 35.7483 5.71886 35.2314V32.3823H42.2814Z" fill="#4582EC"/>
<path d="M22.1093 29.3111H9.28977C9.03046 29.3111 8.82027 29.1009 8.82027 28.8416C8.82027 28.5823 9.03046 28.3721 9.28977 28.3721H22.1093C22.3686 28.3721 22.5788 28.5823 22.5788 28.8416C22.5789 29.1009 22.3687 29.3111 22.1093 29.3111Z" fill="#4582EC"/>
<path d="M22.1093 27.5205H9.28977C9.03046 27.5205 8.82027 27.3104 8.82027 27.051C8.82027 26.7917 9.03046 26.5815 9.28977 26.5815H22.1093C22.3686 26.5815 22.5788 26.7917 22.5788 27.051C22.5789 27.3104 22.3687 27.5205 22.1093 27.5205Z" fill="#4582EC"/>
<path d="M11.4218 25.73H9.28977C9.03046 25.73 8.82027 25.5198 8.82027 25.2605C8.82027 25.0012 9.03046 24.791 9.28977 24.791H11.4218C11.6811 24.791 11.8913 25.0012 11.8913 25.2605C11.8913 25.5198 11.6812 25.73 11.4218 25.73Z" fill="#4582EC"/>
<path d="M22.1093 25.73H13.5085C13.2492 25.73 13.039 25.5198 13.039 25.2605C13.039 25.0012 13.2492 24.791 13.5085 24.791H22.1093C22.3686 24.791 22.5788 25.0012 22.5788 25.2605C22.5788 25.5198 22.3687 25.73 22.1093 25.73Z" fill="#4582EC"/>
<path d="M13.8515 22.6394H9.46946C9.21015 22.6394 8.99996 22.4293 8.99996 22.1699C8.99996 21.9106 9.21015 21.7004 9.46946 21.7004H13.8515C14.1108 21.7004 14.321 21.9106 14.321 22.1699C14.3211 22.4292 14.1109 22.6394 13.8515 22.6394Z" fill="#4582EC"/>
<path d="M29.7119 29.2543H28.2119C28.0565 29.2543 27.9306 29.1284 27.9306 28.973V23.2668C27.9306 23.1115 28.0565 22.9856 28.2119 22.9856H29.7119C29.8672 22.9856 29.9931 23.1115 29.9931 23.2668V28.973C29.9931 29.1284 29.8672 29.2543 29.7119 29.2543Z" fill="#8FB4F4"/>
<path d="M26.6454 29.2542H25.1454C24.9901 29.2542 24.8642 29.1283 24.8642 28.973V25.4426C24.8642 25.2873 24.9901 25.1614 25.1454 25.1614H26.6454C26.8007 25.1614 26.9267 25.2873 26.9267 25.4426V28.973C26.9267 29.1283 26.8007 29.2542 26.6454 29.2542Z" fill="#8FB4F4"/>
<path d="M32.7787 29.2543H31.2787C31.1234 29.2543 30.9975 29.1284 30.9975 28.973V21.6287C30.9975 21.4733 31.1234 21.3474 31.2787 21.3474H32.7787C32.9341 21.3474 33.06 21.4733 33.06 21.6287V28.973C33.06 29.1284 32.9341 29.2543 32.7787 29.2543Z" fill="#8FB4F4"/>
<path d="M35.8457 29.2543H34.3457C34.1903 29.2543 34.0644 29.1284 34.0644 28.973V19.8918C34.0644 19.7365 34.1903 19.6106 34.3457 19.6106H35.8457C36.001 19.6106 36.1269 19.7365 36.1269 19.8918V28.973C36.1269 29.1284 36.001 29.2543 35.8457 29.2543Z" fill="#8FB4F4"/>
<path d="M38.9126 29.2543H37.4126C37.2573 29.2543 37.1313 29.1284 37.1313 28.973V18.2537C37.1313 18.0983 37.2573 17.9724 37.4126 17.9724H38.9126C39.0679 17.9724 39.1938 18.0983 39.1938 18.2537V28.973C39.1938 29.1284 39.0679 29.2543 38.9126 29.2543Z" fill="#8FB4F4"/>
<path d="M29.8914 17.1282C30.1808 17.1282 30.4154 17.3628 30.4154 17.6522C30.4154 17.9416 30.1808 18.1763 29.8914 18.1763C29.602 18.1763 29.3673 17.9416 29.3673 17.6522C29.3673 17.3628 29.6019 17.1282 29.8914 17.1282Z" fill="#4582EC"/>
<path d="M31.477 17.1282C31.7664 17.1282 32.0011 17.3628 32.0011 17.6522C32.0011 17.9416 31.7664 18.1763 31.477 18.1763C31.1876 18.1763 30.9529 17.9416 30.9529 17.6522C30.9529 17.3628 31.1875 17.1282 31.477 17.1282Z" fill="#4582EC"/>
<path d="M33.0622 17.1282C33.3516 17.1282 33.5862 17.3628 33.5862 17.6522C33.5862 17.9416 33.3516 18.1763 33.0622 18.1763C32.7728 18.1763 32.5381 17.9416 32.5381 17.6522C32.5381 17.3628 32.7727 17.1282 33.0622 17.1282Z" fill="#4582EC"/>
<path d="M27.483 18.6637C27.483 17.8048 26.7843 17.1062 25.9255 17.1062C25.0668 17.1062 24.368 17.8049 24.368 18.6637C24.368 19.0872 24.5385 19.4713 24.8138 19.7524C24.5386 20.0335 24.368 20.4175 24.368 20.8411C24.368 21.1 24.578 21.3099 24.8368 21.3099C25.0956 21.3099 25.3055 21.1 25.3055 20.8411C25.3055 20.4993 25.5837 20.2211 25.9255 20.2211C26.2673 20.2211 26.5455 20.4993 26.5455 20.8411C26.5455 21.1 26.7554 21.3099 27.0142 21.3099C27.2731 21.3099 27.483 21.1 27.483 20.8411C27.483 20.4175 27.3125 20.0335 27.0372 19.7524C27.3125 19.4713 27.483 19.0871 27.483 18.6637ZM25.9255 18.0436C26.2673 18.0436 26.5455 18.3218 26.5455 18.6636C26.5455 19.0054 26.2673 19.2835 25.9255 19.2835C25.5837 19.2835 25.3055 19.0054 25.3055 18.6636C25.3055 18.3218 25.5836 18.0436 25.9255 18.0436Z" fill="#4582EC"/>
<path d="M12.5687 42.1247C12.4487 42.1247 12.3288 42.079 12.2372 41.9875L11.2043 40.9545C11.1163 40.8666 11.067 40.7474 11.067 40.623C11.067 40.4986 11.1164 40.3795 11.2043 40.2915L12.2372 39.2586C12.4203 39.0756 12.717 39.0756 12.9001 39.2586L13.933 40.2915C14.021 40.3795 14.0703 40.4986 14.0703 40.623C14.0703 40.7474 14.0209 40.8666 13.933 40.9545L12.9002 41.9874C12.8086 42.0789 12.6887 42.1247 12.5687 42.1247ZM12.1987 40.6229L12.5687 40.993L12.9387 40.6229L12.5687 40.2529L12.1987 40.6229Z" fill="#8FB4F4"/>
<path d="M34.3231 40.9797C34.2031 40.9797 34.0832 40.934 33.9916 40.8425L32.9586 39.8095C32.8707 39.7216 32.8214 39.6024 32.8214 39.478C32.8214 39.3536 32.8708 39.2344 32.9586 39.1465L33.9916 38.1136C34.1747 37.9306 34.4714 37.9306 34.6545 38.1136L35.6874 39.1465C35.7754 39.2344 35.8247 39.3536 35.8247 39.478C35.8247 39.6024 35.7753 39.7216 35.6874 39.8095L34.6545 40.8425C34.563 40.9339 34.4431 40.9797 34.3231 40.9797ZM33.9531 39.478L34.3231 39.848L34.6931 39.478L34.3231 39.108L33.9531 39.478Z" fill="#8FB4F4"/>
<path d="M40.311 43.531C40.191 43.531 40.0711 43.4852 39.9795 43.3937L38.9466 42.3608C38.8587 42.2728 38.8093 42.1537 38.8093 42.0293C38.8093 41.9049 38.8587 41.7857 38.9466 41.6978L39.9795 40.6648C40.1626 40.4818 40.4593 40.4818 40.6424 40.6648L41.6754 41.6978C41.7633 41.7857 41.8126 41.9049 41.8126 42.0293C41.8126 42.1537 41.7632 42.2728 41.6754 42.3608L40.6424 43.3937C40.5509 43.4851 40.431 43.531 40.311 43.531ZM39.941 42.0292L40.311 42.3992L40.6811 42.0292L40.311 41.6592L39.941 42.0292Z" fill="#8FB4F4"/>
<path d="M18.9773 7.08053C18.7184 7.08053 18.5085 6.87062 18.5085 6.61178C18.5085 6.30071 18.2554 6.04759 17.9443 6.04759C17.6855 6.04759 17.4756 5.83768 17.4756 5.57884C17.4756 5.31999 17.6855 5.11009 17.9443 5.11009C18.2554 5.11009 18.5085 4.85696 18.5085 4.5459C18.5085 4.28705 18.7184 4.07715 18.9773 4.07715C19.2361 4.07715 19.446 4.28705 19.446 4.5459C19.446 4.85696 19.6991 5.11009 20.0102 5.11009C20.269 5.11009 20.4789 5.31999 20.4789 5.57884C20.4789 5.83768 20.269 6.04759 20.0102 6.04759C19.6991 6.04759 19.446 6.30071 19.446 6.61178C19.446 6.87071 19.2361 7.08053 18.9773 7.08053Z" fill="#8FB4F4"/>
<path d="M10.096 20.0281C9.8907 20.0281 9.7067 19.9948 9.54403 19.9281C9.38136 19.8614 9.2507 19.7628 9.15203 19.6321C9.07438 19.5264 9.02639 19.4033 9.00806 19.2627C9.00077 19.2068 9.04661 19.1601 9.10297 19.1601H9.63776C9.68904 19.1601 9.73049 19.1994 9.74489 19.2487C9.76305 19.3107 9.79343 19.3612 9.83603 19.4001C9.89736 19.4534 9.97736 19.4801 10.076 19.4801C10.1774 19.4801 10.2574 19.4574 10.316 19.4121C10.3747 19.3641 10.404 19.2988 10.404 19.2161C10.404 19.1468 10.38 19.0894 10.332 19.0441C10.2867 18.9988 10.2294 18.9614 10.16 18.9321C10.0934 18.9028 9.99736 18.8694 9.87203 18.8321C9.6907 18.7761 9.5427 18.7201 9.42803 18.6641C9.31336 18.6081 9.2147 18.5254 9.13203 18.4161C9.04936 18.3068 9.00803 18.1641 9.00803 17.9881C9.00803 17.7268 9.1027 17.5228 9.29203 17.3761C9.48136 17.2268 9.72803 17.1521 10.032 17.1521C10.3414 17.1521 10.5907 17.2268 10.78 17.3761C10.9436 17.5028 11.0414 17.6732 11.0737 17.8874C11.0822 17.944 11.0361 17.9921 10.9789 17.9921H10.4383C10.3854 17.9921 10.3438 17.9498 10.3266 17.8997C10.3102 17.8519 10.2827 17.812 10.244 17.7801C10.1827 17.7268 10.104 17.7001 10.008 17.7001C9.92536 17.7001 9.8587 17.7228 9.80803 17.7681C9.75736 17.8108 9.73203 17.8734 9.73203 17.9561C9.73203 18.0468 9.7747 18.1174 9.86003 18.1681C9.94536 18.2188 10.0787 18.2734 10.26 18.3321C10.4414 18.3934 10.588 18.4521 10.7 18.5081C10.8147 18.5641 10.9134 18.6454 10.996 18.7521C11.0787 18.8588 11.12 18.9961 11.12 19.1641C11.12 19.3241 11.0787 19.4694 10.996 19.6001C10.916 19.7308 10.7987 19.8348 10.644 19.9121C10.4894 19.9894 10.3067 20.0281 10.096 20.0281Z" fill="#4582EC"/>
<path d="M14.621 17.1921C14.6762 17.1921 14.721 17.2369 14.721 17.2921V19.9001C14.721 19.9553 14.6762 20.0001 14.621 20.0001H14.137C14.0817 20.0001 14.037 19.9553 14.037 19.9001V18.8704C14.037 18.759 13.8822 18.7311 13.8433 18.8355L13.4332 19.935C13.4186 19.9742 13.3813 20.0001 13.3395 20.0001H12.9263C12.8846 20.0001 12.8473 19.9742 12.8327 19.9352L12.4186 18.8293C12.3796 18.725 12.225 18.753 12.225 18.8644V19.9001C12.225 19.9553 12.1802 20.0001 12.125 20.0001H11.641C11.5857 20.0001 11.541 19.9553 11.541 19.9001V17.2921C11.541 17.2369 11.5857 17.1921 11.641 17.1921H12.2816C12.3223 17.1921 12.359 17.2168 12.3743 17.2545L13.0438 18.9063C13.0776 18.9897 13.1958 18.9895 13.2293 18.906L13.8918 17.2549C13.907 17.2169 13.9437 17.1921 13.9846 17.1921H14.621Z" fill="#4582EC"/>
<path d="M18.2928 17.1921C18.3481 17.1921 18.3928 17.2369 18.3928 17.2921V19.9001C18.3928 19.9553 18.3481 20.0001 18.2928 20.0001H17.8088C17.7536 20.0001 17.7088 19.9553 17.7088 19.9001V18.8704C17.7088 18.759 17.5541 18.7311 17.5151 18.8355L17.1051 19.935C17.0905 19.9742 17.0532 20.0001 17.0114 20.0001H16.5982C16.5565 20.0001 16.5192 19.9742 16.5045 19.9352L16.0905 18.8293C16.0514 18.725 15.8968 18.753 15.8968 18.8644V19.9001C15.8968 19.9553 15.8521 20.0001 15.7968 20.0001H15.3128C15.2576 20.0001 15.2128 19.9553 15.2128 19.9001V17.2921C15.2128 17.2369 15.2576 17.1921 15.3128 17.1921H15.9535C15.9942 17.1921 16.0309 17.2168 16.0462 17.2545L16.7157 18.9063C16.7495 18.9897 16.8677 18.9895 16.9012 18.906L17.5637 17.2549C17.5789 17.2169 17.6156 17.1921 17.6565 17.1921H18.2928Z" fill="#4582EC"/>
</g>
<defs>
<linearGradient id="paint0_linear_2:3139" x1="-0.623227" y1="14.4288" x2="51.9334" y2="28.3692" gradientUnits="userSpaceOnUse">
<stop stop-color="#9BC0FF" stop-opacity="0"/>
<stop offset="1" stop-color="white"/>
</linearGradient>
<clipPath id="clip0_2:3139">
<rect width="48" height="48" fill="white"/>
</clipPath>
</defs>
</svg>
