<svg width="18" height="19" viewBox="0 0 18 19" fill="none" xmlns="http://www.w3.org/2000/svg">
<path opacity="0.2" d="M7 0.755371H1C0.734784 0.755371 0.48043 0.860728 0.292893 1.04826C0.105357 1.2358 0 1.49015 0 1.75537V7.75537C0 8.02059 0.105357 8.27494 0.292893 8.46248C0.48043 8.65001 0.734784 8.75537 1 8.75537H7C7.26522 8.75537 7.51957 8.65001 7.70711 8.46248C7.89464 8.27494 8 8.02059 8 7.75537V1.75537C8 1.49015 7.89464 1.2358 7.70711 1.04826C7.51957 0.860728 7.26522 0.755371 7 0.755371ZM6 6.75537H2V2.75537H6V6.75537ZM17 0.755371H11C10.7348 0.755371 10.4804 0.860728 10.2929 1.04826C10.1054 1.2358 10 1.49015 10 1.75537V7.75537C10 8.02059 10.1054 8.27494 10.2929 8.46248C10.4804 8.65001 10.7348 8.75537 11 8.75537H17C17.2652 8.75537 17.5196 8.65001 17.7071 8.46248C17.8946 8.27494 18 8.02059 18 7.75537V1.75537C18 1.49015 17.8946 1.2358 17.7071 1.04826C17.5196 0.860728 17.2652 0.755371 17 0.755371ZM16 6.75537H12V2.75537H16V6.75537ZM7 10.7554H1C0.734784 10.7554 0.48043 10.8607 0.292893 11.0483C0.105357 11.2358 0 11.4902 0 11.7554V17.7554C0 18.0206 0.105357 18.2749 0.292893 18.4625C0.48043 18.65 0.734784 18.7554 1 18.7554H7C7.26522 18.7554 7.51957 18.65 7.70711 18.4625C7.89464 18.2749 8 18.0206 8 17.7554V11.7554C8 11.4902 7.89464 11.2358 7.70711 11.0483C7.51957 10.8607 7.26522 10.7554 7 10.7554ZM6 16.7554H2V12.7554H6V16.7554ZM14 10.7554C11.794 10.7554 10 12.5494 10 14.7554C10 16.9614 11.794 18.7554 14 18.7554C16.206 18.7554 18 16.9614 18 14.7554C18 12.5494 16.206 10.7554 14 10.7554ZM14 16.7554C12.897 16.7554 12 15.8584 12 14.7554C12 13.6524 12.897 12.7554 14 12.7554C15.103 12.7554 16 13.6524 16 14.7554C16 15.8584 15.103 16.7554 14 16.7554Z" fill="#4582EC"/>
</svg>
