<svg width="84" height="101" viewBox="0 0 84 101" fill="none" xmlns="http://www.w3.org/2000/svg">
<path d="M11.6868 8.22247C-14.7442 31.5697 19.271 54.2008 16.0312 79.7123C14.5907 91.0545 19.1667 101.897 34.1376 100.658C52.3823 99.1482 45.7595 81.6723 49.5802 70.0377C56.1544 50.018 96.5978 54.694 79.8331 23.8565C69.1343 4.17715 29.8788 -7.84687 11.6868 8.22247Z" fill="url(#paint0_linear_2:16137)"/>
<path opacity="0.1" d="M72.4014 38.0923H57.7529V24.4854C57.7529 23.4067 56.8785 22.5323 55.7998 22.5323H13.0264C11.9477 22.5323 11.0732 23.4067 11.0732 24.4854V80.5401C11.0732 84.8548 14.5711 88.3526 18.8857 88.3526H66.542C70.8566 88.3526 74.3545 84.8548 74.3545 80.5401V40.0454C74.3545 38.9667 73.4801 38.0923 72.4014 38.0923Z" fill="#4582EC"/>
<path d="M30.2935 33.4047V83.6651H66.5413C70.8559 83.6651 74.3538 80.1672 74.3538 75.8526V35.3578C74.3538 34.2791 73.4794 33.4047 72.4007 33.4047H30.2935Z" fill="#8FB4F4"/>
<path d="M57.7529 75.8526V19.7979C57.7529 18.7192 56.8785 17.8448 55.7998 17.8448H13.0264C11.9477 17.8448 11.0732 18.7192 11.0732 19.7979V75.8526C11.0732 80.1673 14.5711 83.6651 18.8857 83.6651H65.5654C61.2508 83.6651 57.7529 80.1673 57.7529 75.8526Z" fill="white"/>
<path d="M30.356 42.7318V69.929C30.356 70.4681 29.9185 70.9056 29.3794 70.9056H16.9771C16.438 70.9056 16.0005 70.4681 16.0005 69.929V42.7318C16.0005 42.1927 16.438 41.7552 16.9771 41.7552H29.3794C29.9185 41.7552 30.356 42.1927 30.356 42.7318Z" fill="#8FB4F4"/>
<path d="M28.5005 47.7591H17.9771C17.4378 47.7591 17.0005 47.3218 17.0005 46.7825V44.7318C17.0005 44.1925 17.4378 43.7552 17.9771 43.7552H28.5003C29.0395 43.7552 29.4769 44.1925 29.4769 44.7318V46.7825C29.477 47.3218 29.0397 47.7591 28.5005 47.7591Z" fill="white"/>
<path d="M28.5005 54.7591H17.9771C17.4378 54.7591 17.0005 54.3218 17.0005 53.7825V51.7318C17.0005 51.1925 17.4378 50.7552 17.9771 50.7552H28.5003C29.0395 50.7552 29.4769 51.1925 29.4769 51.7318V53.7825C29.477 54.3218 29.0397 54.7591 28.5005 54.7591Z" fill="white"/>
<path d="M28.5005 61.7591H17.9771C17.4378 61.7591 17.0005 61.3218 17.0005 60.7825V58.7318C17.0005 58.1925 17.4378 57.7552 17.9771 57.7552H28.5003C29.0395 57.7552 29.4769 58.1925 29.4769 58.7318V60.7825C29.477 61.3218 29.0397 61.7591 28.5005 61.7591Z" fill="white"/>
<path d="M28.5005 68.7591H17.9771C17.4378 68.7591 17.0005 68.3218 17.0005 67.7825V65.7318C17.0005 65.1925 17.4378 64.7552 17.9771 64.7552H28.5003C29.0395 64.7552 29.4769 65.1925 29.4769 65.7318V67.7825C29.477 68.3218 29.0397 68.7591 28.5005 68.7591Z" fill="white"/>
<path d="M16.3311 33.2351C16.3311 32.5418 16.4811 31.9251 16.7811 31.3851C17.0811 30.8384 17.4977 30.4151 18.0311 30.1151C18.5711 29.8084 19.1811 29.6551 19.8611 29.6551C20.6944 29.6551 21.4077 29.8751 22.0011 30.3151C22.4602 30.6556 22.8015 31.0918 23.0251 31.6239C23.1267 31.8656 22.9344 32.1151 22.6722 32.1151H21.5634C21.4092 32.1151 21.2725 32.0238 21.1866 31.8958C21.0604 31.7079 20.9019 31.5576 20.7111 31.4451C20.4577 31.2918 20.1677 31.2151 19.8411 31.2151C19.3144 31.2151 18.8877 31.3984 18.5611 31.7651C18.2344 32.1318 18.0711 32.6218 18.0711 33.2351C18.0711 33.8484 18.2344 34.3384 18.5611 34.7051C18.8877 35.0718 19.3144 35.2551 19.8411 35.2551C20.1677 35.2551 20.4577 35.1784 20.7111 35.0251C20.9019 34.9125 21.0604 34.7623 21.1866 34.5743C21.2725 34.4463 21.4092 34.3551 21.5634 34.3551H22.6722C22.9344 34.3551 23.1267 34.6045 23.0251 34.8463C22.8015 35.3784 22.4602 35.8146 22.0011 36.1551C21.4077 36.5884 20.6944 36.8051 19.8611 36.8051C19.1811 36.8051 18.5711 36.6551 18.0311 36.3551C17.4977 36.0484 17.0811 35.6251 16.7811 35.0851C16.4811 34.5451 16.3311 33.9284 16.3311 33.2351Z" fill="#4582EC"/>
<path d="M30.2619 29.7351C30.5382 29.7351 30.7313 30.0085 30.6389 30.2688L28.4327 36.4888C28.3761 36.6484 28.2251 36.7551 28.0557 36.7551H26.4808C26.3114 36.7551 26.1604 36.6484 26.1038 36.4888L23.8976 30.2688C23.8052 30.0085 23.9983 29.7351 24.2745 29.7351H25.2386C25.4114 29.7351 25.5647 29.8461 25.6186 30.0103L26.8893 33.8808C27.0097 34.2474 27.5282 34.2479 27.6492 33.8815L28.9276 30.0097C28.9817 29.8458 29.1348 29.7351 29.3074 29.7351H30.2619Z" fill="#4582EC"/>
<path d="M53.2216 67.1517H33.6538C33.1144 67.1517 32.6772 66.7144 32.6772 66.1752C32.6772 65.6359 33.1144 65.1986 33.6538 65.1986H53.2216C53.761 65.1986 54.1982 65.6359 54.1982 66.1752C54.1982 66.7144 53.761 67.1517 53.2216 67.1517Z" fill="#4582EC"/>
<path d="M53.2216 71.058H33.6538C33.1144 71.058 32.6772 70.6207 32.6772 70.0814C32.6772 69.5422 33.1144 69.1049 33.6538 69.1049H53.2216C53.761 69.1049 54.1982 69.5422 54.1982 70.0814C54.1982 70.6207 53.761 71.058 53.2216 71.058Z" fill="#4582EC"/>
<path d="M53.2214 74.9642H16.4214C15.8819 74.9642 15.4448 74.5269 15.4448 73.9877C15.4448 73.4484 15.8819 73.0111 16.4214 73.0111H53.2216C53.761 73.0111 54.1981 73.4484 54.1981 73.9877C54.1981 74.5269 53.7608 74.9642 53.2214 74.9642Z" fill="#4582EC"/>
<path d="M53.2214 78.8705H16.4214C15.8819 78.8705 15.4448 78.4332 15.4448 77.8939C15.4448 77.3547 15.8819 76.9174 16.4214 76.9174H53.2216C53.761 76.9174 54.1981 77.3547 54.1981 77.8939C54.1981 78.4332 53.7608 78.8705 53.2214 78.8705Z" fill="#4582EC"/>
<path d="M53.2216 55.433H33.6538C33.1144 55.433 32.6772 54.9957 32.6772 54.4564C32.6772 53.9172 33.1144 53.4799 33.6538 53.4799H53.2216C53.761 53.4799 54.1982 53.9172 54.1982 54.4564C54.1982 54.9957 53.761 55.433 53.2216 55.433Z" fill="#4582EC"/>
<path d="M53.2216 59.3392H33.6538C33.1144 59.3392 32.6772 58.9019 32.6772 58.3627C32.6772 57.8234 33.1144 57.3861 33.6538 57.3861H53.2216C53.761 57.3861 54.1982 57.8234 54.1982 58.3627C54.1982 58.9019 53.761 59.3392 53.2216 59.3392Z" fill="#4582EC"/>
<path d="M53.2216 63.2455H33.6538C33.1144 63.2455 32.6772 62.8082 32.6772 62.2689C32.6772 61.7297 33.1144 61.2924 33.6538 61.2924H53.2216C53.761 61.2924 54.1982 61.7297 54.1982 62.2689C54.1982 62.8082 53.761 63.2455 53.2216 63.2455Z" fill="#4582EC"/>
<path d="M53.2216 43.7142H33.6538C33.1144 43.7142 32.6772 43.2769 32.6772 42.7377C32.6772 42.1984 33.1144 41.7611 33.6538 41.7611H53.2216C53.761 41.7611 54.1982 42.1984 54.1982 42.7377C54.1982 43.2769 53.761 43.7142 53.2216 43.7142Z" fill="#4582EC"/>
<path d="M53.2216 31.7084H33.6538C33.1144 31.7084 32.6772 31.2711 32.6772 30.7318C32.6772 30.1926 33.1144 29.7552 33.6538 29.7552H53.2216C53.761 29.7552 54.1982 30.1926 54.1982 30.7318C54.1982 31.2711 53.761 31.7084 53.2216 31.7084Z" fill="#4582EC"/>
<path d="M53.2216 47.6205H33.6538C33.1144 47.6205 32.6772 47.1832 32.6772 46.6439C32.6772 46.1047 33.1144 45.6674 33.6538 45.6674H53.2216C53.761 45.6674 54.1982 46.1047 54.1982 46.6439C54.1982 47.1832 53.761 47.6205 53.2216 47.6205Z" fill="#4582EC"/>
<path d="M53.2216 35.6146H33.6538C33.1144 35.6146 32.6772 35.1773 32.6772 34.6381C32.6772 34.0988 33.1144 33.6615 33.6538 33.6615H53.2216C53.761 33.6615 54.1982 34.0988 54.1982 34.6381C54.1982 35.1773 53.761 35.6146 53.2216 35.6146Z" fill="#4582EC"/>
<path d="M53.2216 51.5267H33.6538C33.1144 51.5267 32.6772 51.0894 32.6772 50.5502C32.6772 50.0109 33.1144 49.5736 33.6538 49.5736H53.2216C53.761 49.5736 54.1982 50.0109 54.1982 50.5502C54.1982 51.0896 53.761 51.5267 53.2216 51.5267Z" fill="#4582EC"/>
<path d="M53.2216 39.5208H33.6538C33.1144 39.5208 32.6772 39.0836 32.6772 38.5443C32.6772 38.005 33.1144 37.5677 33.6538 37.5677H53.2216C53.761 37.5677 54.1982 38.005 54.1982 38.5443C54.1982 39.0837 53.761 39.5208 53.2216 39.5208Z" fill="#4582EC"/>
<path d="M47.8535 24.5831C47.3143 24.5831 46.877 24.1458 46.877 23.6065V22.9229C46.877 22.3837 47.3143 21.9464 47.8535 21.9464C48.3928 21.9464 48.8301 22.3837 48.8301 22.9229V23.6065C48.8301 24.1458 48.3928 24.5831 47.8535 24.5831Z" fill="#4582EC"/>
<path d="M50.832 24.5831C50.2928 24.5831 49.8555 24.1458 49.8555 23.6065V22.9229C49.8555 22.3837 50.2928 21.9464 50.832 21.9464C51.3713 21.9464 51.8086 22.3837 51.8086 22.9229V23.6065C51.8086 24.1458 51.3713 24.5831 50.832 24.5831Z" fill="#4582EC"/>
<path d="M36.8001 25.9503H16.9087C16.3694 25.9503 15.9321 25.5129 15.9321 24.9737V22.9229C15.9321 22.3837 16.3694 21.9464 16.9087 21.9464H36.7999C37.3392 21.9464 37.7765 22.3837 37.7765 22.9229V24.9737C37.7767 25.5129 37.3394 25.9503 36.8001 25.9503Z" fill="#8FB4F4"/>
<path d="M68.1044 74.9642H64.8491C64.3099 74.9642 63.8726 74.5269 63.8726 73.9876V45.3024C63.8726 44.7632 64.3099 44.3259 64.8491 44.3259H68.1044C68.6437 44.3259 69.081 44.7632 69.081 45.3024V73.9876C69.081 74.5271 68.6438 74.9642 68.1044 74.9642Z" fill="white"/>
<path d="M3.25503 61.0803C3.00503 61.0803 2.75522 60.985 2.5644 60.7944L0.415967 58.6459C0.0345215 58.2645 0.0345215 57.6461 0.415967 57.2649L2.5644 55.1164C2.94585 54.7352 3.56401 54.7352 3.94546 55.1164L6.0939 57.2649C6.47534 57.6463 6.47534 58.2647 6.0939 58.6459L3.94546 60.7944C3.75483 60.9848 3.50503 61.0803 3.25503 61.0803ZM2.48765 57.9553L3.25503 58.7227L4.02241 57.9553L3.25503 57.1879L2.48765 57.9553Z" fill="#8FB4F4"/>
<path d="M70.0558 27.7287C69.8058 27.7287 69.556 27.6334 69.3652 27.4428L67.2167 25.2944C66.8353 24.9129 66.8353 24.2946 67.2167 23.9133L69.3652 21.7649C69.7466 21.3836 70.3648 21.3836 70.7462 21.7649L72.8947 23.9133C73.2761 24.2948 73.2761 24.9131 72.8947 25.2944L70.7462 27.4428C70.5556 27.6334 70.3058 27.7287 70.0558 27.7287ZM69.2886 24.6037L70.056 25.3711L70.8234 24.6037L70.056 23.8364L69.2886 24.6037Z" fill="#8FB4F4"/>
<path d="M54.1973 93.9471C53.658 93.9471 53.2207 93.5098 53.2207 92.9705C53.2207 92.3242 52.6951 91.7986 52.0488 91.7986C51.5096 91.7986 51.0723 91.3613 51.0723 90.8221C51.0723 90.2828 51.5096 89.8455 52.0488 89.8455C52.6951 89.8455 53.2207 89.3197 53.2207 88.6736C53.2207 88.1344 53.658 87.6971 54.1973 87.6971C54.7365 87.6971 55.1738 88.1344 55.1738 88.6736C55.1738 89.3199 55.6994 89.8455 56.3457 89.8455C56.885 89.8455 57.3223 90.2828 57.3223 90.8221C57.3223 91.3613 56.885 91.7986 56.3457 91.7986C55.6994 91.7986 55.1738 92.3242 55.1738 92.9705C55.1738 93.51 54.7365 93.9471 54.1973 93.9471Z" fill="#8FB4F4"/>
<path d="M63.8711 18.1862C63.3318 18.1862 62.8945 17.7488 62.8945 17.2096C62.8945 16.5633 62.3689 16.0377 61.7227 16.0377C61.1834 16.0377 60.7461 15.6004 60.7461 15.0612C60.7461 14.5219 61.1834 14.0846 61.7227 14.0846C62.3689 14.0846 62.8945 13.559 62.8945 12.9127C62.8945 12.3735 63.3318 11.9362 63.8711 11.9362C64.4104 11.9362 64.8477 12.3735 64.8477 12.9127C64.8477 13.559 65.3732 14.0846 66.0195 14.0846C66.5588 14.0846 66.9961 14.5219 66.9961 15.0612C66.9961 15.6004 66.5588 16.0377 66.0195 16.0377C65.3732 16.0377 64.8477 16.5633 64.8477 17.2096C64.8477 17.7488 64.4105 18.1862 63.8711 18.1862Z" fill="#8FB4F4"/>
<path d="M15.9321 15.1556C15.3929 15.1556 14.9556 14.7183 14.9556 14.1791C14.9556 13.5328 14.43 13.0072 13.7837 13.0072C13.2444 13.0072 12.8071 12.5699 12.8071 12.0306C12.8071 11.4914 13.2444 11.0541 13.7837 11.0541C14.43 11.0541 14.9556 10.5285 14.9556 9.8822C14.9556 9.34294 15.3929 8.90564 15.9321 8.90564C16.4714 8.90564 16.9087 9.34294 16.9087 9.8822C16.9087 10.5285 17.4343 11.0541 18.0806 11.0541C18.6198 11.0541 19.0571 11.4914 19.0571 12.0306C19.0571 12.5699 18.6198 13.0072 18.0806 13.0072C17.4343 13.0072 16.9087 13.5328 16.9087 14.1791C16.9087 14.7183 16.4714 15.1556 15.9321 15.1556Z" fill="#8FB4F4"/>
<defs>
<linearGradient id="paint0_linear_2:16137" x1="13.5599" y1="6.9397" x2="98.6508" y2="37.099" gradientUnits="userSpaceOnUse">
<stop stop-color="#FBFCFE"/>
<stop offset="1" stop-color="#DCE7FC"/>
</linearGradient>
</defs>
</svg>
