<svg width="14" height="19" viewBox="0 0 14 19" fill="none" xmlns="http://www.w3.org/2000/svg">
<path opacity="0.2" d="M7 18.7555C5.73694 17.6781 4.56619 16.497 3.5 15.2245C1.9 13.3135 8.78894e-07 10.4675 8.78894e-07 7.75546C-0.00069302 6.37042 0.409509 5.01631 1.17869 3.86449C1.94788 2.71267 3.04147 1.81492 4.32107 1.28486C5.60067 0.7548 7.00875 0.616253 8.36712 0.886755C9.72548 1.15726 10.9731 1.82465 11.952 2.80446C12.6038 3.45332 13.1203 4.225 13.4719 5.07484C13.8234 5.92467 14.0029 6.83579 14 7.75546C14 10.4675 12.1 13.3135 10.5 15.2245C9.4338 16.497 8.26306 17.6781 7 18.7555ZM7 4.75546C6.20435 4.75546 5.44129 5.07153 4.87868 5.63414C4.31607 6.19675 4 6.95981 4 7.75546C4 8.55111 4.31607 9.31418 4.87868 9.87678C5.44129 10.4394 6.20435 10.7555 7 10.7555C7.79565 10.7555 8.55871 10.4394 9.12132 9.87678C9.68393 9.31418 10 8.55111 10 7.75546C10 6.95981 9.68393 6.19675 9.12132 5.63414C8.55871 5.07153 7.79565 4.75546 7 4.75546Z" fill="#4582EC"/>
</svg>
