<svg width="94" height="101" viewBox="0 0 94 101" fill="none" xmlns="http://www.w3.org/2000/svg">
<path d="M1.04663 35.8263C6.17456 52.4292 22.0964 53.2101 36.6191 54.0983C84.4447 57.0237 24.314 96.7128 65.2709 100.642C80.3365 102.087 96.0886 89.5179 93.7062 73.2415C91.5369 58.4214 70.0437 49.5944 70.033 35.7456C70.0246 24.8188 90.3181 16.9157 77.1173 5.16884C65.3502 -5.30225 -9.38071 2.06572 1.04663 35.8263Z" fill="url(#paint0_linear_2:16021)"/>
<path d="M13.0158 39.4076C12.766 39.4076 12.5158 39.3123 12.3254 39.1217L10.177 36.9733C9.79551 36.5918 9.79551 35.9735 10.177 35.5922L12.3254 33.4438C12.7064 33.0625 13.3252 33.0625 13.7062 33.4438L15.8547 35.5922C16.2361 35.9737 16.2361 36.592 15.8547 36.9733L13.7062 39.1217C13.5158 39.3123 13.2656 39.4076 13.0158 39.4076ZM12.2484 36.2826L13.0158 37.05L13.7832 36.2826L13.0158 35.5155L12.2484 36.2826Z" fill="#8FB4F4"/>
<path d="M82.7422 42.5609C82.4832 42.5609 82.2348 42.458 82.0518 42.275L79.9033 40.1263C79.7201 39.9431 79.6172 39.6949 79.6172 39.4357C79.6172 39.1767 79.7199 38.9283 79.9033 38.7451L82.0518 36.5969C82.4328 36.2156 83.0516 36.2156 83.4326 36.5969L85.5811 38.7453C85.9625 39.1267 85.9625 39.7451 85.5811 40.1263L83.4326 42.2748C83.2496 42.458 83.0012 42.5609 82.7422 42.5609ZM81.9748 39.4357L82.7422 40.2031L83.5096 39.4357L82.7422 38.6685L81.9748 39.4357Z" fill="#8FB4F4"/>
<path d="M10.8672 64.1072C10.3277 64.1072 9.89062 63.6699 9.89062 63.1306C9.89062 62.4843 9.36504 61.9587 8.71875 61.9587C8.1793 61.9587 7.74219 61.5214 7.74219 60.9822C7.74219 60.4429 8.1793 60.0056 8.71875 60.0056C9.36504 60.0056 9.89062 59.48 9.89062 58.8337C9.89062 58.2945 10.3277 57.8572 10.8672 57.8572C11.4066 57.8572 11.8438 58.2945 11.8438 58.8337C11.8438 59.48 12.3693 60.0056 13.0156 60.0056C13.5551 60.0056 13.9922 60.4429 13.9922 60.9822C13.9922 61.5214 13.5551 61.9587 13.0156 61.9587C12.3693 61.9587 11.8438 62.4843 11.8438 63.1306C11.8438 63.6701 11.4066 64.1072 10.8672 64.1072Z" fill="#8FB4F4"/>
<path d="M85.8672 87.4323C85.3277 87.4323 84.8906 86.995 84.8906 86.4557C84.8906 85.8095 84.365 85.2839 83.7188 85.2839C83.1793 85.2839 82.7422 84.8466 82.7422 84.3073C82.7422 83.7681 83.1793 83.3307 83.7188 83.3307C84.365 83.3307 84.8906 82.8052 84.8906 82.1589C84.8906 81.6196 85.3277 81.1823 85.8672 81.1823C86.4066 81.1823 86.8438 81.6196 86.8438 82.1589C86.8438 82.8052 87.3693 83.3307 88.0156 83.3307C88.5551 83.3307 88.9922 83.7681 88.9922 84.3073C88.9922 84.8466 88.5551 85.2839 88.0156 85.2839C87.3693 85.2839 86.8438 85.8095 86.8438 86.4557C86.8438 86.995 86.4066 87.4323 85.8672 87.4323Z" fill="#8FB4F4"/>
<path d="M79.6841 32.603C79.1446 32.603 78.7075 32.1657 78.7075 31.6264C78.7075 30.9801 78.1819 30.4545 77.5356 30.4545C76.9962 30.4545 76.5591 30.0172 76.5591 29.478C76.5591 28.9387 76.9962 28.5014 77.5356 28.5014C78.1819 28.5014 78.7075 27.9758 78.7075 27.3295C78.7075 26.7903 79.1446 26.353 79.6841 26.353C80.2235 26.353 80.6606 26.7903 80.6606 27.3295C80.6606 27.9758 81.1862 28.5014 81.8325 28.5014C82.372 28.5014 82.8091 28.9387 82.8091 29.478C82.8091 30.0172 82.372 30.4545 81.8325 30.4545C81.1862 30.4545 80.6606 30.9801 80.6606 31.6264C80.6606 32.1659 80.2235 32.603 79.6841 32.603Z" fill="#8FB4F4"/>
<path opacity="0.1" d="M72.4941 18.0237V91.8363C72.4941 95.0726 69.8711 97.6956 66.6348 97.6956H27.3652C24.1289 97.6956 21.5059 95.0726 21.5059 91.8363V18.0237C21.5059 14.7874 24.1289 12.1644 27.3652 12.1644H66.6348C69.8711 12.1644 72.4941 14.7874 72.4941 18.0237Z" fill="#4582EC"/>
<path d="M72.4941 13.3362V87.1488C72.4941 90.3851 69.8711 93.0081 66.6348 93.0081H27.3652C24.1289 93.0081 21.5059 90.3851 21.5059 87.1488V13.3362C21.5059 10.0999 24.1289 7.47687 27.3652 7.47687H66.6348C69.8711 7.47687 72.4941 10.0999 72.4941 13.3362Z" fill="white"/>
<path d="M57.858 11.9572L59.2559 7.47693H34.7441L36.142 11.9572C36.3965 12.773 37.152 13.3287 38.0064 13.3287H55.9934C56.848 13.3285 57.6035 12.773 57.858 11.9572Z" fill="#8FB4F4"/>
<path d="M39.0318 37.2298C41.9728 34.2887 41.9728 29.5203 39.0318 26.5792C36.0907 23.6381 31.3223 23.6381 28.3812 26.5792C25.4401 29.5203 25.4401 34.2887 28.3812 37.2298C31.3223 40.1708 36.0907 40.1708 39.0318 37.2298Z" fill="#8FB4F4"/>
<path d="M36.9587 30.7699C36.9587 28.9807 35.503 27.5252 33.714 27.5252C31.9247 27.5252 30.4692 28.9809 30.4692 30.7699C30.4692 31.6524 30.8243 32.4526 31.398 33.0381C30.8245 33.6236 30.4692 34.4238 30.4692 35.3063C30.4692 35.8455 30.9065 36.2828 31.4458 36.2828C31.9851 36.2828 32.4224 35.8455 32.4224 35.3063C32.4224 34.5942 33.0019 34.0147 33.714 34.0147C34.4261 34.0147 35.0056 34.5942 35.0056 35.3063C35.0056 35.8455 35.4429 36.2828 35.9821 36.2828C36.5214 36.2828 36.9587 35.8455 36.9587 35.3063C36.9587 34.4238 36.6036 33.6236 36.03 33.0381C36.6036 32.4526 36.9587 31.6524 36.9587 30.7699ZM33.714 29.4781C34.4261 29.4781 35.0056 30.0576 35.0056 30.7697C35.0056 31.4818 34.4261 32.0613 33.714 32.0613C33.0019 32.0613 32.4224 31.4818 32.4224 30.7697C32.4224 30.0576 33.0017 29.4781 33.714 29.4781Z" fill="#4582EC"/>
<path d="M57.4028 86.2604H36.5981C36.0587 86.2604 35.6216 85.8231 35.6216 85.2839C35.6216 84.7446 36.0587 84.3073 36.5981 84.3073H57.4028C57.9423 84.3073 58.3794 84.7446 58.3794 85.2839C58.3794 85.8231 57.9421 86.2604 57.4028 86.2604Z" fill="#4582EC"/>
<path d="M66.8423 21.2862H51.897C51.3575 21.2862 50.9204 20.8489 50.9204 20.3096C50.9204 19.7704 51.3575 19.3331 51.897 19.3331H66.8423C67.3817 19.3331 67.8188 19.7704 67.8188 20.3096C67.8188 20.8489 67.3817 21.2862 66.8423 21.2862Z" fill="#4582EC"/>
<path d="M32.1235 13.01H28.4126C27.8733 13.01 27.436 12.5727 27.436 12.0335V11.0606C27.436 10.5214 27.8733 10.084 28.4126 10.084H32.1235C32.663 10.084 33.1001 10.5214 33.1001 11.0606V12.0335C33.1001 12.5727 32.663 13.01 32.1235 13.01Z" fill="#4582EC"/>
<path d="M62.6084 12.8653C62.0691 12.8653 61.6318 12.428 61.6318 11.8887V11.2051C61.6318 10.6659 62.0691 10.2286 62.6084 10.2286C63.1477 10.2286 63.585 10.6659 63.585 11.2051V11.8887C63.585 12.4282 63.1477 12.8653 62.6084 12.8653Z" fill="#4582EC"/>
<path d="M65.5869 12.8653C65.0477 12.8653 64.6104 12.428 64.6104 11.8887V11.2051C64.6104 10.6659 65.0477 10.2286 65.5869 10.2286C66.1262 10.2286 66.5635 10.6659 66.5635 11.2051V11.8887C66.5635 12.4282 66.1262 12.8653 65.5869 12.8653Z" fill="#4582EC"/>
<path d="M66.8423 35.8761H46.0376C45.4981 35.8761 45.061 35.4388 45.061 34.8995C45.061 34.3603 45.4981 33.923 46.0376 33.923H66.8421C67.3816 33.923 67.8187 34.3603 67.8187 34.8995C67.8189 35.4388 67.3818 35.8761 66.8423 35.8761Z" fill="#4582EC"/>
<path d="M46.0376 32.1147C45.4983 32.1147 45.061 31.6774 45.061 31.1381V30.4545C45.061 29.9153 45.4983 29.478 46.0376 29.478C46.5769 29.478 47.0142 29.9153 47.0142 30.4545V31.1381C47.0142 31.6776 46.5771 32.1147 46.0376 32.1147Z" fill="#4582EC"/>
<path d="M49.0161 32.1147C48.4769 32.1147 48.0396 31.6774 48.0396 31.1381V30.4545C48.0396 29.9153 48.4769 29.478 49.0161 29.478C49.5554 29.478 49.9927 29.9153 49.9927 30.4545V31.1381C49.9927 31.6776 49.5556 32.1147 49.0161 32.1147Z" fill="#4582EC"/>
<path d="M54.9731 32.1147C54.4339 32.1147 53.9966 31.6774 53.9966 31.1381V30.4545C53.9966 29.9153 54.4339 29.478 54.9731 29.478C55.5124 29.478 55.9497 29.9153 55.9497 30.4545V31.1381C55.9497 31.6776 55.5126 32.1147 54.9731 32.1147Z" fill="#4582EC"/>
<path d="M57.9517 32.1147C57.4124 32.1147 56.9751 31.6774 56.9751 31.1381V30.4545C56.9751 29.9153 57.4124 29.478 57.9517 29.478C58.4909 29.478 58.9282 29.9153 58.9282 30.4545V31.1381C58.9282 31.6776 58.4911 32.1147 57.9517 32.1147Z" fill="#4582EC"/>
<path d="M60.9302 32.1147C60.3909 32.1147 59.9536 31.6774 59.9536 31.1381V30.4545C59.9536 29.9153 60.3909 29.478 60.9302 29.478C61.4694 29.478 61.9067 29.9153 61.9067 30.4545V31.1381C61.9067 31.6776 61.4696 32.1147 60.9302 32.1147Z" fill="#4582EC"/>
<path d="M63.9087 32.1147C63.3694 32.1147 62.9321 31.6774 62.9321 31.1381V30.4545C62.9321 29.9153 63.3694 29.478 63.9087 29.478C64.4479 29.478 64.8853 29.9153 64.8853 30.4545V31.1381C64.8853 31.6776 64.4481 32.1147 63.9087 32.1147Z" fill="#4582EC"/>
<path d="M66.8872 32.1147C66.3479 32.1147 65.9106 31.6774 65.9106 31.1381V30.4545C65.9106 29.9153 66.3479 29.478 66.8872 29.478C67.4265 29.478 67.8638 29.9153 67.8638 30.4545V31.1381C67.8638 31.6776 67.4267 32.1147 66.8872 32.1147Z" fill="#4582EC"/>
<path d="M39.0283 55.5332C41.9694 52.5921 41.9694 47.8237 39.0283 44.8826C36.0873 41.9415 31.3188 41.9415 28.3778 44.8826C25.4367 47.8237 25.4367 52.5921 28.3778 55.5332C31.3188 58.4742 36.0873 58.4742 39.0283 55.5332Z" fill="#8FB4F4"/>
<path d="M36.9572 49.0753C36.9572 47.286 35.5016 45.8306 33.7125 45.8306C31.9232 45.8306 30.4678 47.2862 30.4678 49.0753C30.4678 49.9577 30.8229 50.7579 31.3965 51.3435C30.823 51.929 30.4678 52.7292 30.4678 53.6116C30.4678 54.1509 30.9051 54.5882 31.4443 54.5882C31.9836 54.5882 32.4209 54.1509 32.4209 53.6116C32.4209 52.8995 33.0004 52.32 33.7125 52.32C34.4246 52.32 35.0041 52.8995 35.0041 53.6116C35.0041 54.1509 35.4414 54.5882 35.9807 54.5882C36.5199 54.5882 36.9572 54.1509 36.9572 53.6116C36.9572 52.7292 36.6021 51.929 36.0285 51.3435C36.6021 50.7581 36.9572 49.9579 36.9572 49.0753ZM33.7125 47.7837C34.4246 47.7837 35.0041 48.3632 35.0041 49.0753C35.0041 49.7874 34.4246 50.3669 33.7125 50.3669C33.0004 50.3669 32.4209 49.7874 32.4209 49.0753C32.4209 48.3632 33.0002 47.7837 33.7125 47.7837Z" fill="#4582EC"/>
<path d="M66.8423 54.1815H46.0376C45.4981 54.1815 45.061 53.7442 45.061 53.205C45.061 52.6657 45.4981 52.2284 46.0376 52.2284H66.8421C67.3816 52.2284 67.8187 52.6657 67.8187 53.205C67.8189 53.7442 67.3818 54.1815 66.8423 54.1815Z" fill="#4582EC"/>
<path d="M46.0376 50.4201C45.4983 50.4201 45.061 49.9828 45.061 49.4435V48.7599C45.061 48.2207 45.4983 47.7834 46.0376 47.7834C46.5769 47.7834 47.0142 48.2207 47.0142 48.7599V49.4435C47.0142 49.9828 46.5771 50.4201 46.0376 50.4201Z" fill="#4582EC"/>
<path d="M49.0161 50.4201C48.4769 50.4201 48.0396 49.9828 48.0396 49.4435V48.7599C48.0396 48.2207 48.4769 47.7834 49.0161 47.7834C49.5554 47.7834 49.9927 48.2207 49.9927 48.7599V49.4435C49.9927 49.9828 49.5556 50.4201 49.0161 50.4201Z" fill="#4582EC"/>
<path d="M54.9731 50.4201C54.4339 50.4201 53.9966 49.9828 53.9966 49.4435V48.7599C53.9966 48.2207 54.4339 47.7834 54.9731 47.7834C55.5124 47.7834 55.9497 48.2207 55.9497 48.7599V49.4435C55.9497 49.9828 55.5126 50.4201 54.9731 50.4201Z" fill="#4582EC"/>
<path d="M57.9517 50.4201C57.4124 50.4201 56.9751 49.9828 56.9751 49.4435V48.7599C56.9751 48.2207 57.4124 47.7834 57.9517 47.7834C58.4909 47.7834 58.9282 48.2207 58.9282 48.7599V49.4435C58.9282 49.9828 58.4911 50.4201 57.9517 50.4201Z" fill="#4582EC"/>
<path d="M60.9302 50.4201C60.3909 50.4201 59.9536 49.9828 59.9536 49.4435V48.7599C59.9536 48.2207 60.3909 47.7834 60.9302 47.7834C61.4694 47.7834 61.9067 48.2207 61.9067 48.7599V49.4435C61.9067 49.9828 61.4696 50.4201 60.9302 50.4201Z" fill="#4582EC"/>
<path d="M63.9087 50.4201C63.3694 50.4201 62.9321 49.9828 62.9321 49.4435V48.7599C62.9321 48.2207 63.3694 47.7834 63.9087 47.7834C64.4479 47.7834 64.8853 48.2207 64.8853 48.7599V49.4435C64.8853 49.9828 64.4481 50.4201 63.9087 50.4201Z" fill="#4582EC"/>
<path d="M66.8872 50.4201C66.3479 50.4201 65.9106 49.9828 65.9106 49.4435V48.7599C65.9106 48.2207 66.3479 47.7834 66.8872 47.7834C67.4265 47.7834 67.8638 48.2207 67.8638 48.7599V49.4435C67.8638 49.9828 67.4267 50.4201 66.8872 50.4201Z" fill="#4582EC"/>
<path d="M41.0346 70.273C41.9914 66.2254 39.4858 62.1685 35.4382 61.2117C31.3906 60.255 27.3337 62.7606 26.3769 66.8082C25.4202 70.8558 27.9258 74.9126 31.9734 75.8694C36.021 76.8262 40.0779 74.3206 41.0346 70.273Z" fill="#8FB4F4"/>
<path d="M36.9587 67.3805C36.9587 65.5912 35.503 64.1357 33.714 64.1357C31.9247 64.1357 30.4692 65.5914 30.4692 67.3805C30.4692 68.2629 30.8243 69.0631 31.398 69.6486C30.8245 70.2342 30.4692 71.0344 30.4692 71.9168C30.4692 72.456 30.9065 72.8934 31.4458 72.8934C31.9851 72.8934 32.4224 72.456 32.4224 71.9168C32.4224 71.2047 33.0019 70.6252 33.714 70.6252C34.4261 70.6252 35.0056 71.2047 35.0056 71.9168C35.0056 72.456 35.4429 72.8934 35.9821 72.8934C36.5214 72.8934 36.9587 72.456 36.9587 71.9168C36.9587 71.0344 36.6036 70.2342 36.03 69.6486C36.6036 69.0631 36.9587 68.2629 36.9587 67.3805ZM33.714 66.0889C34.4261 66.0889 35.0056 66.6684 35.0056 67.3805C35.0056 68.0926 34.4261 68.6721 33.714 68.6721C33.0019 68.6721 32.4224 68.0926 32.4224 67.3805C32.4222 66.6684 33.0017 66.0889 33.714 66.0889Z" fill="#4582EC"/>
<path d="M66.8423 72.4869H46.0376C45.4981 72.4869 45.061 72.0496 45.061 71.5104C45.061 70.9711 45.4981 70.5338 46.0376 70.5338H66.8421C67.3816 70.5338 67.8187 70.9711 67.8187 71.5104C67.8187 72.0496 67.3818 72.4869 66.8423 72.4869Z" fill="#4582EC"/>
<path d="M46.0376 68.7256C45.4983 68.7256 45.061 68.2883 45.061 67.7491V67.0655C45.061 66.5262 45.4983 66.0889 46.0376 66.0889C46.5769 66.0889 47.0142 66.5262 47.0142 67.0655V67.7491C47.0142 68.2883 46.5771 68.7256 46.0376 68.7256Z" fill="#4582EC"/>
<path d="M49.0161 68.7256C48.4769 68.7256 48.0396 68.2883 48.0396 67.7491V67.0655C48.0396 66.5262 48.4769 66.0889 49.0161 66.0889C49.5554 66.0889 49.9927 66.5262 49.9927 67.0655V67.7491C49.9927 68.2883 49.5556 68.7256 49.0161 68.7256Z" fill="#4582EC"/>
<path d="M54.9731 68.7256C54.4339 68.7256 53.9966 68.2883 53.9966 67.7491V67.0655C53.9966 66.5262 54.4339 66.0889 54.9731 66.0889C55.5124 66.0889 55.9497 66.5262 55.9497 67.0655V67.7491C55.9497 68.2883 55.5126 68.7256 54.9731 68.7256Z" fill="#4582EC"/>
<path d="M57.9517 68.7256C57.4124 68.7256 56.9751 68.2883 56.9751 67.7491V67.0655C56.9751 66.5262 57.4124 66.0889 57.9517 66.0889C58.4909 66.0889 58.9282 66.5262 58.9282 67.0655V67.7491C58.9282 68.2883 58.4911 68.7256 57.9517 68.7256Z" fill="#4582EC"/>
<path d="M60.9302 68.7256C60.3909 68.7256 59.9536 68.2883 59.9536 67.7491V67.0655C59.9536 66.5262 60.3909 66.0889 60.9302 66.0889C61.4694 66.0889 61.9067 66.5262 61.9067 67.0655V67.7491C61.9067 68.2883 61.4696 68.7256 60.9302 68.7256Z" fill="#4582EC"/>
<path d="M63.9087 68.7256C63.3694 68.7256 62.9321 68.2883 62.9321 67.7491V67.0655C62.9321 66.5262 63.3694 66.0889 63.9087 66.0889C64.4479 66.0889 64.8853 66.5262 64.8853 67.0655V67.7491C64.8853 68.2883 64.4481 68.7256 63.9087 68.7256Z" fill="#4582EC"/>
<path d="M66.8872 68.7256C66.3479 68.7256 65.9106 68.2883 65.9106 67.7491V67.0655C65.9106 66.5262 66.3479 66.0889 66.8872 66.0889C67.4265 66.0889 67.8638 66.5262 67.8638 67.0655V67.7491C67.8638 68.2883 67.4267 68.7256 66.8872 68.7256Z" fill="#4582EC"/>
<path d="M46.9998 81.4082C46.75 81.4082 46.4998 81.3129 46.3094 81.1223L45.1699 79.983C44.7885 79.6016 44.7885 78.9834 45.1697 78.6019C45.5511 78.2205 46.1693 78.2205 46.5508 78.6019L46.9998 79.0508L47.4488 78.6019C47.8299 78.2207 48.4484 78.2205 48.8299 78.6019C49.2111 78.9834 49.2111 79.6016 48.8297 79.983L47.6902 81.1223C47.4998 81.3129 47.2496 81.4082 46.9998 81.4082Z" fill="#4582EC"/>
<path d="M27.3638 93.9848H66.6339C70.4032 93.9848 73.4698 90.9182 73.4698 87.1489V43.5608C73.4698 43.0215 73.0327 42.5842 72.4933 42.5842C71.9538 42.5842 71.5167 43.0215 71.5167 43.5608V87.1491C71.5167 89.8415 69.3263 92.0319 66.6339 92.0319H27.3638C24.6714 92.0319 22.481 89.8415 22.481 87.1491V13.3362C22.481 10.6438 24.6714 8.45337 27.3638 8.45337H41.8235C42.363 8.45337 42.8001 8.01606 42.8001 7.47681C42.8001 6.93755 42.363 6.50024 41.8235 6.50024H27.3638C23.5944 6.50024 20.5278 9.56685 20.5278 13.3362V87.1491C20.5278 90.9182 23.5944 93.9848 27.3638 93.9848Z" fill="#4582EC"/>
<path d="M48.397 8.45337H66.6327C69.3251 8.45337 71.5155 10.6438 71.5155 13.3362V36.9864C71.5155 37.5256 71.9526 37.9629 72.4921 37.9629C73.0315 37.9629 73.4687 37.5256 73.4687 36.9864V13.3362C73.4687 9.56685 70.4021 6.50024 66.6327 6.50024H48.397C47.8575 6.50024 47.4204 6.93755 47.4204 7.47681C47.4204 8.01607 47.8575 8.45337 48.397 8.45337Z" fill="#4582EC"/>
<defs>
<linearGradient id="paint0_linear_2:16021" x1="13.745" y1="6.9397" x2="107.65" y2="44.9051" gradientUnits="userSpaceOnUse">
<stop stop-color="#FBFCFE"/>
<stop offset="1" stop-color="#DCE7FC"/>
</linearGradient>
</defs>
</svg>
