<svg width="19" height="20" viewBox="0 0 19 20" fill="none" xmlns="http://www.w3.org/2000/svg">
<path opacity="0.2" d="M8 16.7554C9.77498 16.755 11.4988 16.1608 12.897 15.0674L17.293 19.4634L18.707 18.0494L14.311 13.6534C15.405 12.255 15.9996 10.5308 16 8.75537C16 4.34437 12.411 0.755371 8 0.755371C3.589 0.755371 0 4.34437 0 8.75537C0 13.1664 3.589 16.7554 8 16.7554ZM8 2.75537C11.309 2.75537 14 5.44637 14 8.75537C14 12.0644 11.309 14.7554 8 14.7554C4.691 14.7554 2 12.0644 2 8.75537C2 5.44637 4.691 2.75537 8 2.75537Z" fill="#4582EC"/>
</svg>
