<svg width="100" height="54" viewBox="0 0 100 54" fill="none" xmlns="http://www.w3.org/2000/svg">
<path d="M8.62824 50.6868H2.54326L1.23264 53.6045H0.03125L5.02406 42.6827H6.16304L11.1558 53.6045H9.93885L8.62824 50.6868ZM8.20697 49.7507L5.58575 43.8841L2.96452 49.7507H8.20697Z" fill="#6B6B6B"/>
<path d="M27.0553 48.1436H28.1631V52.3095C27.6534 52.7568 27.0501 53.1 26.3532 53.3392C25.6563 53.5785 24.923 53.6981 24.1532 53.6981C23.0611 53.6981 22.0781 53.4589 21.2044 52.9804C20.3306 52.5019 19.6441 51.8414 19.1448 50.9989C18.6455 50.1459 18.3959 49.1942 18.3959 48.1436C18.3959 47.093 18.6455 46.1465 19.1448 45.304C19.6441 44.451 20.3306 43.7853 21.2044 43.3068C22.0781 42.8283 23.0663 42.5891 24.1688 42.5891C25.001 42.5891 25.7655 42.7243 26.4624 42.9948C27.1593 43.2548 27.747 43.6449 28.2255 44.165L27.5078 44.8983C26.6444 44.0453 25.5471 43.6189 24.2156 43.6189C23.3315 43.6189 22.5306 43.8165 21.8129 44.2118C21.1055 44.5966 20.5491 45.1375 20.1434 45.8344C19.7377 46.5209 19.5349 47.2907 19.5349 48.1436C19.5349 48.9965 19.7377 49.7663 20.1434 50.4528C20.5491 51.1393 21.1055 51.6802 21.8129 52.0754C22.5202 52.4707 23.3159 52.6683 24.2 52.6683C25.3234 52.6683 26.2752 52.3875 27.0553 51.8258V48.1436Z" fill="#6B6B6B"/>
<path d="M45.7071 52.6059V53.6045H37.9839V42.6827H45.4731V43.6813H39.1385V47.5663H44.7866V48.5493H39.1385V52.6059H45.7071Z" fill="#6B6B6B"/>
<path d="M64.1017 42.6827V53.6045H63.1499L56.1288 44.7423V53.6045H54.9742V42.6827H55.9259L62.9627 51.545V42.6827H64.1017Z" fill="#6B6B6B"/>
<path d="M78.9627 53.6981C77.8809 53.6981 76.9032 53.4589 76.0294 52.9804C75.1661 52.5019 74.4848 51.8414 73.9855 50.9989C73.4966 50.1459 73.2522 49.1942 73.2522 48.1436C73.2522 47.093 73.4966 46.1465 73.9855 45.304C74.4848 44.451 75.1713 43.7853 76.045 43.3068C76.9188 42.8283 77.8965 42.5891 78.9783 42.5891C79.7896 42.5891 80.5386 42.7243 81.2251 42.9948C81.9116 43.2652 82.4941 43.6605 82.9725 44.1806L82.2392 44.9139C81.3863 44.0505 80.3097 43.6189 79.0095 43.6189C78.1462 43.6189 77.3608 43.8165 76.6535 44.2118C75.9462 44.607 75.3897 45.1479 74.9841 45.8344C74.5888 46.5209 74.3912 47.2907 74.3912 48.1436C74.3912 48.9965 74.5888 49.7663 74.9841 50.4528C75.3897 51.1393 75.9462 51.6802 76.6535 52.0754C77.3608 52.4707 78.1462 52.6683 79.0095 52.6683C80.3201 52.6683 81.3967 52.2315 82.2392 51.3577L82.9725 52.091C82.4941 52.6111 81.9064 53.0116 81.2095 53.2924C80.523 53.5629 79.774 53.6981 78.9627 53.6981Z" fill="#6B6B6B"/>
<path d="M95.503 49.8287V53.6045H94.364V49.8287L89.9953 42.6827H91.2279L94.9725 48.8145L98.7171 42.6827H99.8717L95.503 49.8287Z" fill="#6B6B6B"/>
<path d="M7.24403 0.66748H0V7.63289L7.24403 2.06056V0.66748Z" fill="#4582EC"/>
<path d="M0.000114441 31.5938H7.24414V3.45349L0.000114441 9.02582V31.5938Z" fill="#2F2F2F"/>
<path d="M66.5112 31.8723V26.0771H49.5268V17.1836H64.0148V11.5667H49.5268H42.3496V31.8723H66.5112Z" fill="#2F2F2F"/>
<path d="M65.9317 0.667236H42.3496V6.46246H49.5268H65.9317V0.667236Z" fill="#2F2F2F"/>
<path fill-rule="evenodd" clip-rule="evenodd" d="M11.3232 6.55162H21.3089V31.8723H28.5306V6.55162H38.5162V0.667236H11.3232V6.55162ZM90.2153 29.7892L91.664 31.8723H100L95.5584 25.7116L90.2153 29.7892ZM89.5745 28.8678L84.1302 21.0397L76.7302 31.8723H68.4386L79.9844 16.0023L69.0181 0.667236H77.2206L84.3977 10.7866L91.4411 0.667236H99.2424L88.3652 15.7348L94.882 24.7735L89.5745 28.8678Z" fill="#2F2F2F"/>
</svg>
