<svg width="16" height="14" viewBox="0 0 16 14" fill="none" xmlns="http://www.w3.org/2000/svg">
<path d="M15.2 0.866699H0.8C0.358188 0.866699 0 1.22486 0 1.6667V12.3334C0 12.7752 0.358156 13.1334 0.8 13.1334H15.2C15.6418 13.1334 16 12.7752 16 12.3334V1.6667C16 1.22489 15.6418 0.866699 15.2 0.866699ZM15.4667 12.3334C15.4667 12.4807 15.3473 12.6 15.2 12.6H0.8C0.652719 12.6 0.533344 12.4807 0.533344 12.3334V1.6667C0.533344 1.51942 0.652719 1.40004 0.8 1.40004H15.2C15.3473 1.40004 15.4667 1.51942 15.4667 1.6667V12.3334Z" fill="#4582EC"/>
<path d="M14.6901 1.93438C14.6196 1.92822 14.5496 1.95032 14.4955 1.99582L8.34343 7.1638C8.14502 7.33058 7.85543 7.33058 7.65702 7.1638L1.50505 1.99579C1.43209 1.93454 1.33196 1.91685 1.24243 1.94941C1.1529 1.98197 1.08752 2.05985 1.07096 2.15369C1.0544 2.24754 1.08915 2.34307 1.16212 2.40432L7.31412 7.57205C7.71062 7.90589 8.28987 7.90589 8.6864 7.57205L14.8384 2.40435C14.8926 2.35888 14.9264 2.29376 14.9326 2.22329C14.9387 2.15282 14.9166 2.08279 14.8711 2.02863C14.8257 1.97441 14.7606 1.94054 14.6901 1.93438Z" fill="#4582EC"/>
<path d="M5.12887 7.53546C5.03447 7.5144 4.93609 7.54609 4.87172 7.61827L1.13837 11.6183C1.07081 11.6875 1.046 11.7878 1.07356 11.8805C1.10112 11.9732 1.17672 12.0437 1.27109 12.0648C1.3655 12.0859 1.46387 12.0542 1.52825 11.982L5.26159 7.98199C5.32915 7.91281 5.35397 7.81243 5.3264 7.71974C5.29884 7.62706 5.22328 7.55652 5.12887 7.53546Z" fill="#4582EC"/>
<path d="M11.1283 7.61827C11.064 7.54609 10.9656 7.5144 10.8712 7.53546C10.7768 7.55652 10.7012 7.62706 10.6737 7.71974C10.6461 7.81246 10.6709 7.91281 10.7385 7.98199L14.4718 11.982C14.5731 12.0857 14.7386 12.0896 14.8445 11.9907C14.9505 11.8918 14.9581 11.7264 14.8617 11.6182L11.1283 7.61827Z" fill="#4582EC"/>
</svg>
