<svg width="16" height="16" viewBox="0 0 16 16" fill="none" xmlns="http://www.w3.org/2000/svg">
<path d="M15.5801 12.3433L12.3417 10.1836C11.9307 9.91176 11.3798 10.0012 11.076 10.3892L10.1327 11.6021C10.0114 11.7619 9.79107 11.8083 9.61569 11.7109L9.43625 11.6119C8.8414 11.2877 8.10126 10.8841 6.61001 9.39228C5.11876 7.9005 4.71429 7.1598 4.39006 6.56604L4.29167 6.3866C4.1929 6.21125 4.23839 5.98994 4.39831 5.86774L5.61038 4.92469C5.99819 4.62083 6.08777 4.0701 5.81622 3.659L3.65654 0.420547C3.37824 0.0019216 2.81988 -0.123747 2.38904 0.135246L1.03484 0.948718C0.609337 1.19887 0.297165 1.604 0.163778 2.07921C-0.323868 3.85601 0.0429834 6.92249 4.56019 11.4402C8.15353 15.0333 10.8286 15.9995 12.6673 15.9995C13.0904 16.0014 13.5119 15.9463 13.9204 15.8359C14.3957 15.7026 14.8009 15.3904 15.0509 14.9648L15.8652 13.6114C16.1246 13.1805 15.999 12.6218 15.5801 12.3433ZM15.4058 13.3378L14.5934 14.692C14.4139 14.9992 14.1224 15.2251 13.7801 15.3223C12.1398 15.7727 9.27415 15.3997 4.93745 11.063C0.600745 6.72627 0.227769 3.86082 0.678108 2.22028C0.775469 1.87758 1.00162 1.58578 1.3092 1.40599L2.66341 0.593584C2.85035 0.4811 3.09269 0.535624 3.21345 0.717284L4.38662 2.47862L5.37129 3.95546C5.48921 4.13378 5.45046 4.37277 5.28224 4.50472L4.06989 5.44777C3.70094 5.72988 3.59558 6.24034 3.82274 6.64547L3.919 6.82038C4.25976 7.44535 4.68342 8.22283 6.23013 9.76928C7.77684 11.3157 8.55407 11.7394 9.17875 12.0801L9.35392 12.1766C9.75901 12.4038 10.2695 12.2984 10.5516 11.9295L11.4947 10.7171C11.6266 10.549 11.8655 10.5103 12.0439 10.6281L15.2821 12.7878C15.4639 12.9084 15.5184 13.1509 15.4058 13.3378Z" fill="#4582EC"/>
</svg>
